<mxfile host="Electron" modified="2023-08-26T19:56:27.062Z" agent="Mozilla/5.0 (Windows NT 10.0; Win64; x64) AppleWebKit/537.36 (KHTML, like Gecko) draw.io/21.6.8 Chrome/114.0.5735.289 Electron/25.5.0 Safari/537.36" etag="WxP0D7hE015tSPZRM0fx" version="21.6.8" type="device">
  <diagram name="Page-1" id="mxjehB3a9qrkVwvjf4hk">
    <mxGraphModel dx="780" dy="496" grid="1" gridSize="10" guides="1" tooltips="1" connect="1" arrows="1" fold="1" page="1" pageScale="1" pageWidth="827" pageHeight="1169" math="0" shadow="0">
      <root>
        <mxCell id="0" />
        <mxCell id="1" parent="0" />
        <mxCell id="EHKfN0rfkp6UrvfrL8R5-8" value="" style="shape=image;verticalLabelPosition=bottom;labelBackgroundColor=default;verticalAlign=top;imageAspect=0;image=data:image/png,iVBORw0KGgoAAAANSUhEUgAAAwEAAAKSCAYAAACKmtdMAAAAAXNSR0IArs4c6QAAAARnQU1BAACxjwv8YQUAAAAJcEhZcwAADsMAAA7DAcdvqGQAAP+lSURBVHhe7P0JdGPZdd8LbwAEiZEYSHCsKrLm6uqq6upB6kEtqyVLlmxZimwlllZGKcm34nz29+Kst+LkxRnk97KSZyu228qLnXhKO35x4vdiuSXLsiy12tWtltWyWlL1XPNIFgeQIECCBIjxO/vce8CLywvgArgXOAD2by02BrKaxD33nLP/ezpAEARBEARBEARBEARBEARBEARBEARBEARBEARBEARBEARBEARBEARBEARBEARBEARBEARBEARBEARBEARBEARBEARBEARBEARBEARBEARBEARBEARBEARBEARBEARBEARBEARBEARBEARBEARBEARBEARBEARBEARBEARBEARBEARBEARBEARBEARBEARBEARBEARBEARBEARBEARBEARBEARBEARBEARBEARBEARBEARBEARBEARBEARBEARBEARBEARBEARBEARBEARBEARBEARBEARBEARBEARBEARBEARBEARBEARBEARBEARBEARBEARBEARBEARBEARBEARBEARBEARBEARBEARBEARBEARBEARBEARBEARBEARBEARBEARBEARBEARBEARBEARBEARBEARBEARBEARBEARBEARBEARBEARBEARBEARBEARBEARBEARBEARBEARBEARBEARBEARBVOFQHwmCIAjCdjweT2hsbGz+oQfPP3Xo0KH5VCqV/PMLLzy7uLj4qvojBEEQRAcgEUAQBEFYjjD2Jycn5x9/7NGnjhyenz9+7Nj8yftOzk/FYmH1xyq88OJLF3/zt3/nma899/VnstlsSn2bIAiCsAkSAQRBEETLCGM/4PeH3/GOR5568PwD5+sZ+2b4/LNfuPD5P/rCs3/8pT/5VfUtgiAIwmJIBBAEQRCmiEQicxOx2PyJE8fPnzt39vyj73jH+XaMfTOQICAIgrAHEgEEQRBEFfq8/UcefvD8E+964rydxr4ZfvGXfuWZP/3KV5/93ve+9wX1LYIgCKJFSAQQBEEMKLIa+2YgQUAQBNEeJAIIgiAGiL/3d/76r5w+80DdIt1eYjkeT37uc//xmW+9/O0LJAgIgiDMQyKAIAiiT6hXpPsX3/yLi5hb/79+6sNPD3t8EJ2ag0A4BsFITP3Xvc+bb7x969d+4zee+c53Xrlw+cqVF9S3CYIgCANIBBAEQfQg7RTpJuP3ILV2DxLLtwEFQezAMQiNz8CI16/+RO+DguDfffazT3/v+xcv0BkEBEEQ+yERQBAEITF25+2vL93igiC1tgTeQIhHCPBryD2s/kTvUSwWIZfPQ3o7A3n2+C/+1Wc+84d/+Ic/r36bIAiCYJAIIAiCkAC9sY+Ha/3oRz78VCdz9rWCIBAe59GBiYPH1e/KhzD2i8USbO9kIJPNQi5X4O+VSiX1pwB+//d//5lf//Vf/7T6kiAIgmCQCCAIguggwtjHk3RP33fqvBWHa1nNbmabpwqlk3H2tcYjAygIwrEZ9Sc6Dxr4jYz9WtQSAbOzsw9g/QTVDxAEMYiQCCAIgrAJYWRadZJuN0BBEF+4xgVBJp2yXRCgdz+T3eVfmMojnpsx9mvx5S9/+dnP/+EfPo31Exhl+eAH3v+Ufhyo5ShBEIMGiQCCIIg2Qe/+3KFD5/2BQBiNyB/7yIf+9c/+Lz/5M6cferxnjH0z7GwleYQAvxDRYagVQaDP27fC2Hc6nTDsdkPA7wU3e/R6RviXy+VSf8IcJAgIghgESAQQBEGYxEyRLvat/+5fvnzrxMzoeUylCY1Pc8/52PS8+hP9wdZGnNcPYJSgXstRYexj+s72zg5/rnj5C+pPNI8w9oeHh8Dv81Weez0e9SesQZxB8NxzX3+WUoYIgug3SAQQBEHoMCrSffydj56//8x9TVnyIrcejeVOpNJ0CywoTqwsQHpjhQuC8OwpyDuGm8rbr4VnBD35Tgj4ffw5Gvto9Dfr3W8XOoOAIIh+g0QAQRADizD2O5G3r02lKRbyvDd/q6k03Uabt59VH9HYz65eAVcxAw7/BDgDk+pPmwO9+yJ9x6M+dsPYN4M4g+Clb/7FsxsbG0puFEEQRI9BIoAgiIFApiJds6k03abZvP3c2rWGIsCqvH1Z+PyzX7iAJzF/7bmvP5PNZlPq2wRBENJDIoAgiL5CFOm2cpJuN9D25u/W6b16Y7/VvH2tCBgana7K20fhkN7ega2V6xAZDfRlWpQQBH/8pT/5VfUtgiAIaSERQBBET2KmSLfXsPuwLmHst9pv3wjh2ce8fY8jxwx+L4z4glzQGHn3RctR/Jy57E7f1kn81u888+x/++9/8Ax1GCIIQlZIBBAEITV6Yz8cDoWxfeNmciP5Xz/3ry90w3NuN4V8rlJQjB2GUBCgsdxMh6FcTvHoW2XsI263UpSLRbr4vN28fZEWpW05imMpW1pUO6Dw+j8/+8vP/OZv/fZnqH6AIAiZIBFAEIQUtFKka7fnXAYadRhqNm/fDN3I2zeqk8DP6Qv2RmCnUZTlZ3/2Zz/1rW9963fVHycIgug6JAIIgug4VhfpWuE5lx00MlOJNVi4/gYUM0m2ejvBPXXWUmNfPO92ka5W3HkDoYogkCXao42y4HMUXY2iLEIEaO/9UCgUpjMICILoFiQCCIKwDW2RLqbyfPAD73/K7iLdXu/NLzzK6EXO7qJXv9qjXMpsQHlzgYsA18T96r+qjzZvv9v99pulm9GedqIseoGVSW8lh31eMLr3xRkEf37hhWcXFxdfVd8mCIKwFRIBBEG0jaxFuka9+dGIlCXnHA38Zot0zYiAcqkIkVE/hMLRnjH2G2EU7bFKEAhjHw18PPdAPDfTHcnq1KkXXnzp4m/+9u88Q2cQEARhNyQCCIIwjd7Yb/Uk3W7QzZxzNDKFFxk9yuhZbmTs10KIAJfbA57pM/uMz9RWGjZTm7Bx4y/7vk4inYxzQWA22iOM/Va6I3UjmkItRwmCsBMSAQRB1OUnPv5X/vWjjz3R1cO1rMYo5xy/htzD6k+0RjvpI7Uw8jR7mPHZ6G8dhDoJpFbL0WB0snL9tacamxkLbRckWVKnSBAQBGE1JAIIYsCpVaT7pT/+kwtf+OIfP/u//6O//ky3DrHqBK3knAtjH73I2zs7/Dkamc0erqXFTk9zr9dJ1EMrvPAz7qxe5+87o8fA4fby57WwOpWnU/ziL/3KM9gml84gIAiiHUgEEMSAoC/SbSZvf5BacepTTEaC0ZbSR+qBBn63inT1dRK9IgjMCK9yMQeltcv8uZEI8I+4YDQc7Rlj3wwkCAiCaBUSAQTRZ9hZpIspJph60Wwudi8g2j6iYZlaX4GtxTf5+2Y8yrWQ3dNsVCcRCMe6XjjdSsE04nSUYSh9F1xDbgjO3Ader48LLBzTza00bNz4Lnh9yufEr3bTv2Tjn//Lzzz9rZe/fYEEAUEQZiARQBA9ijD2jx07ev7M/fef73SRbq1c7F7xKNfL22/kUdbTq2klWrTRnk6lf+FYiOvfTt5+M6cXD0JUS7Qc/c53XrlAZxAQBFELEgEEITnC2LfycC2r0XqU0QuLBmS3Pcp6Y194+c3k7dcSAcLYx/79iM+Rhdj0AQgEQ32RWiKw2lA2I7xqYZfA6vfCaRHZ+u73L976O5/6u09Ru1GCIPSQCCAIiYhEInMTsdi8rMa+GTrtURYGppV5+ygCRrLLSlrJ9Anw+oL78vYTyRQkFy5BKr7Qtx7lZg1lMRbavH18LkRTPYSxjwa+R/Xqc+/+sFv9CfvYK5xe1BVOz6o/IS9mBNanP/3pp65du0YRAYIgqiARQBBdQHj38XRQfP5vP/NPn/2RH/3o+enpAz3fflOL1R5l4d20skgXjU/hXUbjkxueGmO/EYPUilN8TmEohyfnIFt0NjUWwtiX9fRipXD6Fv+s1YXT3RUERgLLbGSrlgjAtSebzabUlwRBDBgkAgjCRoSxX69I9zd+87efff9j932sn3OUmy0obid9pBZ2pZVoEXUS+Dn7pRWn0Vhs3H4VXKVdcPgnwBmYVH9yP+0KrG6jpLktatLcjrM5an+aW6uF0bVAEbC+vn5LRBnn5g7NP/qOd5wXUUY6g4AgBhMSAQRhAcLYn5ycnH/8sUefaqVI18jT2usGpBFGBcW+sYOQLzksNfbRu+z3+fhzbnx2IK1Ei7YVJyLGs9udd2rRjPAqJm4A5LcrIgCvufg5Rz4NsfExiE0d6Blj3wwoCESEQOmkNM/Hs50Tp2UUu9RylCAGBxIBBNEEwti3u0hXGJBoLCMir15WA7IRRqkM/PmdV/j3naFD4PCE+HOzCGNH1rQSLUatONs1IFtFOxaYq99KKo+7kGICywsj/jB4A+GKwMI6idTqAiQXL3Wsw1A32Etzu6eeOD3Px7RWy1E7jX2t2MXnXo9H/Yn2IUFAEP0NiQCCqIEsRbqKB1LxKAvDClMSumFAmsFsKgP+DKypvfgbiADRDrJX00q0aOskFAPSvp717aSVtHugmdX1ILKiFQQ4L7m4i85alsqDtDsW7bIcjyc/97n/+AydQUAQ/QWJAGLgMZO3LwsyGVbo3RQezWZ7vAuKK6/zRyECtKkM+P/a3NqG4d04RMcn+tKAXL17ldcPtDue7Xia8ZqLlBFMH8Frb6WBaVQ43Q+CQNz/aOxjwfrW+iLsrt/k33NNnuOPzaK9/2U9b4LOICCI/oFEADEw9JKx3wi9YRUan+YpCXbUD9iZyuArJXl0YyQ4prbhrM7bR+NqnX3ONDOwzBQU9ypm60HaNfa7bWD2Yt2L2WtezqaglFLqPxqJAP1YiOcyGftmQEHw7z772ae/9/2LF7DTmfo2QRA9AokAou/QFunOzkzPv/TNv3h2LBKe//x//b8u9KsBqS+0beVzCmMH0xeabUFYC2HsWJHKYNXnlB2sB4kv3oDEkuJVDs8cB4dvzHRaibjmIj+8G+kjZtAWTle34uzOeLZ7/xuJAO39L4TDcG6dHzA3NnmQ/0y/8MKLL138zd/+nWe+9tzXn6G2owTRG5AIIHqWZop0n//6hYsnDkXOoxEpy4m2dmDm5F5h7FjZghARefudyFs28zl7hVpnHxRSC1DeWQcYGQVXeE796Wq6nStuFUaF03aOZzu1ErVwFnZgpJjidR6+2GEeZdGPRXp7B5L3rmju2860HO001HKUIHoDEgFET6At0tX3uFZ/xDTavHpRaItGhx2Fmd0EP2d88SZkthL8c44ePAeZXQuMHQnSSrQYjSd6lGXrSNNsKk8+uQjO3QQXAe7oYX7N0cjHOglswzke8kN08kAfd95pfzybveZmsOr+T8YXK6lRyudUBIGsBf+t8lu/88yzX/zSnzz7wgsv/q76FkEQkkAigJCKTuftY2EmbsK9XrBYy9gp5rNQWrvMf8YZPQYOt5c/N4Nsxr4ZZCic1o+FeG7G8Ky65o4CeIbZdQ+E9gnURHwFksvXu/o5O4HZ8WznmtdCm8pjd6Rl73OaazkqM2Is9JGWn/u5n/uZr37taxQZIAiJIBFAdAXZinRFvrnsJ702a+wUCnlwrF/iz+uJgH5JKxGIAlSzJxS3Qi1jB99rZHxaZWDqT2K2s0C8m4hC+MTKAo9soSDwTRyDPLvMvZbK1oi9jlF7LUdlFXg4B4TDoVGHsJ//+Z//meeee65KBGCEd2NjQymkIAii45AIIGxFW6QrTtLtVr99s+jzzYUB2cm83XYMTC16EYAHO2kNTyyAXEskoRi/BLGZzn/OTiAEXjsFqNq8fXxez9jR0ykDs98Kp2sZmPklpQmNM3IYHMMB/twsvRTdqhaycc14zqo/0Tn0zgcxLmbXIrzu/88f/MEzN25cv6h3+ogzCJ577uvPUstRgugsJAIIy5idnXkg4A/YepJup+lEvrktRYqqseP3DoO7mObGv1FaiWArlYDEvRvc6MDPKQyOfstPblSA2o6xI5OBKYOQNUsz1xznSeWAuToiQIwFCi5xmi6Ohb4Fba+gCDwldbFa4FkrCNp1PrR73ekMAoLoLCQCiKYRRbonThw/f+7c2fPJZCqJXpz3veuhT/29v/Hjn8ICt35LR0DazTdv15tmhB2Gp/ZzihNt+y3fHMdi+c41WF+8xusmhgNRcIbn2Lg0bgepv+ayG5goCHgqTZcFnrj/0ajM7uK9rxiY+LwZKgfMqSIAoysiuoW/AyNbjvQ9GI9NVAm8fkFprXqLjydGtkRnrGYFAV4rXH9adT5or7sdES5xBgG2eKaUIYKwBxIBRE2azdu3Iu2iFxBhejSUjeoH7DT2tR42u9JKBEYnvfaawBNjUcuzWdq6p7ThdPvBFT2i/isFcc37qVbCSODhl9UFqLXanrY7B/C6B2GTixlfKAZef9BwLNZX7kJqlX1pInj92HlHifgsaiJb8/uET7vrkR2OhmYRLUfpDAKCsBYSAYQtRbpGaRfd8D7aCW6uqcQaLN16C3LpBH/Pf+iRpj2beuz2sLVCL+SbC88mfjUqUhQIEeDyBME/fV/FuEltpmEnuQwRn6svhSxiRWcsOwWvNtKCz1u9//up8049Vhdv8EPmctvKKdz+mbOQK5RMr0dGjgYZI1x0BgFBWAeJgAGiW0W6/ZBegt7MWt7kwk4SHFt3+c+5Js/yRzPgpiu8amjsoKHTbWPfDPp8c+Fl7VTaRTuG5z6v5sgQF1pGBmFmZwfWF68OfGQL0V9zfI7XXJbTpM1gFNlqRfjIQK1IS3F3G0qJq/xnnOOnwOEyFjoyOhpaAc8g+G///Q+e+d73vvcF9S2CIJqAREAfIox9MyfpdpJeaGfYijfZjAgol4oQGx/rWjjdLrQCT6RdoGFlReG0MDzRwMEuRs0YnlZ7NY0iW/2Yb44F4lgrkV5T7ufg7P1QcnkbzoFGaAWvR33sptG5J3wWdcKn85136tGs4C3nM1UiwOX2VOYBP2Qum4DxaBim50/xn+knfvGXfuWZP/3KV58lQUAQ5iER0OOgwT936NB5UaTbzkm6naTb9QPteJP1lLMpKKXucK+4Z+aBKsNTbL6pZAK2F17r+OfsJFpB0IyXVYxFqx1JOu3VtFP4dJJ6gje38ja4oACO0QPg9EbUf9GYfZEW1eCXWfDqC227IQiMBC8+bzaVx+N2gMexy+9L3+gYDI941J9QogeJ+D3YWr3FHTGyCh8rIEFAEOYgEdBDoMH/gff/4KdkOFzLSuzsXiI2V2HoiOeWpjEwo9PtLPO/vV6esWJs3ObiB+lXQVAvvaSe4dkI2bzJSKvCp5OIOdCM4DUjAtwuBzcyez2lRIu20FZJdTtuecSn3aJpK0Sv4oSxv+Vot6EzCAiiPiQCJENfpIt5+4+/89Hz2Dv5zTfeuPgr//Inn+3XU0GRVusHhKHTqje5FnYZnnYKHxkQ4xFfWYL1W68DlPLg8I2BM9j4nu1Fb7KZvHq7sXIOaEXAyGhMHQ/F6CyWirC5lYbkvavgH3ZIKXysIBlfrIypEvFRBIHZOdqK+NLSqXmgFz7KvTvbs6luta77hz/84flkMkmtRglCA4mALtFq3r6RNxm/+i03uZ5RpfWk4XNc4FsxdLR00/BsVfjIgNhw66UxFBM3APLbhiIAT9PF66xNn/J69lIYehExR/HLrlS3dr3JRmjngCO3BYHgKL8fa0W3eqHGxyr25uj+DkNGcwDXJLPRRnHdcR6go0GMQTdEr1YQKM6J/S1HZQLvfbOi9yMf+QiJAILQQSKgA8zOzj5gR5FuMn6PGRq4OfV2bnItxObaije5FkYbLj6XoQ2e7EZVMxuuFhQB2IVnyD8Gwdiham/y0g2ew4wGlTCq+gnFqGq9oLhdb7IRYg6g4LKqFaSo8cHPKmsLWStIp7d4G048ZM7lKINv+j7Iw4jp8bAiladTaIWPiIR0a3+xYh584AMfCGvPGNBG3fE1tRwlBhESARbSzSLdXshNroWZBb6eN9kIYej0ahs8YVTZ6U2uRTsbrtabbCaiYtS2ET/r2PS8+hP9g3aOCtEuhI+45q16k2vRDaNTK3z20ktmeipa2WgO5JZf5yLAGZoDhyfE39PS7DyQHa0gQBFr1/4irjtea6tquBC89//BP/gHHzt9+r7z9RxxdAYBMWiQCGgBfd6+TEW6MuQm10Is8K16kxuJAHd5F2YOHu4pY98MRt5kHNN26wc6aeybYVC8yXjfxxdvwurtt1Vv8qmmvMlGyGp06qOVVt27VtGq0VlcfQP7/sJQ9AiMBMb4dUcSyU0obK9pDpnrr0LbatEeb0sQtBpZrIeV84A6DBGDAImAOtQq0r3/zH094abspkfO6gUeRYCrnIOR0BQEJ+arFnj8PRupTUguXYed9bt9azwiWm+yqB/Ar3ppNO2IL7Gpkje5efQiCx+117y4+iY3JJtpw9nLHuZW7l0raXdN0kZVRiDLRI2fCxv9348pQ7gWVd+7vVtoW4s9h1P9sxbacTbUQswDXIs6cboxCQKiXyERoONDH/jBf/SBH/qhp2Q4XMtK6qUitIOdC7wwdMRzM4bOoBRO10qjCY7N8vFoxdDBIl3lWsuVPmV076KxIUvtS6tzwIwIwMOfpmYOSDUe7WJ07+J4WpVe0u6aZKXQarfDUK+A6y7WSqTid3n6YnjmODh84/y6t5vKI9u69M//5Wee/tbL375AgoDoB0gE6Hj63/zs98+fmj8/SMajmQ3YTmPfLi9zPxdOa8cjnUpA8vZF/r4zchgcwwH+vBb94k3udO2LuOZWRbhyy2/wdKChyCHwhaf4GIg2tPg7sHB69ebr4IYcX4tk7tLSKu2kL4rxwHVIpPLgfOiGsW+GvXt3f4ehXqNWd6rCxm0oZzcARkbBFW4uYN5r69Kbb7x9C1t3f+c7r1ygMwiIXoVEgA4hAtSXfWc8aqlVfDoSjPJFvZWTK2vRbW9ON43HdjAjvsqlIpTib/HnRiLA4ypBZHyyssH2grHfCLtrX+xuwYlGjsdZqNuCU6C9d7uRRtMp6rVWxTGwKpWn295kK/Pq7aZZ508pdbehCBDzAMcA2wGL8ejl1sAoCP7dZz/79Pe+f/HC4uLiq+rbBCE9JAJ06EWAll4yHhuh92qu3noLCulV/j3X5Fn+2Aqye3PsNh5bpR0vsxO9yem7PP84OHmUGYphvqniZo3e5I1bF2F4yGlZCphstNOXv1kjxwx2Gjmrd5VTXu1Io5EBMR7Li3cgebf9mgl87JaxbwazefV2U2v9adb5oxcBOB64/qP4wufoWEolN2Aku8Q+6zz/rP3mXHvhxZcu/uZv/84zX3vu689oW5IShIyQCNBRTwRokcV4NAMu8MK4wbA5PuqNy1JmA8qbC/y5GREgu7FvBn39gIj42J1y0Y6XWURU8FqbPcHY7hxsmajVSWnEF+TXGK+1lS04uxXhklXMmkUvvsRz7RyoVzPRD+uPHmU9usXHtVrMWisIxH7QalTFCDEe/qE8uJ1l7ojwjUZrjoc2NUrmSEi7UMtRQnZIBOj4N//bT//5kw+f5oeHmEFraHS72Eu/sQrD38ziXthJgmPrLn+uFQG4uCP4/0CP8+iIA2Izhzpi6HQSbcqFVSlg7YyHXUaOSAHDz9qvbTjRsEGP5uKNt2Fn7RZ/zz11Bkrl1pc7mY3OdiIhnUCMR7NGJ4oAvL4j0UP8oLkqb3L8HvgcO31rPCpiVjm5t9UOQ+2sP7UQ88Cq1Cp0UOBnVA5IVFKj8LP24zkh//MPn73wf/3arz/9/YsXqaCYkAYSATqaFQFaRL6u3ZuSkRcNF/d2vJrlbApGiim+4YweOLNvccfNO7G+DqtXXuY/j58Tv/qtUBFptn7AaDzweTPGPl7rTrS609LrbTgbGTnYWaeUUKI8zvGT4HA1ToMS44FjINuJ0maoFQnphINCPx74iK/NGp147YW4wmvvcZX5ZzBKX8vtZmH93g3VeFyrfM5+ErOCRh2GxHVvRWjVQz8efB6o+4EdyJIa1S61xgNTq1588cULP/dzP/de9UcJouuQCNDRjgjQYsWm1InFvZW8WTu85jIivOZoaFQ2pYkDMOQZbXo8hHEpS3GiHpnHtJGxXwuzImDEmYepmTmpxsMKtGNqZUFxq+MhEHPBqqjKIES3BKuLN2D51mUo5rbBG4qBMzRvyX5g5XhYQadSo9oF54K4/2ul2mrRigDtOUSL95ZuUctRohuQCNBhlQjQYibXvBPdSOxY3NHQwIW633LNteOBz9duv86sjU1gCgBcY/U/n1ZkdcKDZjXdKj61WvQKEYBRDv/M/eD1B6tEL27YWDi9cvllYNqsYmj0Y3SrlTFtdzy6IXz74ZA5pJ7Qym+tgnNnWV2LTqj/whw4BrI6ImphRWpUu7QjfMU8wH1gJ7OT/AYTAj/6kQ8/pT+DaDkeT37uc//xGTqDgOgkJAJ02CECBMLDGowdbNmLZoRYZLQpJfi8ky3XetUbZ3ZxL23dg/LOuqEIcJYLEAmHIBSO8IW+V4z9RhhGQiwaU73Iwmtu1rishZHo9bB5YMbzPUjRLZFaoh3TYHSycu+b8WjqkVH4Vo+pl42pfAd1tSK0SttxKKeXGooANPLFXBDCt9fXJn1qlOgwZOWY4hi0KnytahRAZxAQnYJEgA47RYDAzIFORnTDs9YKMnrjxGYrjBzx3EwdBV53dzEN7tIOBKJTMBKcqIis+PoGpNZXYGvxzb6KhOjRjiliJrqFtONBq4Xd80BrPPbbmGrHQ9y3iNk1yUho4ZfsxuXemO4d1NXpMdVe+1aElkAbCXDHTvHxEOILn2PhdCK5Cfmlixrh3lt59WYwGlP8vGbT3dpZmzo5D+gMAsJOSATokEUE4CIjFpZeTCkRGHlYm1mom0Us7K16ctCgbMW4HKS8ZKMxDTJxBC43v9b9cshcLa95L4ypmXnQ6JC5bh/wZwedOKirHeOyHmJt8g87wON2sLnn561va42HDGk0nUIrCPRjKsZDuzbheJh1ACn3fPWe0K2DzegMAsJqSATo6LYI8ME2TM7OQTAUVd/pD4x61eOm1E4rOFzcxQbbrGfNTk9Ov+Ql10IbLl+5fhGKmSSzGP3gih5Rf6J5ZPcwy9yGs9V5IEQA3qO+yRO8rzs6HBCslUiyz+oBRdDil13CvVsowv2qQbqbea95O6kjtbBjLnQijUYG0ptJWL57DbZWldbAvun7IA8jpvcEca17wfFGZxAQVkAiQEe3RYA4IKefU0uE19ysQdWOZ63bxmWnIyFWYua6V2olTIoAMR7oTet0S1Sr0Io8xaBS7l+7Dap25gFiNBca1Uz0+wnFAtGNBscU0QuCdq+9Ed2aC+2m0chAo/EorrzGH52hOXB4Qvy5oNt7gh381u888+wXv/Qnz77wwou/q75FEKYgEaBDFhGgpZGR3MugQSU8rMKgGglNQVb1qOHC3k7YVnlPjsVdVoOqHQPHjAjAwulR71DfHzJnVRtOMR6tepjtmAu9nBrVDHjtE6v32Fy9DLntJAz7w1AenW/L2EdkTK3qRGpUu7Q6F4QIwAjXkC/Crzsf2+QmFDZuQyQ8WiXy+olf/KVfeeZPv/LVZ6nDEGEGEgE6/slPf/qPPvzUOz6mvrSFZkWAoF9SS4wW9kx6E7LLan5yg4Odej1XuVv1A+0al0agCHDmNmE4MAaj08f3edZSm2lIrK1A8vbFjnrNO41RupsZgwrHBAUXjkcrXZLQ4BfXu1MpDCI1ar/XvLcEAd7/teZCKb0C5e2Vpttw9qqXeU/kde+gLrE+oTOi3fROj7PARbmRGMeUoeSKEvXBPVV0jerHWgkSBEQjSATokFkEaOmV1BJh5OBXvYW90cFOPlcepg4c7okNtRn09QM4plZsSGavezPoN1rx3Ox4GHnN+zndTS/yRoJRS1N5ZJgLRpE82USe1rg0e+3NioDRoJ+Ng6frBaNWYvdBXWI8cAzE2mR2Loh5gNfaihQqbWqUsqfK10bWCvAMgqef/g/PfPGPv/QMdRgitJAI0NERERA6tC9PUVCMX2I7UF59ZY7Q+DRbqOe76olrZaMV8IXdVQYf7PCF2BeZAq/Xxw2c9PaOcqDT29/gP4tGMm5I/d3hwnz9QDvXvRZio7UrtUqfWiLD/WsVYjyEh3n1ziUobC7z77kmz/LHeth97e3EjtSoZhDXHj36zXaB0aMVAdiGEw1NHA8RhcSxTaVSsH33e/wzdtpr3ikUJ0XrHYbqRVsagXNBXPdOzAOtIOjVWgmB9hwW7XX/T//pPz39e7/3e/9Y/TGCIBGgpxdFgBax8dplJBtttPjcTCvIdg0cIyOZe1j77ECnWqkleMicuNZiYW+3BafYaPGrGx0xZO6604haG63WwCnsJMGxdZc/NxIBWJgbCAR6ug2wnlZTo5rBzLVvFrE+8WiLo8DGxl0zpURgt9dcJup1GGrbCSSuO3sU61G35oG4f7FOAj+rjLUSgmav+2/8xm+QCCCqIBGgo9dFgMAKIxk311a9ONq8fXxutYHTz11LtAZOcn0ZdpbYPcFwRo+Bw+3lz5tFto3WCFlTS9oxcMrZFDi2FdE6evBc5drj/w8jXBu3X+dj0k/3rxaRGtXqqdPtXPtatOuMqEW7XvNeQIzH8p1rkLx3haeujsSOQcHpU3+iPniteynKJaKWeP/iF967OK6dFnniuuv342adQHoR4PF4QmNjY/MPPXj+qUOHDs3fuXPnFp1BMFiQCNDRLyJASyMjWb/R4iO+7gUvTq38617wJJsxcMrFHJTWLvPnZkSAXQZOpzFKLbHbSBbjgZtrKwee1br2bva6ljdZnxrVS/dvs9QrKG732tcCx0SsSZ2MtmhTSxSHzHH+WXspaoljgusRGp1GRevF1Te4CHCMHgCnt/pcm27vC3ag7DWK86l6r7FWEGj3Bavruf7ky3/ybHx19daRw/Pzj7/z0fP3n7nP8KAeOoNgcCARoKMfRYAWXLh8YwchX3IYGp21EIuI2EzFc5n6u9tVZNsuYlHHa42LuljgzVz3eiIAIywi39nnyMLUwcOVWop+AUPzwpMsoj54D7dzyBzSbjqJHR2qejk1qhnw2ifi92Dp2qt8rRsKTIAjOG2JkSOj0akVBDKmlmiNzmaiLSgC8PqORA/ByOgEL9TFf4MdwXbWbkJk1G+LkSwDlajPXY2gZfO0mc/azr5QDyF8rVqbqMNQf0MiQEe/iwCk3u8Xmyl5kptHLOqtplAZgSLAkbzBvYnBmfv4o9bAwd+5lkjC5tIVSK+jkWGNkSwjIurTjJHcqoEj6JZxqRW0IjVKBkHbDI2ufTF5mw3qJluLwmxNOsjfMwOuSb24PlULWqUvf6fnqlUpnnjdsW4C702jKFdmewvW713n97CdXnMZ4HM1rqSB8bnKxlM/V22vYenQ2kSCoP8gEaBjUEXASHkHDh091XPGfiPExoubEaZboJGMofl2vato4AijxuqQLRo1rbS/a8VI7lWMoj6+ENt0h7xso22+M4z22svW8tGoIB7HVpauJbXEb6NUHjMioFwqQmx8jBs5aOz0y/pkd2pJO+LXauOy4jVX56ryWfurVkKwunAD4os3lIPm2Fz1zJw1fd3rIaPwJUHQH5AI0DGoIqC4fpVZzNm+Nhzr5STXol1Pci3sXtSNPMn4Wfuh/7Xeq7Zx47t8zjj8E+AMTKo/VRs7Unk6QSe67jTCSvErRMCQfwxGxpQzQESqIY7JRnITtpJx2Fl623IjWSa0RjIi0hjNfFaxPqHoalb8CmO/k8ZlvQ5DvUatqEpuOwWO1E3+M66pc/zRLN3w7rcLnkHwf/wf//bp73znlQuXr1x5QX2b6BFIBOj4h5/+5H/5xId/4FPqS1uQWQRoEd2F+tFjk4zfY5sRelgV7yoaGehJdo349y3qVnj3u7modyM1ygrMCjBx7xqJAK0nuRc2VLOIqA+mldhRUNwR8esq8XHB+VcvqtGOkdxr4GcVLUf1RnI7KSXadUiWdrTaWgmZ+/I3OxewI1gJBS6jnggwcgT1+mFzb77x9q1f+43feObPL7zwLB1K1huQCNBBImA/uBnJloLQDvs8ydf/Eq1F055kI3rBg2NXalS7tOPN5KRuwfCQE0ZC0xAYm1GNGydvwZlKrEF2RetJ7u/UKKQZ8S6uvZV1LIhd86GekdwviDG5c/1t2Fm9zt9zjx2D0lDjNpy96ElGsOUzClq8j1Hg4Zh22lHR9jqkohcBegGG/z9+COYiW5cikaYLinuFF1586eJv/vbvPPPSN//i2Y2NDeWCENJBIkAHiYD6dCMFoVXMenDENTcjAsSC3skQuh10qxMNGpntGJytpPJojeS9nOTBOXUajSo0knE+iDkgSx1LO/SKJ7kWjQQYvg9rb/CfdYbm9q3ZRp7kXluH9GCEC9ckUTy9ty5ZaySLuWCH8PW4HeBx7PL5F4xO1RwPXjy9qCue7lNBQC1H5YVEgI6uiwCTxng7tCMCtHTKcGyE2EyFcSOem/Xg1BIBuKiLTcGRT8PUxAREJ6Z7epM1QvGuWntIl1kBVgut98xKj6aRkYyftZ9OnRbX/s71S3ue5NgJKDlH+PNWkbWWQoZaiUYIo1OsUfjYyOgUIgCFKx7IFWRiDucC/hvehnP1GkTCo7YYyTIgTmOuMpKb/KztrkO1sHoucEeF2mEI4eI90p8pb//zD5+98Du/+1+f+eY3v/m76ltEFyERoKMTIkA5XCWivqqmEyLA6Pe383utMhzN0K4n2ZCN69xzGZyYh+HA2D6DM5FMQWp1AZKLlyqGI37efkiN0tNs/YCRAMMNt1ljX+tJxuedyI3t9VOnxbWvNR+wHqIUf4v/rDNyGBzDAf68EXYJsE4gaiWwhqAbrSnbMTrFddd697ENZ601VbTh3B/N6z/DUYnm1e8wZMfe0I25oBUEfG81aDnaC+j3Bu1c+NKXvvTsL/zCL/yY+qNEFyERoINEQHtYZUzpN1N8tGpBF0am8OCYNTh7weNoFSIsj58V6wdC49MQnTkCQ57RljdZWT3Je4aj3uMoT/1AK/PBrAgo5zMwNXOg6fkgO1rDERGpUVYZye0YnbgWCYPSikJdvZGMtT69aDiaYX3lLizeeBuK2U1uJHum+7cNJ3fKxJWUN+6AYnsNrk2yRS6bLVonESAPJAJ0kAiwDjPGVDues3rYbXAKw3G/F673C0/1Y5JcugG7yUVmubDrFzul/lRtetmTrBhTrRXZWoGV80ErArCw1Dsa5fMB5waOBxqwWDy9evN1cBa2K0ZyPxqO7bSmbGdMujEXtLUSSuRSTsOxEeK6a4UWXndM8yzn0lDauMF/zjXZ/204Ea0gwHmK9QO473QyIm3V+qQXAR6PJzQ2Njb/0IPnnzp06BA/Pe9bL3/7Ap1BYD8kAnSQCLAeEb4Njs30ZQtOreGoGBiKILA7Napd9Au6eK4fj9L2GpTTSzVFABbCRaLjfBzw2neiKLQT2F0/0I4nuRb6+eBxFnhaVyNDweizdtrA6BRaI1lbUOxwuvj1x3FopTuMtJ5k9bNyw5HdvzJGLnEtEgalmZqJQnZrrxd/HREgxqHTRet2UolIM0EgTp5GQWD1uNq5Pr322vcv/vmfv/Dsg+cfOP/4Ox89f/+Z+wyPzRYtR+kMAvsgEaCDRIB9OHxj4Ay25ikXiwcu4uJAIb6gs8equ7isPmrB7xu9bwPraiFbVU79ge5vunxBZ4v3NjPyM7vNLegoAtyFFAx7gzA6c596/YfY/2eXe5LxsK7AaEgxMCT4rHagHddKGpjJz1oRW2wzbde7LxDzgRudzMARY4IGjosZs+2wqp5kW5Xy1mfjimOS3k7DwtVXIbe1yt9zT583NSZ1HQ+11h9Bs+tQvX8rvlfr/6n5t/quO2g44to0xgSQIY3+3y1SLFnjSeZtOFNqG04mAnBMcAyEAMPTqnkbzoU3IBRS1uF+rJWopG3GF/fOC2GCoJnPapV3X492nliR8oaC4N999rNPf+/7Fy/QGQTWoV1iCAaJAPswKwIqHjWtcdPG4tENdrMGOfVsww0zg8pOqgzOnPJo1thHKgu3jxk4zKD0srGoGDg10H9WvhGxz2n3Z+0G9T6ruPa4gVa6VDFjpNk+43qEgYNjYcVmahb8rBjdQqOxV8dVPx9wPLQGjt6Y1MM9yWz98TPjEq85jkGve5KVcVWEXlUNzLi1RvK+PHE2D5pZi4wQ65Pf4wJ3KQPeQBh8wWjNudCpzyoDO+kkJJaUMzQqKaooCNTPKuaC3hmEgqkdxJho5wka/jWdEfWELYLfbyBsxRkEX3vu689ks2wSEy1DIkDH3/xrf+VX/v4nPvgz6ktbkFIEJG4A5LfVV/ZQTwQ4CxkYjwQhNj3XU8a+GfjizBZmkWduhTHVyLhphNHCbYWBY8dnlRE0atKpBCxdfxWKuR0Atx/c48csMXCaEWCdYosJATSk9tVKhOWpH9iXvmDC6BQiAFMW/Qcfqjgetrd3YG0jCcXVNyA2e4R91lmpPqtVKONaXTzd7Gdtdy2qhdXOIO1nreow1FPjahQO2m8xJ9dXIL54A9Lr95R7+8ADkGEGf7tjIhwSuEZ5PB7NmDjVn+g8n//CF+kMgjYgEaCDRIB91BMBpfQKlLdXq3OvPf3Tu12gTSsx81kr3psmjRstlSLpDkdWjD4rpiH4AnLXSmhpZOCUtu5BeWediwBX9Ah/zwy9HO1KsjFV+rcr4yqEXqfGVT8m+Gh2PhgJLc/IEAwNGdc+JJnRKCI/ymdVC4p76B42S6PPasVaZIT94lcYyXvmDn5W/Jz4efd/1lpuaPlQxkQZA/Tu46OIPmLXrxLaEwxn7BQ4XObre5QxGeLrkxs7hknkkKgHCoJn/uv//cwLL7xIZxCYhESADhIB9mFGBGjp13xkARrJuAlpc699kVm+iJs9UEiLzJ7kdnLqO4EwcHBDRS+wdjOtRz65CM7dRF0RgF16YmNj0o2JFWjH1eoaGDEmOA8qZ1Aw47MZY99KobX3WXUnFNcQEN1jv9HbrGG7uniDe8xzmS3wjsbAGZ7n1799Y3+IX3/Fk4xjwuYEe+wmRvewjOOK8wHnQvX+UNu7b1YE4LjgGGjHRIxTL/OLv/z0M3/6la8+Sx2G6kMiQAeJAPtoVgRoEd7GfkgrEcaN8GRubazAzsoV/j1n7DTvUlIPYeDgQt1rucoy1A9YmassRIDLEwTPxEm+mWo30s2tbUhtxGH73pt9dQ/rEeOqFJ4qohY/b83CUx3tjIle/OIjvrbLiCkUctxATidX1c+qdt05cEz9id7ByJMshFZpO67pCnaf+i/MIQx+IcBwXvSCYYlF8XgPd9NZIcZEiF999NEsehHgcivpO8K7j+CYJ1dugd+VVz5rH555g5AgqA2JAB0dEQGBaXD6x9VX1XTEGO+WCPCEwRk6qL6qppEIECgH4SgpNLKH5IWx3yh8rvS8VtrdGYkAZ7kAsdikJd5MmbA7z1wvtlrdTPVUpfK4HeAeYgaPx1fXc9iftRJG3mVHpaAYP2/VGRrj03wutDomwrBUhNaeQdPNfGTxWfE+ri48lW9cq4WWElnB9ajWtTcrAjwjw1XiF0VYr69PelFrV2OHZsfELDgmLiiCz5HlxdMj/jAM83Vr/7hgy1FF1O4JeLyH+1EQLMfjyc997j8+89zXn3+WWo4qkAjQQSLAPqwQAVpkasGJBicu4tWhWnOeTBQBjq0FbkiOHjhXSRvBf89bcC68BcMOJgSYkYyfV770g/bRhuTxOjSqldBSS2xZ1fVCeJitSuVB8aN0LGkmp15rcOOyLXfesvBmptZXYPXW61DM78JQYALK/kn1J+qzV8fSOykKshRPi2uf3tlhQqvQsvjViwD9mKAXOZHahPzKmxCdmOGftV+jXO0KPavGRI824mJF7r44BHNfR7A+OARTz+tvvHnrP/z6f37mC1/44tOD3GGIRICOgRABBr+/F0WAllYW5lYQBmer3mVhWGo9Z41SefbSD3SemgGqlRCfFa8/Xm809nEcmhFbtRBjgptpdXqVEjK3k3X2OYX42RO1vZVWIsakWgDveTPF2mKUDmi1ESMLnSqexmuN199KT7IYE7+7BG4HHjZXvw3nVioBqfhdvkaJSC2mSPVvNyVF6FU6DI1Vnyhu55jgGGiFMc4Vu9jZUqKX+yJ6PSgIlH17T4ThoxiTT3/6009du3ZtYKMCJAJ0kAiwj7oiQJxKawFWeOCURaO9Thh2dICpnWrRqYW5Mx5pvP7prU24ffn7UMwk+XvuqTNQKre3ZMnqYVbSD+5UCT0c2zH2JQv6jdSsAMa1xVXOwUhoCoZGp/m1d7J5gfUSW+v3wO/MqkKv93LqzWBF4Wmr174RPG1EZ1i2Mx/aiej1GusrTPgs3oRMKs4/q2fqtGVtOHEMZBLG2lPx99qrVosfGRDzBB+FCMO5Uq/Bw6c+9amnrl+/TiKAUCARYB+dEgECs5sQLhi4WLTqXRaeZNxI7e8As2d0bzFj0TitJKT+hPwYLdpaz5nSx/0O/1kzRdOCXvYwi/oBFAWK0DvEx7WTqRY4DrXGpBF47fFa4zVHw9KLdRPsuZHRm9vNwurdy1z4KOkHnf+sncJMRE/MB7ze+paP7dCN+aAVBL0cvay1RmV3c2o9F9s72bLsnLjf9PqEiDHBvQPHgs8VNi6yN3hIxmtEuYKdrdET42Lk3W8GEgFEFR6PJ/RD733yZ973roc+dv7U/Hn1bUshEbAfO0SAFrEJBccPssXCqlQeZVPtZmGioBfSSnDRxuuN191MizvErAjwMMMmNDpa8WbiGPUDe+kH1zWpFuMWF0+35mG22rDUflaknwUBRn6Wb1/haTQo9IKTR6E0EmnJiNGiNSz9fqVLUrcNy04V2VpBs4alWRGgnSvc2Ff3j15wStRjfWl/lAvn7IjXusiPGBOrhbHgE5/4xPl79+69qr4cOEgE1GFmeuqB9z356KesjgyQCNiP3SJA4Bw/aerQlNqpPN03+Osh0kpwYe6WZ7Udw1KPVgRgOpDX69vzMLMv/B2YVrJ5+/sQGA3xz9q/aSV7Qk9EuXB8zaSVtLuRWp020gglp157cJWIcsndEcyIevMht3YNXMUdcPjGa7ZPrgUaljgHtPNBdsNSpDPiuHazm5JVhqVeBKBQxzHAscAxKRVLbNwzsLV8HUZ9mEbDxE8fFtkiq3cN2qs22WFIO1fMOorahUQAUUUkEp578l3v+tihg4fmH3nkwfNPPPHE+clYLKyEv5QNuF1IBOynmyLA7XJAiBmQwpuJi7eZjVT2yWPkWcVN12ovMj62kjZSiyoP85ATPEMl7mWqZ+zuGRdLqnHR72kl1w3SShTx007bQau9+1ZglFMva1oJXu9m5kNx/Qob0GxdESDjmFiBYZEtu4+tLijG8cCxQCPfSsMSx8XjKoF/KA9efxhGgmM1RZjourNP/PShIMDPqo384PqEn3dseu/MELF38HVKFWEoluw09mtBIoCo4mMf/sC//tl/+Dc+o3jZ5tjiVG14FNkGvHQb87DvQT6zqb7bHFKKgORtNntb+zxmkVUE4GcPeIf5oozj3o8Ir6rWi4xheW2thL7EV7s4iEVbeDPxsd2NVBg3uGla6WHWp9AIQdBv3UpwTNJbKbh9+eJe8fT0A00Z+zKljTTCKKeeGxcmDySzEv18aDXapRcB2sJ1LJ5GAymVWIGR/Dr/rP3cEUy7PgkjuZnIjxgTHAdu7Lc4JnqsFmHaIltESfGL9a0g0Ka9hWeOQ94danvvsBISAUQVKAJ+5tM/9hn1JTeUMISHC5KejO4AILOQCNhPt0WA9rMLo9FozPsB4ZHSepGF+BEb6TYa+cy4wV77Vm6kfraR4gaKX1pjXy9AECsWJ6MUGr34kR0xJvho5GEuZTagvLnAf9Y1eZY/asFrj9e7U6k8nUBEfnD9tbNLltG1byVtRI+YDz7Y4a1ovcExXtBvNCb4u5Xi6e6Ln05gppuSXYdsdbp7GBbZ4mfF+1iIH95eVbKuO2YQcwXHQy/CionrbNCwTTATu6Ny7askAogq9CJAizAgcJLq0XpaG1FXBHTCGCcRoL5SqPXZtV5kozHvdVLJBCzfehsyyRX+2j97DnIlR1sbqdbYR+MGaytkSF3ACJ6olTASP3bQyuIqNtJmIi5CBOD96pk5xz2WWLuCG/Bmehtcqes9KX7MYlVaCV57YeRblTYi5gPe/1YYlrLk1HcCHvlZvMn31lxmCwLRGb5/CMOyHcS4SJX21oEiW6sQc8V02huJAGkhEaCjnggQCI8iGoi104WWaqYLOfwT4AwYn5xJIsBejERAKXUXylklnaIW9cZcdoRhaeTdL+czUEookSxn9Bg43F7+3AyiWNTfYx7mXI36AfzqFGJMhLGZbzInVnvtvcyIcbvK/B7V103g71lfusmNC634GYSe/HuRn+oWweLat5vKo0dvWOKjnfOhUzn1nQLHAMdGb1gWNpegvL0CMOQB19gJ9afN0+midiuwosjWCqyaKyQC5IVEgA4zIkCLki6kLL569tKFlMJMAYmA/cguArTgoiyMC5loxbA0KwKweHp0NCSVd98KlI12f/2AlZEfbeoCjk0zqQtWRlZkED/aDadeDYoVrC5c5Z5k7kVmc9YdPQK5Qsn0ta+FGBM0JmWpp7Aip75TNGtYKqfJNxYBMnr320VfZCvSk+2oH7ArxQqRWQT8xE984vzSEokAQqVZEaAlduBoTQNCmy6kFQFlNsECAT+4h1wQ8Pth/fbrkN5Q0jPsolsiAEZGwRU2PgG1l0SAlm4YUggu0sJr1qxhqUUrAtyxEzDsDVaMGzd7xP/35lYatpcusfvTy40L/OpHtHO0lciPMG5aqafQG5Z47e00LDshfjoJXnvM09cblsWdDTa/2drGcMaaO8wJwXFBQ7KXvMiydFMS80GsU8KwxEO2mkEvAsRcwTHAccH/50ZqC1zbixAdn+D3cL81AUCs6jAkxsXqSFg9ZBYBH/3oR+c3NjaURWIAIRGgox0RIKhnQGC6UCq5wY0tIy/FzTe+xRdvOzGKRJAIaE0ECPZSD6bZc+tyONsxLOshCuD83mHwOAv878evWgZvZnsLEks3KlGtbomfTtCofkBv3AgRZta4qVx7SQxLI/Fj9X1sFbWuPb5nNCeUcyYaiwBhWMpUy9Lu5qycGWLQqtGGgmIxLsKwxMdaY9IMOC7u4hb4hx18zwyOzdacK+srd3kXmur7uP5p8b2K2Q5Ddnr3m6EiApjdUSsLoluQCCCqsEIEaKmXLmQEiQB7sUsEaNEbjWYQmyhfsLczPJUHPTRWdSGx0rjBzUcxHLWpB9Pg7cGDnBqB4ufO1ddaKp6W0bBshPA0dqp4uh5iTggBzB+bNGCMRIC2noJHurB4emcJomPK5+3H+3gvFazai2x2XxLgmOCaJNYpfLRynRKRMHxsJxKGqWD7cur7tL0qCoL44g0mgBb4ehw+eD9ki0pjgE4b+7XIxdVD8UgESAeJAB3vf+rJf/QvfvqvP62+tBRtupDY4HATwskq8rfziZu2G+MkAuwVAVqMPObt5IjXQr+J2p1OItB6kUXqQbeMxnbQG5xVxdPFHJTWLvOfM6qbENdeGJa9VCRdC2E0ohjQnjytvY+twkgAW3FwEI6L21EAvzPLjSNvZLamCEtovMjatpS91gTADHupYNUFxfpUMBwXnANiLihrlTXefRwHnCvc2GfPMTomxkVrlLRbNyKiIfh58T6u5NTbcB93ChwLHBu9dz+/8iYbtDw4gpjuK1c6VHFNPQ+DRIB0kAjQYacIEAyNTjFDfNJwMS0UCuDcTUIZDXKbzgsgEdA5ESDAzRa9yBlmYLa7icqWToJ00mhsF+0makaEaUWAqJtA7z4aq4oXeRlik2hc9F7nKDNo6wcQ/JxoOLZSP2CnANaKsFYFMKaCKffxXgoN3sOxPvUi40n4iZUFXofGvcgHrPMii3GRJRImGnXgl/ZsCSvWKCuFi0CIY7O5+8X42+w/JAKahUQAUUUnRICREW5EfncHhgtbUEivqu9Yg5QiQHPgkZ10SwQgRr+7HrJtombRG431CubtRGyi7RTqcoOSfblLGW4Q7qvxYb8DO9CkE3Kk0NiNNvJTLxWsnWtfD+FFFnNBEcH2CGAhbO0wGrtFLRGWXXoDXFBQm0Y0P09ldEzUw2w0pFPgWOCcwQhYq+KYREBrkAggqui2CHCWCzAem9i3kGo333YZaBFgkM4hgwjo1Z77jdAbjWgcW110KgxObty0UE9hlQGz52m8oxqN/Vs8jWjHFsWPb3we8uWhlgwYPXoR1m0BLJvR2IhmRVhx9Q2AcqmhCOhVx0Q9MBqiXaPE2NpRG2KXOEZyy28pQo5EQFN85CMfmU8m0QAaTEgE6Oi2CEBjfNhR4MZSrfQC3Ihw0ULPYyuQCJBPBBTjlyA6oRSRy2pYtINVJ/a2k07SSQMGjUYhCNBoFOKnl4tOaxkw+SWlxbZj9AA4vRH+vBl6zYusNxqVsZ2xVNg2A44Bjk07KVZGIkA4JnB8Nre2obi7DUFXBqKTB/nn7Ue0Y9tubYgV49IMFAloDRIBRBUyiACtMY7Gkthk9IhwtUi7MAuJADlFAJTy/LldHnNZ2EuzqO0xb8djJox9NGC0hiUa/N1A6zHfMyzkrR8Q156LLRORleLK6/yxkQjoRy9yfAFPh9cLW3vqB9qZE/XAcRlK34FAKArDgTHwBqOG45JOb0FqGdsE90Y0pB2aqQ2xa1yapRIJCOE8jKrvyoHMIuADH/hAOJvNptSXAweJAB0dEQG+MXAGjT0p9QxSs4eRNcJIBHTEECYRUFsErF/li6SeVj3mvUJqfaWSU4+GRfDAWciXHHxTNWvwo8HSiRzxdkHxI6IhWDyNYys8jd0CDRg0WNryIutEgFaEudhzLJ525NMQ8TPDcfJAT0dDaqGMrbIGK4XxrdcPCKMSH7Xj0uwhW3pqieNW5otRNAT3pUFprzoSPcTGQxHK7Y6LVRRX1GgOiYCmIBFAVCGzCBCIRbfVdCESAb0jArT0eo651mOGhqdi3DBjJ5/da8EZOQyO4QB/rqXfvMiifqBTh6/Z5a3kXuStW1zQDAcneKTDaFwSq8xgXEUjubdbyZphb2yVg5zqCQL9uPBH9tqKcenUfNEKArujIZ3CcFwyW5CPq+vU+Kmaa3m36AkRIGGqEokAoopeEAFacNFVUkf2//+EB2Pp9lUYcjnVd0kE9KoIEOwVr8mZY96swVnVh5+JAExHQGMF/z/oZXNsr8DMwXnuRe5HMOVAEe71O+6YBa81Xjsrc5GFUclz99s4h8IoGlJr/eoHlLHFlCF1bKePQGkk2nTxei2MvPudOB/ECH00ZC/SZf0JxVYh1irtfKk1LuV8BkoJtk4zSAQ0R271MrhKuyQCJIREgI5eEwFazKYLaUUAbiLoIcqu3YTcVpy/ZxskAiwRAVq67VVtx+CseCu9I+AuphUvMvvSRrfw/5+4dwPid97mr3s9GtII7TxtNLbCgDErtswi1gS7C3U7HQ3pFDguOA5iPHBe7CYXobC5xC6uG1yx+9SfbI7KfPH5+PjInPpmZ0/+VtHOFzEuzYhjEgGtI3PRMokAoorH3/nw3/l3P/v3nlFf2oJdIkDQKF0osbbCDzzShofvXHqFLdh3+HPbIBFguQjQYqcR1Y7BKYyXdr3IWgNZ9mhIu+g95vg5ozPHIVt0VMSWVTniMqRY7XVTus1rQ3D9QmeGzEWnYk5w7zEalXXmRCm9AuXtFYAhD7jGTqjvGmM0XwJMkMlo7JsBxxbvY4x2daKgWIwLzpFWWgbXorC7DY4kE6xlNkYxEgHNQCJAXkgE6OgHEaDFbLi9IyLA7QdX9Ij6ohoSAe2LAC2tHtCl3UDRuOEGThMbaKe8yMJgbKfdqIzg9dcalHj9txdeYzcp20AN0vjM0kvnUFjZptEq2j3puJYIEPMF/384x4YLGxDDVsGTB9Wf6C+sLig2mi/NjEszVCIBJAKahkSAvJAI0NFvIkALeopxM8VFV+8tQW/NzsY9e9uEkgjomAgQ1IsKiQ0UDRth9JvdQGXxIu917lhiz7FzR2+klIj5ZyaykotfUfJpTYgAmbz77dJMm0araGZcmsGRTYC7uAWB6CyMhKcMxyW9vQOpldsQv/NWRzzm3aaZgmL9foXefTxd1w5jvxaVSACD0oGaQ2YR8O53v3ug7WASATr6WQQIhgITfDLWWkBL22tQRjGQ31bfsQhZRcDWPSjvrKuv7KMbIkALbrS+yROQZcZNM4ZNr3iR99IOlI261WiI1bTrRRb3hr6WR4wB/n/LuTSE/cNw6Nj9/Pv9hhB7GP2xKscc5wAal62OSy2sOPzMyGOOn7Vfzw3BccXPW5365rR0XNoF51hp4wZ/TiKgOUgEyAuJAB2DIAKMfr+RB9EFRUgs3WALtHKoU9uQCOiqCEDq/Q36e4A/Nmm8yIIwKrRGVK0aGauwy4tc3LgJ3mEXBGLz4AvF9hWEosjYSKxBcuEtbkT1SjSkVZrNMbdrXDoVdenHFpyIGBc09HE8cFw2F5ghi84nXj8mV1ch2UVAbul1cDnKJAKahEQAUcWgigD8vZHwKN9QjTbT9ZVF2IxjoWLjw8hqMugiwOB3C7opAnyOLExOz/ITQ/sNJaXkukFKSev1A8J4sdqLLIxKNPLRmGylIFQfDel3QWDkMfdGZqvGxYrDnGSIhuk95lZEQzoFzhU09BvNl2LyFk9JdXgi4AzJVRdRJQJi94PDKZdzpLj8Gn90hufY9Qvx57JAIkBeSAToGGQRIH5vI8+pkoNd+zCymtQRAeVsiv0NNhcmM0gE7BcBxfgldhHylhjIMrOXUqJEtswYyHovMn9s09hHrEgZaYQ+GqIYjf3RTUk/Lvg5d9eUw7na8dJ2yrvfLs0cSNZJ9OPSbNSFREDryCwCcstvgQsKUkYpSAQQVXREBHjCNRe4ThikjUSAFjQM0Sg02lz0RlVDSARILQK0DEJKiSJm9wxk72gMSs5hbrRYVXgoi1GJBiN+9Vo3JWFUoue4XrvHZlM1xLjovfs4Nr0G3stifMW9jNFcu2th2q11MYJEQOuQCGgNEgFEFQMrAkz8XjQMxQajx1S6EImAnhEBgr2e7eO2GxWdQm+8bNz4S3YDltpqwYn0QgG1EO44T2XrpqRNGcHxUQxLc0ZlPRGABr/4fzjyWzA5MQHR2LRU42IVRulRuGa3UwvTrne/GUgEtI7U6UASFy2TCCCqIBHQmEbpQku3r8L2xtL+dCESAT0nArR0+3TiZjFrvIjPb1YE9ErKSCOM6gdqiXwrscOoRAPNsXWXr00j40y0job2HUq3kdyEZPwupBYvVdYwFD/92HEHa2EwMiDSNveiP/ULiu3w7jcDiYDWIRHQPMViCZ566j0kAog9zp05/Vc+95mfflZ9aQu9LgK0NJUuZCAC0KBCAwpbkm7dY8aYzTgjh8ExHFBfKZAIMCcCtPA2fsxglMGDjKARicZlK8ZLLRGg9SA7S7sQ9A3D1OzhilHZTwiDUetBxrndbv2AXUalWDcw6oIRFx55GXKY9njHF642bSD3KnvRn3tq9EeZt8OBMUuFmBWQCGgdEgHNs76+nvzYxz4WUV8OJCQCdJAIaJ16nkSeg728CCPhWUPvKW5QN994mT+3ExIB1ogALZ3yICN2eJHx87ucAL7xefCGp/h9qaTzKKk86EFOJVYgeed1jQd5ui89yIgwGJupH7ArZcTuqEstA1kWcWsFWoEcv3sZCptKyqZr8hx/lAkSAa1DIqB5SASQCNgHiYD2aZQuZASJgN4VAQIrDWRhVHIvcp2C0GZp16hsxUDuVWrVD6AHudWoSz060TGpHnvpUXsddzolbq3AjBAr7CTBsaWkXcooAvKJG+DMp6UUAYXsFjhSN/lzEgHNQSJAXkgE6CARYC210oXEhiWMifTGCqUD9bgI0NKMgYz3ABorVhuVdhbq6lPdhIGsv897Ga1RiZ9zZ1WpHah3H5vBbu++FRgV2KIYkKW9qta738ycUWqvbvPnJAKagyIBrUMiQF5IBOgYCBFg8Ps78XujM8x4CEyom1b1hlUuFaGEh4Xtbqrv2AOJgM6IAC3CQA5EJitGZS+ljDRCW2CrnGCrft4e8yDrjUrtIVvlfAZKCbUPfxMioBc6JjUCBcH+9qqdqR/QCjEr5ozskYBiggnN/LacIkAjoGQTAVjgCnFmaDNIBJiHRACJgH2QCLCRIQ+4xhpvnvz0YPbFj4+3GBIBnRcBAmfoUFubkzD29UYlGvyyYFRg20xanN3ojUr+qBPkRpgVAVhAjadPy+jdbxcR/UHRZ/WJvWaEmBWQCGgdmUUAd6KtvsmfO6NH9u1x3Sa39Dq4HGXpBAqJALYOqI+EyuRE7NQPP/XOT6ovbcHBjOFaE6Gc22KLYEZ9ZQ9Gv78TvxecQ+D0jakv9oNG3siwG8LRCYhMHYSx6XlwD7lgdyfNFrn2vMUChzeyzwjuyGdnOLxR9ruNO8uUMwlmiLeX724G3Fz1f0N5Z439x5rrWw+85/DeM4O4F0KjQQiHAjA1MQ6TsSiMj0UgEh6FgN/HvczuoSH1X8gBpotEJg5yw599YkiuLsDitde54YhpQ/7RznjB0JjczeVhJ5OFxEaKfy3H12Alvg6JZArS2zuQyWahwH6uXC6r/6oO7N7k9yjDG5kGj9cHkdAojEXDEBuLQjTCxtbhgNzmKmzcfo39fI6PoccX5P+mH0AhNxqdgvGZIzzKg3USi9deg+Vbb/PniJnPK8YmtbkFyVQa4usbsLy6DusbSfZ6i4sA/D6OjeUU2N+pRlvbORPDLrjzp5Rn64RXKmORU9iF8m6KP3UGp/mjNLA5XN6O86dGe1zX2V7hD+iANLsHdILt7Z3sH/zBH/yC+nIgoUiADooE2EidSAB6WYLDJYjNHjZMo0AjSjl/YFl9pzWkjQQkbtgS+dBj9DfIEAlwQwHGJ6d4b/eAz9tXHuRMOskjBNp+/FZ5kBE0Ku2oqahKsxpiBv1QiZ8V0SiqoU2PQmIHjvLP2ivpUc2irx8QEYJhb3Cfd9+K4vZ2KDEhV8a0SwZFAppD5noK2SMBstYr3GL8rb/1tw6rLwcSigTo6EQkAJhKdzJD3Ihyfsd2Y1DKSEBhF7KJu2xDvcMNJsTjCzBDRLlFsdvM2NRBmJq/j2+06FUV3rdmkDcSoHjA7Mbob5AhElDYWobNhbfAzYbbNTTEx7tfcA97uAdZ3LuYSrJ86xK/z/E+xjoC/JlGGHmQ763EYXUtsc+DbMq7ryKiLj6vh0de0Ls/FRuH6clxGIuEIRjwgw+FABsTMR/rgT+n/bw7mwlYuvFmZV67h0ekSY+yAoz+jI7NQGTmGKTT27Bx7xqs37sJG1knrCdxrPbGpl1h1i7lAlvnKBLQGiISwKaWdNdO8khAOS1nJCDJ+KM/+qNfVV8OJCQCdAQDgamPfuBdn1Jf2sPQSG0RkGMCYEBFgAi1omG0lViB1TtXuFcRjSRtmB03XaV9H6ZcsD2tiXQhEgEGIiCLv7sTqUi1RYAYg53NjZpCsB8Q6UJoION9jR5kNJDxEe9hkS6Eh2yhd38jtQnriSQz+BOwwox9TBkRqTzoUW7G2Ee0aVZjkRBMxMYqaVbhULCSZmVVJEZ8XowG4Dji5+xGepRVNEqzKhRLlbQpGGEGT4353i16RgQMB8AxIlkqmdijHCQCmkVGEYD1ANeuXbv0/PPP/6761kBC6UA6jh05/J7f+sV/ckF9aQ8jo+AKz6kvqimxyVLeXlVf2YNhOlAHfm/ddCDefk3pwVwLNPpr9e02my5kmA7Uic/OkDYdqFNFyXXSgeqlZGFHFkX0Gc+ZXgaNyvRWCu5cvgjFTJK/5546A6Vye0uzSOXB4mks0JUpzapX2qvi2IgiahRkRl3N9CgF1Gw+MZzR4zXne7fomXQg3/i+NtbdhtKBWqfb6UC4HuI6+Eu//CtPv/766xfW1tZuJRKJW9ksG9QBhyIBOqKRyPxgRgLs/711IwHFHFtkFSOoFphG0W66kHEkoAOfnSFtJKBjRcmNIwFG4DhivrVSgKmMUy8WnKIhubub2+fdT27toCOvEgkD7zg4HE7luQlwg8NUHm2hrvDuh4IB9j0v9+7jz8mAKLCdPHSSCzxRYIvCoJDL8jndyXQwI+/+4vIqT7MSRdTYpcdUmpWmgNrhHaNIQJNUIgFun7yRAAZFApqjU5EAEenE9RCbFeDX7NQEWw/HeEOJD//wBx9bW1/PLi+vLN+9e/dV9Z8NNBQJ0EGRABtpMxJgRK3DyBDhcVxdvA2OsmLkUiSg9yIBRuwVYE7zlBOZ0HqQzfZ2V7yMSutGZ+x0zfaDbpcDRkdD0h6y1Q5GB3ThGFtZP4Bjw7366piY8e43Q89EApjIdE2cUd+VB4oEtEahwITT2tv8+aBEAkS0ExsXOJ0OnuJo9gwSsUb/3L/410//zjPP/GP17YGERIAOEgE2YoMI0GImXajgHoURf7iqz3xi8SrE715Rf9I+SARYJwK0NHM6sZWIjQQftZ15WuntrhcBye0cJNMZuLWcgOX1TQgHvHBqbhLmfNvg9wx15fN2imIhx8U7ztlWD+gSY8M78miMfrsLc0kEtAeJgNbomXSgFv62QqHAa5XQuBf7tneE7d3D5qJsOO+1a7S2Qxd1ByIRsA8SATZiswgQ7HkRzR3ShGkm+GU3JALsEQFa7MovF0ZlM/nhZsjs5hVjf3EZNtZWYHkzDyvpEmRzxulZIa8LHj0cgPMHfOBxO237vLKwVz+gdFJSoj/VnxfHBsdEK8SsGJtWIBHQHjKLAJkPWpM5ElB1mnGDv03r3cdoJ54DIwRAI7RrtNkI7NUbN2/93b/zt0kEEHt4PJ7QX/3IBz/zgSce+tjcwdi8+ra1kAjYh5UiQEu9dCEEFw4UABQJ6A8RIMDOO8JAbqY/vdhI0JDc3s5Anj2mmXFphUG5tL7JjPs83Fre4N59NP7xq5bB34i56DA8wMTA+YN+/nnxPsf7vV/78afWl2H59hXIbCodw/yzD0CGXbtuGPu1IBHQHiQCWqNczEEJz3thONkeK9N9h1GKkZ0FXtOnFQGiC5k2Ku90OGCEvd8IvXe/VeFPIoBEQF0wKvDYw+c+9vc/8cGfUd+yhi6LAKPf368iQAsahYHJo5DdLXDjThsWxN+PRWmNipPbwageQUAiwFoRoAUPuEIPsj59BjcROzzIFe/+Mhb9ZmA5scm+trgA2EO79OqLTZtfllEMnJz0wKkpb9ORMBnBFqlciOnGpri7LbWRTSKgPXJr18BV3CER0CQyiwC3ewhOHTsMma0kpLM58PoCpmuZhFOmGe9+M7z66qsXf/qnf/pB9eVAQiJAB0YCxsbG5h968PxThw4enH/kkYfOP/HE4+fdxZ0whqQxR7VtSATsoxMiAKlniAocuylw5lKQ27G2exiJgO6IAC2hiTko+yct2UiEsa9495XcfXyNBr+91BYQIe8QTxVCQTAVGuaRARRA+CUjzW7yshvZJALaQ+ZIQOXaMUgEGIMGf247yfbzbfD7AzB16Ch4vebTeexwytSDRACJgH2g9/+//dq/uWDkOUT0Pa5bwu0HV/SI+qIaEgH2YmSIOssFmJya4r3UtQVHYqyxW0krpxPrIRHQfRFQ7x6sR8W7v5RgjzuKl7+NVJ5OMDnq5hGCxw4rrRa7XT9Qy7vfzCZPIqA9KBLQOjJfu06LAH3uvrZTWTGf4zU82OmrqrD/oLLuCuGPawAa/Z0q2jeCRACJgH3MTE898Pv/4V9dVF/W3TjFjY5GYlPUEwHba1BON/n/axYSAeorBfHZcaxR/NXqLrS6eAs243fVd5qHRID8IkAY+4rBv66m82zx15bRhVVXSRfyVtKF8D63q72qnSF8EgHtIX0kYP0KX4tIBDSHnSIADX408LW5+2ZbcWa2t+DOtTchk1jkr32zZyBfHuqKwW8EiQCgw8L0BIOBqY//yHt+Un3Ji1mSqwvc4Efcw0ztqnm24kh8PKAKC9WyGbYBFHb59+riGganN6K+qKac3wFgBrGtGBxW1pkDsxzg9I+rz3WwRczOfHwBGqH6w0rEZ290GFlkYrZyGBmyu9PcONU7xIUOC6t9WJil1DuwjvFv/tPvwQvfvwxXFjdhIZ6CtdS2fN7+FkTEymYe3lzKwAtXN2E7swvZrXUoJu9ycYsRTf9oVP3J5kDj3ugAtPWNJD9kK5PN8rqbhodsmUXyw7iq/j7/BLMX5dpii7kdcOBcc+BaPKG+Kw/lzDq/hjIeFlY5aE3Ga1cuQnlHSVV2sPWtlXkhDtpCzz4eNBhjXzOTscpBW9ilB4t5sWMP/qwWFP5GB+6tJ7eg4BgBcZBZ0R1gv0ieObuysrL85S9/+T+rLwcSEgE69CJAgBvlVmIF4gvXDTdOfD5x4Aj3ruEE2dlkRl0tBlUEOFxSiwCBGOvVO1f4WKPA055QK8QfRg6QQm7XVGoYiQD5RcAXn7sAO+kkbKdW2Jgq/f6H3PadcNkNFlM5eHVhBy4ubEMus8M26DVILl7m6W+I0WnMYpNPbW5BMpVmxv4G3FuJc2M/mdriKT74fVOn6rZDL4kA37h0IgCKWXkNWQaJgBZpUgQIgx8P2BqLhGCCGfrilPFoOMRPGce0WL2xj2jXgnVm7K/G1yvCP7WZ5sIfv19ZByQ+zZhEAImAfdQSAVowPxyNRGwtiRsnGonimHv3sIcfiV/XY0wiYD8SiQAtONYYCTIaa4wI4ViL1oz4vXrij0SA/CLgz77xMhQKRf68kGeb2U4KMukElEslbtC5ZDM622A3X4br8V349s003FrfhY2NDQjk4/xeRwGUKbo7491vBhIBbdEzkYDhYM3UyW4hswhwuZxQSivpvFoRIIx9/H44GIDYODP0o2GYnZpgxn8YggE/T/Wp593XRvqW42uwwoz+RDLF1wI8GLGR8C+x70NFoLA5IdGcXVxcXv7KV/6URACxhxkRoKVeConwGI/GDjJxMMy9xeg11osAPBHP5/Xw/rhuRx5y23WiCFZgJAKYwWO7+OhBEaClUbpQI/FHIqC3RICgXC5BfhfTxRJcFODr4RFFCPYymJeLa8/ubhZWNtLw+u0ErG1l4dyhMBezGedoZ7z7zSC5CEDx5Mgq67eMIqDE5lhviIAAiYAmGHK74czDT0CZrW++QAjC4RBMTYxXvPtjzPBnto2SzsN+Vo9RpG95dX1fpK+VXH50oOyJALnm7LVrVy49//zzv6u+HEhIBOhoVgQItCkkmXSSG4cirI4CAItNx2eOKB7jYQ/4ghEIhwIQDQXh4Ow0n6iYd1fcTfP/j60YioAORCB6XAQI9OlCiLbAsla6kFYEaMOxeB9kMf0kb6KepE1IBDQvArSU2HXKZdM9ly6E52LgRp/NZmBnZ5t/bW+nIZPB4t0c+8y4wRdhNuKFB+YUB4UzMMkfpUJyEeDAtAyJIwF8ncN1nkRA08gkArAAnRkL4HGVYPbAQe7lH2Z2RjA8BsHRUZ7OY+TdRzpdx8PnhKQi4Pbt27dIBBBVtCoCtKAHWKSQoKGAgkCkkHCPMU7UgJ9PVKy2107Unc0EiQAbsUIEaMF0IewOZSZdyOMPQjQahUhoFA7MTFbCsXgfpOIL/P9lNyQC2hMBWkS6EAoCPBXTwYyDbh/OpfXuZ9lmjsZ+Or3JjX0UAPl8jouBWh69A1EfiYA2kD0SUFnnSQQ0TTdEgN5ZJIp1g54hdq02YHP5BuwklsClmhDD3r0IpZF3vyt1PCQCpGa/TCQsBQuJr138Blx+5eu857wenKiozNcSbIIux2EjyRaZQYQJhF4HU4VwrN96+St8rEWhJYKRoFhsAkLBADf8if5iZ2sNNlZusHF/G7Y349yrbidoxKN3H7346NFPJjcgkViDtbVV2NhYZ4b/Fjf80eiXJpWHIHqYUonNI5xKNk0nTNXBNpwT41E4dGAajh0+BKeOzcPxI3MwMxWD8WiEd+jB1pyBSAwO3fcInH/vx3kKamp9he09L8Ll7zwHt+7chas3bsOla7fg2s07sLSyxg1/NPpbSech+hsSAR0C88kXr70GFy98Hm5eugi3797jE/WtKzeqJmoWRngff6J3QY8+jvVbL/8ZX5hFDYEAD03CsCsWWIn7AIUg0fuUimxsN5YgfvdNNu7XuSBoF2Hwo1d/a2uTG/vr63Fu7CeTCS4CcrldHgEgCMIenE5rDvhA7z4a/BgJnp4ch8OHZuH0iSPc2D8yd4C35ERnkTh8S4veaXjj9gIsbRZhd1iJbqKdsbm5yQt2yeAnzEAioAugat9Mb/OJqgdzxvEgL9fkWXCMHuAHi1mOzV7KnsPGKASemHjn0ne5+Lty5TK8efk6XL5+C27eWYTVtUTlPij7JnmolOgfsJgYBcHK7dcgtXYXsjsp9TvGGHn319bi+7z7aOyTd58gOguPBDQJNhEw693Xgwa/3llE3n3CakgE6MhkOpCYXq5vhIuw4NTBo3D43Lvg2EM/CLEDR9XvEr1KlhlwtRZsPOERT8isiD+KBvUV2e0NSMVv83ShdHKFp4qZ8e7bnVZEWIvL0SPirA/SLzuNE9jajcEAgzoP4d0Ph4JV3v1zp0+a9u6nttLcu48GPzqLMEtA7ywig99aiuRMIREgG6XMBozk4jDmd1YWjsBoCGaPPQDnn/pxOHTqYX4gGdFfuN1DFY/R/PHTcPLBd8PJd3yAiz/RcpTofTBdCAuJN9YWybtPED1E7MBxZf8dm6zp3T84M9XQuy/See7eW67y7t9ZWOLefTT4ydgnOgWJAAnBAtObb7xsWGAanZqDw2ceh7NP/igvCPIGQup3iF4mG78OQ5ll8LtLFY+R1x/k4u/0Yx+CY+ffTdEggtAiW/tNoq/Ajl/YinM04OfefWzhHZ2ah8P3P2rau69N57l07WZVDSB26Bk4775kc3Z7a8v+zA/JIREgMfoC09TaPfU7SvtJFAEnH/lB9vU+MhD7gEbdhSgaRAw6RfKQ9jXFFvLurUBbrHtgehIOH5yCMU8BSomrsHH9W7Czeh1y6XX1p6sxKtYV3n1tOg/23h9EikWaszJDrhQdXo8n/MmP/uDPqC/toU6v8nIhq/Qi1oGCoNbZA+5hT8PTaqvQnViMdP2cAE3/bzsxPCegE5+dUffE4GyKrZZKhyBxGBm2lzVzGFk2k4WyyT7//PPr/gY6J2CPb3zn+3xDtx32dzhcI+oLeZD9nABMp5K5D79y3kkvnBOAa3FMfVcidth6Vy7Zdk6A6LuPp/PjeS14ku5UbJx7+sW5LejZHx4eYXvqBNtTT/M9FQ8Axb0XO72hUbudd3TkoC3TaM/PYHusTPedo5SX9m+7cuXKpW9+85t/oL4cSCgS0IOIsweEx1iLSBc6/dgHeXTA6faq35GABgXRxH603YXuXHqlIgoQFIEYHTj3rh+mdCFiIHAxI44gzGDUilPk7mvTeYaZKNCj9e5nwQ/l4CEYCh3gzrjl25elK9alCBnRKrSi9jAiXUgYiNp0ITIQjcGWbb1KX6cLUbcSwgRk7BBGiI562mLdY/MHTbXiNDq3xagVJwqDnoDWUqIJSAT0CaKY+PWX/piHLTF8KdAbiIFQhC+Y4dEAz3/EBXMyFlV/mrANi9o96mtF6kWDItNH5IoGEQTRNbqVc980DmPTpJmDtjDlR4tR7n6tc1t6rVi3Z1rTEtJBIqDPwHxyFAGXX3mefX3d0EA8duadfME8ODvNOx7wHMgR41xtQm4wXUgbDdKnC82dPF8VDfKMjFS6XaDH7OTReT7+BEH0Py6LTr21C3RWiSgm/qm1WnF246CtnhFQBNEEJAL6GDxCvFa6kBZcMItUI97zmEkXOnHqNMwdnOEbqMiHdQ3tz4klCBkhj2d7yGjIar370ckDcPjME/DAI0/A/aeON33QlvDu23HQluwCimiegWrPWgMSAToy2Q6cGNwFqs4eWLxROZlQ9C5e3sgop9UGpgHcStchojdplC6kBfNhwWncschqerkegyCI9kGDX3j3o4EhKK5fgdLaJfCVkjDqYYa2gVdfoE3nqXXQVrPe/WagSED/kU5r8qYHFBIB3cCi3PBW4AbizUuVkwn1vYuxhad7/Bj4Z89BdPqw+i7Rq+jThdbW1vflw2bcY+CMHAZHndaZBEEQZhHefZ93pCp3//6TRyve/dmDh+H8kx+G2aP386glOizeevlPIb5wlZ+kLdtBWxSFao2qYn4qWpYOEgGS4ahREGU3ztIu98yIhfr48WNw6OSDnes2I1u/7z4Eo0H3Fu8YesywJ7czOAPu6QfAN3GUDiMjiD7EDkNWm84jGk2I3P2j84ca5u57w9MQnLkPxo49DrndLHdaXL/0urwHbdFeRfQRJAIITmF3B+LXvw+Xv/O1mt1mzj75o/xAMm8gpH6H6AeGijuVImEUgCdOP1DpLkTjTRAEIox9PGxrLDzK14yj8wcUp5FarCsaTRgZ/JjKoy/WrfLub22Tp7hFikV5oxQUQZEbEgFEFfXOHnANDXOj8OQjP0hnD/QRu6lluPndr8LyjVf3dRei8SaIFulhg1br3cd0Hq13/8TReZiZnuTFuj7v/vbD2tx9beohGvv6Yl3CGlwuKlomWoNEAFET7dkDi9derXv2AKWP9D5mugvReBNE74JRPW1kr1AocGNf34pT693HdJ5a3n2zB231TRcWdGpL6NjWRgIclK5ENAGJAKIhePZAfOF63bMHRPoIeouHPT71O0Qv0sxhZJQuRBC9AXr3sQXnyUfeD8fOPc6Ldc+dPsGNfX0rTj21vPv9cNBWU0jqcHc5+viaE7ZCIoBoinpnD2D6CHqLTz/2IZ4+4o9Mqd8hehV9dyH9eFO6EEHIhzhoq5RegWLyFoTcu3B8fpZ79RGM7HXyoC2zUBtOopOU6XYjEUC0jvbsATylWJ8udPyBJyrpI4HwuPodBbd7qCoEPce+ugaFT01RddYEpQsRRNfR5+5XWnGqB23dd/ZBmJqehUxyGd761p/AtYsvsHl8i/9b4d3fSG7aftBWX0Hp933D9jadE0AigGgbTB9BEYDpQrXSR46d/wE4/egHKpvUqWOHG4agCTmxIl1Ib7yMsnuAIHodOz3ZOGf0ufuiWFfk7uu9+0q07jQce/C9cOjMk9zov3Ppu3DxpT+pePcXllakyd2ntJb+g+oV5IZEgI5sNptSnw4UVp1PoE8f0XebqRWCJnqTZtKFZmYP1jReSAQS/YAL83DaRAjkIFsrax20JRwn+rVUePeNDtpajG9CybVXr0XefaITUOciuSER0A3K3TsxuJPou80UC7maBWbolSJ6m0bpQrHJ6ZrGC0H0A81GAup59+eZ8d/ooC3tWqrN3Zf2oK0epurkW8I8pcGwd3oVEgGE7Yj0kddf+lLNAjOHaxic0WPg8I2p/8omaEGynUbpQkbGCz4nuo8FjuyBxjXkVp9VI7z7owE/9+7PTsVMe/cRvXdff9AWrqV9lbtPaSME0RFIBMhGny9+9TYph9sLzuAMuCbPgmP0AAwHoup3iF5Fmy50/erlSmrCPuNlOGS/ACQaQs1Z2gPrX84++RGYPXYOxsfG4MD0ZJV3f+7gDPfuRyNhU959OmhLHion39KpxkQfQSJgEJHQG15mf5O2w8WZBx6G0488NTC96K2qyZCZ9FaqZmoCjwRpBCCMjKrfIQg5wTWrnM9AOZeGEcgqXc5mp/nJ6rEDx3m9SyQ8WtO7P3AHbRGEZJTI60EigJCEchFWL30DdlavQzGTrGya1It+MBDpEuFQEGbnj8Oxc0/A0YffPxACUCYoHcgYcX8KR8Wh2SnehvPAxCgEXRnYWbkCi29+A1Krt6pqYZBa3v1uHLRFee0EQWghEUDIgRpiFcWlr7/0x4ZnD2h70XuClD7SLxQ2l2AkF4fR4VKlGDIYHK0IwJOPvI8EYAcgxxhwY19frIu5+9puVqHRIHdURKfm4fAZPA/l4+z+PMbWr9u8MB778d+6c1c6776LiRmi/6gUpA9ARNlK6JwAEgGEpBQL+YZnD5x6+D08XQiNw7JjSP0O0avU6y7kDYTpMDLCUvTefdGKE439RmeYCO++9qCt1W0n7LrC/PtYC7O5Jd9BWxQJ6E+cdL6CadbX15Ovvvrqxd/4jd94+o033rigvj2wUPDXgAv/89fs9Ycxte6auF99UQ3ml5Y2bqqvbMLpBlfslPpCoZxNQSl1R31lH5jzbQTm15bib6mvahOdOsQMwBn+pQfPJEDjMbW2pL6zH0dgGpz+6tOLS5kNKG8uqK/swxk6BA6PcWpLKXWXjYH9Tgln5DA4hqsP5iombgDkq1MY7ABz/Z3eiPqqmlJ6Bcrbq+qrPfCkaRxr9LLqwZaz8YXr/GyCTNrk8R5DHnCNHVdf7OfnfvnXYZ0Zdrbj8rBxkK/u4fHjY/A33n2YP681V7uJsj6y+5XhHD/Fa0nMgGlOXq+Xe/g9zKgfdrvZ15Bhrr4eNPhz+QJs7+xwwz/LvvC1kXGvrKO3+XNn7H7pDkfKby6BMxNX58EJ9V15KK6+gZuBulbI1RiitHUPyjtrAG4/uKJyRSVLmQSUU2wPQ9ti8oz6rhzwOZFkc6ILfxsKfZznfp8P0umt5C/9ytNPf+ELX3x6UM+DMkKuFUoSPvrBp37G6xn2qC+tx+FghuiE+kJHMWe/Mehw7TOEobAL5V3754UzMKk+01EuswV272CxWqCxl1xd4GF3xD08wgvxEKwfiEwc5CkkGBlwQIm3q9TiGA6yr70Dc5ByIQuw2wHDb4T9brdXfVFNGX8//h0242BGuN5wKjMRBKW8+so+HCOjtT9/jokQAyGC47eVWOFRIREZ8PiC/NHJDCxMERufOcIjA7jg72w2aDXqHAJnnS5Ez3/rFW7o2Q77Oxwu+Q5Im4364IE5RajVnKvdhK+Pyhg7fOP7jGy8B0aG3TxdJxwKQGwsAjOTMZicGOdFuphmht5/9xC7D3SpMWjs7+bysLubg43UJqwnkrAcX+OFu4lkihfxome/wH6uzNYrQzTrqIOt8bIV/DtyW2yesTWxwTzoFoojoFx3regWZXHtsImBZAKlXMgoexjaFoEatkWXKOay4MA5YfPfhvN6hH1FQqMwFg3DVGycR/gw0hcM+Nl7Ec9HPvzDT/3ID33ok7v5XHg9kUhubW2tqP98YCERYMAn/soP/TMSAfbQrggQYLoQGofoCcYIAPbnFsYhEgyP8ZQhjBwgwjjUiwA0BBzFXSh1wDFQ1wgmEdAwGlFPALrZdB2NTnEBOOxRxnd3J80fqyARUJdDYz44J7EICARDMDk1xZ8XnT7w+ZnwVzf92FgUJmNRGGeGP276Pq8Xhpkg0Bv7iDD4U5tbkEylYXmVGftrCZ6zn0xt8bx9/H7TqTySi4CKISupCCgwmwyjNiQCmkNmEQAFds0s/NtqCX2c91qhX6sF72g4FH7Xu5546pOf/MRPXr92PXn9xo1vq98eSEgEGEAiwD6sEgFa0FuMxqHwFqMgwKgAgkai1jh0sM0vHB2v8hQMATMG6qQQWQWJgPZEgEAvAPG1f3RvU8b6AYwIYa0IRgvw+4WcatjXMH7ExvLVl7490CLgoIQiAFMFvR4PBAI+nqMfHZ/k4zsRU1pw1vPuIzieWu9+fD0BS8zoF979TDZb37vfDCQC2qKYXiUR0AIyi4B2/jaczz6vpyWhr5/3RlG9V1555eVLly69oP6TgYREgAGZfNnj9XnDU+NhxeVkNTKKgFLB/t/LsEMEaEFvMRaYCm+x3jhEAaD3FOC/IRHQOyJAS9PpQuktGArE9nmSpifG+cbyP7/yPKR32KZlN5KKgG6nAwkxhmMTCvrBlU/CzsplKG2vQtDv5UW6QuDr0Xv34+sbcG8lvs+7jwa/bZAIaI9tJTuDREBz9LoIEPMeDf5oJLSXxhcbM53G12jeG0X1/uIvvnXh8uXBFgFUGFyHmempB9735KOf+vuf+ODPqG9ZRs0C2W4VBnfi9zKcsdOGxXJmC4NboVYxMXoKcAHZiC/B+q1X1Xfto25hbKcKgw2Kk2UuDG4FjPhgITEa/rUMxlp8/P/7T2E5vq6+spEBLwzGjRwL9rBA18+Mezd7DPi8NQt1E8u3eAE4inU8NwJT/byRWb7BK4W6+ZrFup1E9sLgSnGrrIXBK6/xRxkLg/PJBXBmE2yBocLgZhhxlcC9uw6p9RX+t4m5j8W6w8PqI3tttkgf922r5v2///e/9JkvfOHZn1dfDiRyrVCS4PF4QkePHHnsySff9aEHH37HqcD4bPb4yft4VMAwz7gFanrZuhUJ6MTvZTj8MWPvmEWRACNELjl2Dio6vRDf2KryFGQLZWU8hIe8aE86iBSRACYAHMwA0NLLkQAjGqUL6RGepJ1MFj7/Zxf4o+3Ing7E5mjNaGWTaL37AWbwz0xNVEL6eDgchvTRy6f38CFibHIlF7t/IlBm1yyzcY+PbzI3BDvZXMW7b0k6T7tQJKAtyhJHAkrZTXCgV5siAaZxM+M+HI7AgcMnITp5CCKRCIxFQjARG6uk89Tz7uNanNhI8a/F5VV+sJ4+qtfOvP/a17727I0BrwmgSIABX/79z20cP/1Q2KgtIaYcoDGJKSdoXLRKzUhAPgOlRHVPfMsZsEiAFqMWoVpw0XI7y+DOpyC9scLTTayCIgGdiQTUgkeEYgdh2B9mm4hxu8dBbxH66LEx+Fs/cJgNVu02xvUQaXbaVpxGffaNMOPlK2S3wJFS1qlmWoR2ip6JBEjY5hKRORLA12h0mDCB4orMq+/KQSG9Do70IltXcG+/T323cwjvvhPKkI7f5qIkOjbJDP8DEIjE1J8yBuc9znNck3O5AmR3d/k60Imo3s///M//zHPPPfer6suBhCIBBnz8R973zwo7Gx6jPGNRaDp56CRPO0BaiQ7UjARgbn4mob6wj31evj6OBGgxahHqLO1CxD8Mhw8f5qeERiMRnkqCIhD71GOhccPWkyagSEBnIgG14BGhRBySu0M12z3+4OPvgLGwIpKwW4xtSBoJqHQHqle3xNB69+t16EAvnx7h5Uund/hhWyKH14yXz8Hu03otQrtOr0QCJPRmIyIS4PRE9q1T3aayRg+NsGunHAonC6VcRmn/yuaDk+2xdqKd+8KrLyJ70UgYpg7Mc0GQSW/A0o03K/V5WKNVdri4ga8t0hdduUSRfp4Jgk5F9V544YWvDHokgESAAdruQNpUkjJTpmgQYjtCpG4XkgZ0VQQYbfADLAJKu9uwvXyFjfNd/lp/9oC2uxCOcavRARIB3RUBHBNpEAenJ+EdZ++DJx46D5s7u7CaSEGJzUtLkVQEnJibgXfcdxByu5nKGoHGvLb/dqutONc3UrAaX69s+pvp7eY3fb5OkQholV4RAQ5PmERAM+DamUuzdcVaEaCf+/re+xjlM0rnGfYFwRuegkBsDtJbzIZaug7rKwuQ2HVbms7TLiQCSAQYYtQiFAUAHgW/fu/mvjxjbRcSs55jEgE6uigCxMaNY9qo9aT27AGMAOF9YRYSAfKLgBdeeQO+9eZdeOm1G/DN12/C+nYJfMExGPGxv53dt/mcRelhEoqAgM8DD54+AR/6oQ+we/wgjI6O1vTu6zf9ejm8pg/aMkExvwuOXWWdcvgnpTOytSLAGZzmjzJBIqB1ZBYBZRzTNkSA2cherd779YR+kc0JXq9gsUCxAhIBJAIMaXROgL4tobYvvd5zjH1qC7n9LQdJBOjolAhw+5gICKivVDQbt6DeGGtTwpzMqEV7yExKmLQiAH+3TcXQWnpBBPzm//hDuHz9GqQz7J5gyyMKfMTlcsOIN8hE/iS/FxC+ubVKl0UAfq4h9jk+9MAkPHX/BPy19z0E/5+/9sPw3scf4t/He7yVg7ZSm2nu3cfv2+Hhq0oHktDTXiUCaq3xXYREQOv0iwjAOW1V7339mRtGQr+4u9OxVKVmIRFAIsCQH3nvkz8ZDvlNzfJGfenHZ+YrnuPNjXU2sZRabKMNAr3KnpEhyG/ZbAwPdCTAb0oEaNGPsccX4EYU4h9VUsJQ9KFxWMhla6aESSsC8LRkEgEcPDF4J5Nhwi8NO1tr/LFUKsLwyF6rUfewFzxsefCNjoOLbZQltuk1nS7UIRHgYHN9aGiIbeoj4PF4wcfu3UAgCH5/ALxss7+3VYawfwR8zhy4tpf2RcAabfqWHrRlgupIAImAZiER0DoyiwC3ywHFnUSVoS28+6L3Pp67cXBmytLe+zj3G2JTqpIVkAggEWDIj33ovT9jVgQIRCpJvWLimSOneXQAwUVEH3qbZl8+JgIw5chWJBQB+J7d3WGQVkSAQIzx6p0r+8YYQcOp6mAqXUoYiYDeEAFo+ApKRawBScN2aoWNf46/N+RWrh/es25PoLV0IRtEABr8bvcwN+59Ph/78nNjHx9HRjz8exjOx5/TspjMwffvpOG7tzZhpLQD3mIKlm9fhvVdd2ubvo2U2BiQCGgdEgGto0RM2RrN5q1sIiAyFoPjZx/h9kVgNAxTE+P72vB6mRgw8u6jwY9pfHYV67abqmQnFy5c+MrNmzdJBBDVtCICtIhiYvQco+GIHmJ9MbEorNGH3tCTPIgiAJFdBGgRY4yiD41DjAyIdCEca21KGILpQlojWF9wld/egFyGbdA2QyKgORGgpZDPsnFMsbFX0vUwRajldKE2RIDw7mM6j9frAz/7CgRHuYcfBcDw8DD/vpHBj+CmXygUIJvNwM7ONv/a3k7DxmYagp4hOH0ghL8EHD65NmyE0oHao5BJgaMoZ697pCciAV0WAeViHgcSnPk0hPweOHhojnv50YbAg/Qa9d7XRvbs6L2vR2YR8OUvf/l/LCws2H9SqMSQCDCgXREgQAFQq5hYizb0tpliRsbGkvodmyARoL5SaUEEaEGPP6YL4YmmmNKlTwlD0YcpYcNMHMRiMcOCq/TGMhcWdkMioHURICiXS6bThfBed7CfLxZ16UImRYAw+NGTzw1+f6Di3cf0Hu7dZ983MvaxzzYa+7u7WWbwZ7mxn05v8kcUAPl8jq892n7c8zF/RQTsWyMkQPZ0oGIuC46cvCLAwQxHWSMBxSK7D3eUPUD6dCD299kNGvGYzhMI+PheUckYmJoE/wib80wIrN+9BMnlm2xeqI4or7IOaW0Kkc6zvLq+L7LXiTQ+mUUAHhZGIoDYh1UiQIu+0DRbGmJKPGUYeivn2UJjZ7cWEgHqK5U2RYAAawHqpYT5A8GaBVcoIEgE9IYI0NIoXWjYEwCvUbqQTgQIY9/lGqqk86BnX/Hu+5gIGGEGv7umdx8N+Xw+v8+7n8ngATw5JgbyXKw0QnYRIHs6kIPNI4oEtAbWy/VMTYDFIkAY/Ea990NBJvp1GQNo7I+OTcHU4dNsKXFD/N4tWF+8Bon4EiR3XZam87QLiQC5kWsFHRDQa7wST/D2WVhNr/XE4QmYrugRcI6fBAczVgroHekEDtKDVoJjfPONl+Gtl7/CRUEmrRgu6KFBI3MtsQH3luNw4/YCvHn5Oj80iehtstsbkIrfhvjC27C9iZE/RRQgGB0IRmdgcu4c27wPwIjHz417NPKj4QiMjcUgGh2HSCTKPf3o+TdqxyeM/UwmA1tbm7CxkYB4fAXW1lYhmUxwwz/HxChGALq16duJCzq0HrZIsST3NXe55N3yeSRAYoqafbodMPKLJ2rjwZSHDkzDyaPzcP/Jo3D8yBzMTMW41x/77+vnv9g7Ulvpqr1jebMIpWHlgEPuYNTZFN1G9jkx6JAIkBSX2wO+8XmYuf89MHXkHC82JXoPjAChCLj8yvNw5dJbcOnaLbh28w4sraxxTw2GZXHBdgQmFdFX3u/lJXoLjA6kN5ZgbfESE4PXuSDQ4g1EITw+C8HgKE/rGRoeMYwO4X2BXnz06m9upiCRYPfMepwZ/utMAKS4lx9TevrR2CfsQWZD2+nor/sY5zQa/Fj/hwdsHT40C6dPHOHG/pG5A7xLD3r50cOvR+8sunrjdmXvuLOwVLV38J8XhraEzjyX2hGRHI1yQiJAMsrFHIRcGTg+N1XxDEwdOgaHzzwOZ5/8UV5sisU/RO+R2cH8ceNNGCNAzuAMjEydAWfkMMDIqPodopfJ725zQbBy+zVIrd2F7M7+lC+8J9C7j7n76N1PJjeqvPvp9BZP8+lX7z7ROVx9Zmh3EiFSHAbGLBr8Wu/+scOH4NSx+coePh6N8Povo+geGvuYtrMSX4fbd+9xg/+tKzeqnEWNvPsyjytFAuSGRICEJO5dg7de/jO4dvFF3mFIgHnlKAJOPvKDcOz8uyF24Kj6nR6i3N0Wg7KCfZ7FJjJ35Dicfvg9cP6pH4fZY+f4KdRE76NNF0pvojd/s8q7n0ol1Rz+XTL2exSnQ15PO9Ee6Ig7dOphGI2Mw2jAz737s8zAR+8+pvNovfv10nn0qaBo7N+8s8i79IgU4X6ChKfckAgwYGN72/4KWRNgZ6E7l74LFy98nj2+wjsMCQLhGDMQH+CGIi5MTRmKZdqoZGM3uQiljRvgcexWhYhjB44xwfcDcPqxD/am6CP2gelC20wEoMFP3n2CMEBtvdtNyqUilPOZSjqPe8gF0al5OHzyHMwdnOHe/Sj7npF3X2vwC+9+rVRQonvQ2ksioGfAQtNrF7/BC03jC9fUdxWiU3NkKPYCDbqzoOjDYmIUfYvXXq0SfXgGgVb0UY0IQRCENbjdQ1XpPIcPTkFoKAulxFVYv/Yt2E3cgdJuWv3pavTpPJeu3axK5zFqAELIwc7OjhQO325CIqDHwELTxWuvVaID2FpSQIZii0jgddITX7heV/RRjQhBEERziGJdPEVXW6x76tjhqnQe7No1d/I820s/zlMysevOte+/CG99609heeFm3XQebMdJEL0CiYAeRtuGEg1F0ZseEYbiiXf8EBmKPUw90aetETn5yPvkjwKZ6FNPEEQHkNDxYTXa7jwHpierinUPzkzVLdbFdB7h3d/KD0PBNwsuX5ivxytMBFA6D9EvkAjoA4ShKIqJtYaizx+oWUysXSTxcBJCboToe/2lP646ewDBk4kpCkQQxCBiVe99TOdB7z6m8+iLda06J4AgZIJEQJ9RL69cW0ysXyRDQeW4cUJ+ioV85ewBFH210oVEjciwx6d+R2KohzRBEA2wu/c+Gvzk3beJAYg+9SIkArpFB1plirzyy698fZ+haLRIdh0H3Y7NgqKvUY3I6cc+VIkCOV2uff2sA+w1QRBEN3ENudkadazitGin934ul9/Xe1/fnYeKdTuDzAfUUXMgEgHyYYNHNJNO7TMU9R0Nbi9vgGP0AB1S1cPUqxERUaAz5x406GdNywBBEN1BePdHg8Jp8cNw//33N9V7fyO5WVWse/n6rX3pPP1s8FcMbQm97TKfE+CgA/pJBAwawlA06mjg9EbAFZ4D5/hJcPgnoABD6r/qIwbgsDJ9jYj2wDk9uIlSKg5BEJ1Am84THGHrT+I6OJLXITycg5mJqPpTStMDPdp0nrv3lqu8+wtLK7YX6/L/r6RGIx3I1RrUIpREAKGCB6NUTqydm4MTZ98Bjzz10d49mZjg6A+cSyUT+46nTzsjUArMDkYUiDoUEURH0Pfe16fzzPOT0d8N0ckD3FGBDQ+uXXzBMFIt1iqRzpNMbXXcu+8EMrSJ/oNEgAFs8Rk8dVguwubNv4RCagGGHQUeekXaOpmYkAqMAt2+ecPweHq3P8qjQO7pB8A3Pg/e4J5XjiCIJhmg+ibh3Q/6fXV77xul87jcHghNHYWxIw+Db/q02tjiW3D18lv70nmkgQpciT6CRABRBRYTY9cZo2JiOpm4P3FDgW/ewlN34sxDcPLhp3rj7AGCIDqGNp1namKsyrs/z4x/s733jYp1s/keyNnHYAAFBIg+gkTAgILpP/UwKiYW0MnEvUu5vH+jzSYXYemtlyCxcAlymS31XTp7gCAGGTT26/Xej41F6xbrosHfqPc+dechiO5CIoBoiL7rTLGwF5rV9qSPTB9p3JOecrKlBM8eaBQFohOoCaK3MZq3Wu9+u733sTuP8O6jwU+994kK1IBCSkgEEKYRXWdef+lLhtGBuZPnKz3pR2MH1e8QvUa9KFC9E6gJgpCb6MxROPvkR2DywBFbeu9b1p2HDEaC6AgkAoiWENEB7OiAp9dm0nu11FhMfOT+d/A0ksnDZ+sWEwsvFIadjTYeortoo0A4zkZnD1C6EEHIBa6r5XwGytkUODJxCHnK3Ls/Hg3z9pvTB49S732iIxQlvkfKdFoYiYCu0SdpMZhGgsYhppFgT3p9Gsn03PGqYmIP23RE2PnQzGTFC4VhZ0JeMAqE4yzOHqiVLiTGuWFaGEEQlqBP5zk0O8XX1XPnzsGB6XHwDzMxf/t1uPydr7I5/FaVw0afztPp3vs9h+yHS1EEpSkymQydE6A+EkTbYHs3bRpJOhlXv7NXTHzixMlK2DkUGiXvfw9iZpxFWpg/MqV+Zz/CeAmHgvy0UIIg6tOo9z5fV0eDlXU1OjXPxPkTcP6pj0Ng/CDEF2/ymp9rb353X+99NPjJu9+byOxtp4PM5IZEAGELmEZy7eI3DIuJBXovFL4meot644zpQscfQANETRcKR7i38sD0ZJXxcnBmiuchE0SvUypZY/BoBXKzvfeNinUxnSeVH4GiUzmJN72ZkKv3fi8hYTSADG2iVUgESIajzw4i0RcTr6yu1iwqg+GA+q8GkC6GcR0WHGykHWdMF0rF7+311GZf0ck5mD96CmYmYxAJjYJ3hBkveK9rfoYgeh2ns3kLUZvOwwXyPBPIR5lAPswE8vQUjEciEPD59s8X9iUM/o4U6xIE0XeQCDAgtbU9eHliHTBC0Wu8srxcs6gMT6x1TZ4FR2Aaj7BV3+0AlEdpKfzUzzdfhosvfJ4Jg1er0oUEVd7KlThspDbV7xBE79IoEiCaIPB0ntlpOHxgBu4/cZQb/BWBbODdR3C+pHd2YGWNGfwL9+DS9ZuVdB4q1rWfIo6tEGAE0SeQCCCkAr1ivugMTBx9CGbvexxis9SCspeJL16Ha68q6UL3Fu9w4+XqzdvMgLkF127dgaVVNRe56AAY8qj/iuguZOW0Cka8Dp3ETlkze8W6E2o6z/Ej3Ng/cugATI4r6TyBwH5nh14g37izAG9eYfOIzRdtd558vqD+C6ITuEAVV30WrScGGxIBhDQM59bhwFig4hWLTUwrLSjf8+PKxjrW4y0oy4Nb85Db3YH48mJNb6VjOACusePgjB4Dh29MfZfoHiQEzIKnrwvvfjg0qhTjnn60so7x3vuYzmPg3UeDX+vdNxLIdqTzOCj6SRAEg0QAIQ2ZVBxuvvHNSpGplkoLykc/yKMDwyNUSNqPDPuCEJw8CtP3v4cJwPO9L/wI2+h0/ZTI3R8ZdnPvPqbzRId3oRR/EzZvfhsKyQVwFXfUn65GePdTW+kq7/5bV29Q732VYpHSmPqZfqt37BdIBBDSgV7jxeuv8Zxyo5OJKy0oH3g3GYl9giOfhpi3BKeOHq6kS8Rmj1SE39TcfeB0e9WfJgYVnpfdAbTFuiKdRxTrnjgyr7TiDAZg9sgZOP+ej/NIJR6kd+3VF+Gtl/8U4gtXK+k8Wu/+ncUlKtYlCEmgcwJIBAwuPZKakli5w4tMa51MjEYipgvNHj0Hbu+o+p069Mkhbf1GMZdl4/tmTeE3NX8fnHvih7nwozqRwcXVQvedRlT13p+drurO0yidJ5fP83Se/FAQnOF5GIkcUpwYN97Yq3ehYl1igJElwrO+vp588cUXL/zSL/3SZ37qp37qY5/4xCfOkwggEUD0CMViHpZvvw2Xv2t8MnHswDG4/53vh5MPv4+MxB5HCD+RFoYeVgEKP22dSCA0rn6HGATaiQRU9d7XFOtqo0+Neu9jFyttOs/l67eq0nlQFBCtQb3u+xNnh8dVn7Y3OxXj83wiHE6+/eabF77zne88+9prr33h3r17r2az2ZT6zwYWStIy4F3vfPCTJ+ZnT6kvbcHhCYHDpRzcoqe8vao+sw+Hb7w6R69chvLO/laOVuPwRtnndquvqinvrGGVnfqqNuhp29pY4aIADUTXkJt7ixH3sAdGo1PcczzsUeoGdjNp/og4hjz82ldRKkA5k1Bf2Idj2M8LYI0o55ihm98zdu3CMTIKDl1aTXl3E6CQVV/Zh2M4yL6MaznK+R02sHvjhKDww3HGDkPYZhTH2eMLqt8F8AbCvFYkOnWIv97dSbPbuMH943CB019bODz/rVe4sWc7ziH2p4yoL+RhPuaH0wfY/HA42HWaUN+Vh1I+C46csm87A5P80Qg0BNAIwNNzxyIhmGAG/uR4tJLG4/N6Ydjt5j+nBw3+3VweUptbsJ5MMQN/HVaYkY9efTT0M9ks78xTZmumnsp9LOn1K2eT7APusnXQu38d7DaaddjhHau5T3SLcmad/424htdax7tFYScJDhxXtr7KNq6Ve47tO1b/bdp5Hh4NQGwsAtOxcT7PMZUP57nX4+E/F5sYD//ID3/wqZ/6yX/wk088/s6PpbbSnqtXr31b/V8NLCQCDOiICPBGBlME1BM/JkWAlsx2inuOE8u3+Wv/aJQ/ImgkRiYOVozEQm4XSswIxL9Bu3j4RoZgO7GXfmIXJAKaEwFaUPgl4wuGws81NMyF3+ShkxAIj0OxkK8SflWQCKiL7CIAN3UXFNhczlREAPf6sS/ssY8bf2wsytN48Hkw4OeefffQkKHBj2O9m8txD/96IgnL8TV+8FaCGf/p7R2eylNgosDI4DeCREAbkAhomVImpYgAGwztdrFKBOD8HXI5KwY+znMh7HGe1xL2QtTvZLJ8XscTG+D2+KaefPLJDz377LPPDHo0gESAAVvbu9myw+mxUwgMrAio97lbEAEC4TUWRiIivMbCSMSUoUAwBOPjsarFY8hZhvWlm/xn7YREQOsiQEs94YfCAIUfRoJQKGD7RhQQFUgE1EVmEYCbu9frh2Mnz/II0OjoKMxMKDn7KAAwbx8FARr8erTe/eRmmhsCmNaD3v1kaosX6uL3283dJxHQBloRwK6dbN1kZBYBYKO3vV1aEQF6YT81Mc5Te3Cua+d5LYNfO8+XmajHeY6dufRRvP/+3//70yQCiH2sxtcu/8VfXvyD//HFrz+9ltrJerze8NR4eEr9tiU0NIZt7tPdbyJACxqJ6DVGIxG9wpgWhEIAGfZ49y0ehVyWREAPiQBBPeGHoDjQpgvtbG2wP2JPBOA9oA8l/9FXX+AeI9shEVAXHBuf1wO7G4tQYuuC311mRgAT71NKNzCcz/XSeXbYZi+8+/H1RCWdB7379dJ52oVEQBtoRYB+f5IAmUWAVd52O6j3txmtwUbCvtYZG+3OcxIBbK6pj4QGj8cTmjt06Pw7HnnkqQfPP3D++LHD8w+dve88dizB/GQrcEYO11xIiqtvspnTvjFcD+f4ySpjHD2mpfhb6iv7qPu545fYImtPYR0WkOIpnhgNwMUjs7vLvX/Z7C7kcruws36HiRC2yNsIerdq5TGX0iudiQCNHgAnE2JaSqm7ykJtM47AdMUA11PaXoNyekl91Toul5uPcWh8mqeD6eFdh5gQQgNy2D20b3P5+E/9U+45sh2Xh80DE92sOsxTpyfgrz52kA2WE1wTZ9R37QONADEOowE/uNm4BHzeqnFJLN/i45ZaX+Lng+D4xg4c5/M4xzZ5LMbFuZznnXq623qztB1X7uMOXb9mKSZvATDR7/BEwBli4ywR5Twbu8RV/tw5fqqms6hb5OKXwYXGLFvD69WjdIPihjqubG2XbVynxkKQSy1xT7w7fAD8zLDHFD3PyIjhGmwERmeLzEYRe7ZV8/yjH/3o/MbGhhJSHlBIBBjwDz/9yf/yD//u3/wUehGxG4ke9DDjVzqFHvvWIBGwHztFgMDhCdddJEuZDcUzjl8WQyLAfhGgxesP8UgAGo1mQKPyJ/6Xf04iwCYRIAx+NALw0cMMAS8zBMwYATg26a0U3LnyfSiqXf3c0+ela70puwjIJ26AM58mEdACxfUrPGLq8JMIaES5mIdAcJS33kWPPjpdzCCE/fbODn/M7u5yAWDXPP/IRz4yn0wmB1oE7I+lEhzMOb726jdqnl577PwPUDvKPgINFAw7xmYOw4ETD8PhB57iY1t27M8vJnoDTAurdegcjwaxzUV/oBN6k4n2saL3/sraOtxeuFcZmzvL61By7zkQZBMARJ8jzphhAo9QEPumjwl6zNmfigYgUExAKf425FcvgTObqCkAtGuwdp7joXrijA27D9XLZjvg/ZKcxi6YAeQdD5752JkTc+fxeb2840btKOtRNzd+G3PzO1sT4GALW0c80fU+t0U1AfUwahGKHqiQc1vpODAxxbsMeDxePrbTcyfBOewFPKPI7NjWgmoCrK0JaIZKnUj8HiRzLr7JiA4wmDsqOsCMhUOQLxR5bqmt9ElNgMjpDQR83OMncnonxqL7inXxZ7WgEYBFfDgGmNcrinXRKNAW62q785QLmUqUTjZvLFK5j9n4Ov37o8hdB3PuS3mqCWgBsT8p65jSmUwWOlETIOa6yN+fio2rDTbCEGXrJtbw+P0BiEzMckdpmRnvydUFWLjyfX7Ip9PtgdR2tpK/r12D9fO8U/ze7/3e/1koFDrQCUJeSAQYoBUBWrQFp3irDg2PVApOMf84rGlHyYsQ6yCbCEAGVQTg5rOzdrMytohbM7b+oNJqNDJ9hP0PmFgqFqCQb37dIBHQPREgwNMrSyPV6VBapmJj8I6z98Hj58/y15tp7Chhwx7RgyJAawR0sve+lp4RAbwAXT4RUM6wfYlEQEsMkgjAOYxGvdKdJ8TF/V5HPR//nnuI3eO6E7zFPM/s5iHvGIGyJwK7W+uwy0RAamsbdopDFYNfBkgEkAgwpJYIEIjowNri9ZrtKBtFB0gE7KecxQ2qoL6yh0aHhdU7oGpoaAhGIxMwPnMEPMExXsTYSOxpIRHQfRGgGGe1W4Ti5rWW2obr9zag5PJAaWgUdsvMsGVGcT7HDFCrkFQEvOPBB+D9734XFEoOGPYz8cuNgPZ67+u9fs323tdCIqA9SAS0jswioLiTAEcp17QIYAYwN+hdLieP3kXDo/yE3cnYmBrJ8zaM5KU205Bk4h5rqVbWNpiwT6nCflcR9lygsHvO7WP7z173NhkgEcDmmvpIaMDC4E98+Ac+pb40hbNOVxIUClhXkFpbgrzas9wZOrRvsuIkw4K57bvf54uNnTijx/YZg8WV19Vn9lG3MHj9qu3GqFFhsFKQVl33oQfrA7C7UK1CcdG9pB5UGNzZwmBDnG5wxWof//EvP/fbkCky4ReIsvm43wjJpBOQTW+wedymYJOkMNg77IJoYBieeORBmB6PwIOnDsPxuRn1u/VBI6CTRXxIiRmJ5c0F/tw1eY4/ykSlMJjfZ/ep78pDMXGdOxtkLAwusDnlSCrd96QsDI6/zQaYGbN8HZNL4OXX1YJvJp6co8bzV9gXWKuDETulMN+4/aYenOsZJt4rHfXyeT7nzcx1fs/l2NjW+du6xQc+8IEwnRNA7KNRJMCIMjPat1NrvN88epCxP704xEhEB1AkiBNNC45h8PgCPLQe1YXW43ev8v+fnTi8UbbIVhfsdD0SgF6gLkcCaoEefywWTzJjHxc+n+5kYm0qWHYnbTh+FAmQPxLw9W9+G1LJddjZxDmc4+8NuT38EXEPe9l4R5lIUIRUMaeI+qbpQiTA4XCA283WHTxK3+eDaCgI7zszBR95aAZOjZXh+OwYjIWDVWctCNAI6FbvfS0UCWgPmSMBjnJR/kgAW/vRmy1bJCAU8EAhswVldC6wvw8N/iH2NT6Gp+vq03nwdF2PYeqe8O7vna6bhHsra7C6XrtOpxH8nqNIgLRQJMCAViIBtYhMHuJFMkYe5Fq8/tIfQ4lNGjuhSMAe5WIOSmuX1VfmwbHF6AB+6RHRgU1NdIAiAfJHAn7ul38d1pOKkanFGxznhj+KAD272xu8XiiX2f/vamJjJACNfaeLGaEOJYffOeTmxr9+w9cyNzYCpyY98NgRZW7GZo/BUPgA9/rhmRpo4MsARQLaoxIJQK9sUC6vbJmJp9LGDf5c2kgAGrNBuSIBmK4zPRnjqTvYRtc5NMzrcxqxF8nLcM8+punZEcmjSIDcUCTAgFPHjz710Jljj6kv2yLLjIONlTvcIMRqeREd0MPDbdksU9ubsLV6i71jc00ARQL2QA9UCweF4djWKibG6AAWE8cOHOUeLYz+FGGICyBctLVHouOjG/I8kmQ3DjdGI6q98RQJ2OP5b73CN0I9hdwOZNMJ2N1J8SiPe2TPEzjEhIHHHwZ/CL2XQ0zAY5i8wX1sUSQADX7X0BC7pzww4vGAzxcAfyDIHv3c44/3JNay4M/pwc2+WMA0niysbqTh9dsJ2NnNw32zo7CTTkLGEeRePzvTe5pF9kgAT2nJ90AkQEKvLBRzSl0YQ9pIAJv73YoEoIhHUe+CAuRTS+DY3YBYOABz80e5Vx8ZZusA1qrpUSJ5u7CR2lIjeRuV/H0lkqfm79sQyatEAvh1M3YAdovf/M3f/N/UpwMLiQADzt1/6kNWiQABdpPBgtMVtdVoyTkMyc1t3g5vaSXOw+si3IY56ljpbyckAjS0KAIEGLURheL6YmLMK8coEBYTj4YiMDU5wUOyaPjjoUkoBoaHhyGTTvH/h90YGeIkAvaoJQIEaNznsmkm2Fb2pws5nFwceINjMOwbZYa3k4sHQ1oQAS5myA9p0nnQ0Pf5A/xxeGSEe/sxv7eWwY9nIGSzGcjsbMMOfm2nIZPZgXwuBwUmUkulIhyJ+eG+JlqEdhrZRYCj0CPpQCQCmqaTIkAY/KHRAISCfpiaEO04IzA2NgbRsXFwsr8ltbYIC1cuKi042fXCfQfXLxTvwuDnBbvxPfui2XSedqmIACYAZBMB/+W//JefV58OLLXjw4RtYGRg4c6tmodhuMJzyom+vjH1nT5CHLjSp6A3/9abL8OrL3weFq+9yhdngdcfrHk4En4RvUV2ewNS8duwtvA2bCdXqroHYdpQMDoDE3PnIDh2AIa95lN/hHd/xOPlXv1QOApj4xMQjU1COBLlvbhHRjxMEOzP6cW1pMDupd3dLKS3NiG5kYC1+Aqsr61CKpnghn8ut8sjAEZGQLEzdkHfUizRBSSao/pgvSk4Nn8Q7j9xBI4fPsQ7cmFnLuzGpd07hj1+iB08AYfOPAljRx6C1MYa3HyD7Tt/+SJcu3UXbt5ZhNW1BO/S0+1UviItKlJDIkBS0Fs+FDoAo4ffCbG5MzA6Nq1+h2gHuwuutWBk4Mp3n4fLr3ydd4dSUr6UExIx+nPzzgK8dYX9zHUmCBP25+R3nXJ/CkCMBGFkYGPpKmwsX+dFxVqwkDg8MQ9js6fAH5qsKjQWBr/X64NgIACRCHr5YhCNjsPoaEjx8g8b5/MLgx+9+mjwJxJrkFiPw8bGOmymkoqXP5/rmMePICzDIV+SQrsCD+ew9nTdw4dm4fTxw/wk7SPsOXr68bwNNPj17O0dSbi7tAJXb96BS9dvc4M/ucOMfMnqJ7S4HPKkExL7IREgIQFXDo4enILTJ46yheIAzMyfgMNnHof7Hv0gjM8e5e1Iid4BawfuXX8N3vzeS3D91h1YNjgSHVNUsGgXRrrfNpJoHWwdmt5YgtXbr8Hm2l1eQyDAehF/eBKiMycgPD7LDf7xGHvNDP5AcJR3CzPy7iO8iC+Xg+3tNKSSG9zgR+8+Gvzb6S1u8Nfy7jeDi1pFEETbCIMfO/OgwY/e/VNH57h3/yh7jqfsYiFvrchwmu0N2H3r9sISN/jfunqTG/x43gam9WARrz6DgCBagUSAhKSWb8CVV74G1y6+yAuKBRgCnD32AJx98iNw8OTDFB3oM7BrD08Fi52GodEpcNXInyd6A226EEYHMOdegHMZDX49eu++SOdBD78+nccOKHJPEMZUPNq6WgU0+PXpPMLgx3QeNPj16TyI8O6nttJwbyUON+4swptXbsDl67er0nnQ4CcIuyARIDEivxxbhi7fersqvxzbjh4+8xicedePwuTcKfD4Lej57KDboVuUi7m9TeTIPJw690448/gH4egDT/LoD9G7YLoQRgfW7r7J04VEdEBr8G9upqrSeYR3n9J5eguXg8aqXzn7ro/AoVMPQygUgTE8WZcZ+JjOg/n7+nSeWgY/pvOgwa9N57mzuMy79BjVBzaNZMXUhPyQ1dcDoBGBXYUwvxyjA/GFq+xdZbPBTjRT8/fByUfexw3GkVH5OmYQjSlnN2Hl0l/AzvpdgEKmsolgZ6HZY+fggff8GBw8+RBvQ0n0LpguhNGB1YUrVek8u9mMJek87ULpQP0NFS6bo1wq8i59jt0U78yD+ft49kZkag7mjhyH6akJiERC/D28otovNPj16TzC4Md0HjT4rU7noeLb5ikWKZ0KIRHQY2B04N711+HVF/4I7lz6Lm9JKUCD8dSDT3CDceLwGWuiA0THUMTeJSb2/hwuv/I8LybWgtGfY+ffDfc9+kMUHSBsgWyJ/sblJJWnR+Tvi0gs5uwfm5uBqLcEheRtWHz9eVi/82ZVaq4AvfvowcfUHTT437pyg+fv69N5KH9fPpLJjQHoxtEYEgEGpHd2bL85rOhSg61Gr7/6Erz18p/tMxinDx3n0YETD7/X2GDs004t/YJSTLwn9vbXhuxFB9quDaEQMkEMBDJHAjrxt6Gxr83fP3F0Dk6fOALHDh/i742q6TzYzhnr7x54z4/z+jusw7n1xstsr/0K3FtUWnCiwX9d045zixn83TL2e6IDD6UbSwmNSh+Q392paTDiybX10kmEFyQY8LPnZAzKCIq9W29+uyL2xCFVyF5tyIetqw0hBhZKByK6hZVRisq+5vdW0nnuO36YG/v4XBj84qRdLSJ/X3j3ExkH5DzT+D+FfHYH1laXrMnfJwgJIBHQZ+gNRi3adJJYbIKHPU8eZe+xhXHugASdhiTsDS0TQuy98c0/2Sf2sP2ktjak59KFSIBKAaUDEd2i1UiAth3n7LRuXzs4y7vzoPffqB2nPp3n8vVb8PbVm9zDL7z7lM7THlSHIjckAmTEAoOoXnQA00mmpmcMuxgQvYEQe6+/9KV9naOomJholUokgAR5X9LrBzfpT9dFg1+k80xPxiASGq3bnWcjtake1GicztPt03UJotOQCBgA9NGBXHabv69tW7awtAJlPKjKSQeR9RLaYuJrF7/RsJh42GATDbONkyAIopuMhsf4GoWHYbpcincfT9fVpvOcPDpflc6DBr8e7b6GBv+1m3d47300+BeXVq1rx0mYgk4MlhsSAQOEiA68/e2vwqVLlyphTzzBFk8hdAZnwBU7BTnvDJ1c24PU6xwliolPnXtk3ybqctIyQChQOhDRaUQ6z+joKC/GxcMwTx5TvPtH5pXTdWul86DBr03n0Rr8ysns1rXjpLSW/qJE48mh3X9Ayeey6rM9xGJ8YO4IzJ54GI4+/AEqNu1R6nWO0oKbaKlM1aCEAhUGE3aCewwa9GPhAARcOSiuXwFH8jqE3Dlu7AtqpfNsbqWr0nnQkaVN56H8fcIs29uaHNoBhkQAUWFoe5EvxphbiQtyIBCwvNjUitaoltPH+c/7akOSGxWvmdhEU0UvOCOHweEbU/8VQRB9jc1rXqFQ4A4lNPij4VGeeojpPJi/j5HI6akpmD9+Gu57+D0wGp3gjopXX/g8W6Ne4fVr2nQeNPKFd9/S03WbRDkWjCD6CxIBRIXMVqJmOgkVm/Y+GB24ff1yxWum3UQdwwGeDuaefgB8sSPgDUbV7xCDRM+kA1HPcWnQducR+ftn7zteacc5MzXBUw+N0nlcbg+EZ07A+LF3wtDotFq/9nJVOo9s+fsOCZ1GlVQlmhdEk9AdQxhSL51EFJseOf9U77WiJPbhLGT45i1a6x0//QCceOg9dDLxAELpQBbRpy1vhcEfYka9aCwg2nGKCHKt/H307mvz90U7TpHOU3IMqz9J9CXUBlpKSAR0i5KEJ/YaeDjqtRoNhiJV0YG2T64lukIhswGLr/85xG+9waNBAstPJiYIomcQ6Tyik5j2dN2D7HWlsUCN/H1tOg+147QX6sBDtAqJAAPS2xkqGDFA32rU6ORa6b3HMoovSWgU/RHjG5k+Ak63V/0O0U9Qd6D+xjXsU5/tIbz77ZyuK9pMG3XnkS2dh+gsRVpUpIZEwKDShjFc7+Ra8h73Po0Omjt04gE4+8SHevNkYqIulA7U3xw9+zicePh9MDlzsOnTdXP5/L52nPo209SdhyB6CxIBRFuI6IDRybV677F7RPFCCc9TOBSs8jzh5kPIhTb6g+MrDppDqFi8/xgZljtvl3p7m6dczEE5lwZHNgGxkJcb/Ji+4w2EmQg41PTpuleu365K50GDnyAaQalKckMiQEZ6sGWl/uRaI+/x6cc+CMdPnKp4ng5MT9b1PBHygNEBHF88aM7MycQEYQdOp9yhimIXvOCVdJ6Av8qpcvb+0zA7EYERyMLylW/D4qVv75u3+vx9Ol2XGBTy5FDgkAggLAdPrkXvMaaTLF57rSo64PUHa3qeBnqj6aHOCWZOJjabDiYMGIoCEWaQPRJg9+nbYr6IdpwHZyb30nkOTO9zqiji/AeYOP8gDPuCbN6+xubt5+H65ddtPV2XIGRnZ2uTaj8ZJAIIW1lbvM6jA5dfeV4pJtZ4nvTHvOP7RG9htpgYowP+YIgbKKLbyDwzWkS3kUgoqP4rguhdrIwEoMGvnS9G7ThDo7WdKlX5+3dWYLPE5tiQh//M9tamdAZ/pdc9QRAdg0QA0RGy2ynuPX7zte9VPE/6Y95d0SPgGD0A4Pbz131HH3cmalRMjNGBoyfPVHUbCQT6dJwJ25A9HagVGp2uK+aL2Xacwqmizd8Xa6zMhrZL4rEtFik6QvQnJAIIqXB6I1wMOMdPgjcyo75LWEbZfiGibyWrLSbWggaM8FZupLbUd7uL16N4Sgk56fV0IH06Dxr5Zk/XFQa/tjuPPp0H51M9777UhrbMAsUlt6lUacMpcVqpjCctEyQCCIkYgkJlYzx96iScOPcotRrtYUR0QBQTJ9ZWq7qNaE8L3dmlg4OI3icUO1gpjBcGv5Wn66LBL7z7raTzyGxoOyXuIlPGKK7QTxIa2i6Je/tSmpfckAggpGE3yQzCK9+GncQiFPNZ9d39ueVlx5D6HaJXwGLihVtXa3orHcMBcE2eVdLBRkbVdwmiGifIaSiKdJ5INAqzxx6AB971I02drqtvx6lP58lbdLquS9LrR7QJHYJJtAiJAAOYkWJ/1XgH0jKkpMFipfUe18otP/8DH6HoQJ8y5B8D/+RxCB46D5Hpw5WzJQhCBoR3H0/XjUVD4C1tQnH1DYDULQg4M9zYr4U2f19/ui6149TgILOkn3A55IwEFAoUoUAoScuAg7Mz59//roc+pr60Bcewn3s/jShnNpixnFdf2YPDEwKH2ilCUM7i77U3LcMxHGRfxoZdOZtiO+VehyAsJk7GFyG+cJ2HY11DbnAPK38zHngTmTgAsQNH2Z7hgmIhD4W8ie5CrmFed1BFuQzlnb02l3aB1xuvuxHlQhZgd1N9ZR9G9105t8XUV0Z9ZR/17nlnaRcifjfMzc3DeDQCkUgEQmNTbHyPQSA8zsd3N5NWf7oNHC5w+msfavbidy7CZtq4hsFSnEPsTxlRX8jD8ekg/1KuU0x9Vx7K+R2AHLsPHA72902o79oDGvwjw24IjQYg4PPyFJ7J8Si/P8OhUQj4/RCNTUN08iDksso5Giu31QP12PVjKxY/RReN/rX1DVheXYeN5Cakt3d4Kk+BiYIyW3s6SXlnjf2nxOdhrbnYLcoFtgbhGtiBsW0azR7hYPuHg+0jMlHeXsX/sv1lFBxuudotl9Mr/NHhCe+zObrB+vp68urVq5e++MUvPHPjxo1vq28PLCS5CenRH0SmbUXpGhqGqfn74OQj74OjDzxJB1X1KIXdHYjffA0uf+e5fcXEeDIxpoNhfcjM0bN0MjFhOW730L52nEfnDlTy9ycnxmum8xRhCIKTR2Hi1LvB5Q0rhfGXvluVzoNGP9EH9F9zqr5GtNl1QiH5+c9//plPfOIT5z/5yU/O//RP//SDzz333K+qPzbQUCTAgIGNBGQSUkUCjMB0oa2NVS4K0DvsHh6pRAcwXWg0OslFAUYNstks+zi6/x9FAvbddzJEAsTnR8GH44vnS6STa3wcPb6g+lMA/tEorxEJjU/zCNDOFpsrzUCRgLr0eyRAePe9Xg9EwyGIjUVgmhn4sbEoREKj3GAYGRkG99AQDA3tN/h3c3lIbabZl+LhX46vQ2IjBamtNE/1KeXYvYN/Ixtfp29M/ZfyQJGAFqFIQMt0KhKAaXo4d3EeY/et8WiId9vC17Hxcc973v2u83/tr/74J/O5fDi1uZldX1+/rf7TgYZEgAFdFwG4EDYwhttmhBnjusWiF0SAFjQA15duQWptiacLoYEowOex2SP7jUUDEeByDUFJXajshERAYxGgBQUfpoMZCT58FIJv2KPcT6bShUgE1KWfRIA2nQcP1cID6WZ4V54IhNlrHxMCw243/zk9In9fm86zurbBDX5M58HvYbGuPp1HmUs9IAJGmLHI5qNMSC8CtkkEtILVIkDM60DAx9PyhJDnaaRaIc/mth6na8jz5LueeOyv/tWPfyoSiZ5/8cUX/0D91sBCIsCAhcWlVxdWU8nR0eDU1Hh4Sn3bUuoaRE0aw63AN4EeFwECrAUQ0QHMzUXvMUYFEL2xyIvu3H4YZwsH9xawR8zzXb1zmf+8nZAIaE4EaKkn+ER9SHTqEH+dz+3yiIIhJALqIrsIcLscUNxh65TOUETDAI36ihdQnddoGAQDfv49z8iIocGPBn0ul68Y/PeW4xBnRj++xkJd/J7Z/P2eEQF8HSYRYBoSAS1TEQFsPjR73eoJeSzCryXkRdQuk8lCIpni83ppZY2LeDGvF+/dW37++ed/V/0nAwuJgBrcuHXn2195/pv/+aVX3rqwmkgnHzpz7DH1W5ZAImA/VnxuLCbGnNzE8h3+Wm8sRidmuYGgDfvjAoICwm5IBLQuAgR6wYeIdCGsD0HBV7eYmERAXWQXAZGxcTh2/yNsrEdghI07egFnpmIwGRur9gKq81qLUTqP3jBAg7+dYl0SAa0jswjAe8eB145BIqA5KiKgwXUTBn+UifhmhLyZND2jqN2NW7du/TmJABIBRkTC4blHH33nx370R374Uz/xiZ/45N/623/7Q0dPP+xBT3JmZ3t/nnkLkAjYj5WfW+SWGxmLWkTYP3Fvr9jYLkgEtC8CtIjuUULweXwBtkEoSxpGgjA6IOpDMDrAu0cZiABtLulXv/FtvnHYDomAhvADmthaW84mwe9xw4GDh7hHEI0A/6hiGOC46Y0CRGsYoCcQC3TNpPO0C4mA1pFZBGA9sMyRgMLWCuBh0LKJgGKxBM7CFpSLharrhoX4WGivjdyhhx8FgFkh3+68vnvnzi2KBCj3NqHj8Xc+/Hf+/b/8/z2D7SfRq6gnk05ywwOLF1vFwRY5Z2BSfVVNMXnbdoMQD2XS58YX16+y1YQZYzbiCEzvM8IEdn9u7DkfO3gCyiMhvlhoe3KXizm+QZaz7PfbVJSNOZHO0EH1VTWlzAaUNxfUV/ZhdN9hPYTiSbKXeve8VZ8fz47AtKDQ+Iz6zh583q4ucgMD80VxE0IBoO348ql/8r/Dtdt31Vc24mKCcFi+Q9F+5MFp9sWundMNrth96rv2g5v9MDMMRoaHuaGP44OvM1sJ3i1qc30JnC43X4+xzgejeoJcPs83fpzPihGQ71o3ntLWPcXQZoLfNXZCfVceivG3+fqmrMNyRXpKmYSyBjic4Jo4o74rB4UCu2Zr7NoxnNEjNZ0Z3SK39Drvx+8Mz9V0NHUDNPZPHp2HdDIO2XwZvP7gvjW3Fmjw4zy2a17/+QsvXPhX/+JfvFd9ObBQJMAALAx+72NnP1bLk6zPM8e0AyxibAaKBOzH7s/NowObSciAb1/YH4uHHSNBLlCGPKMw4nbytpVWIm8kADua2J8CY3UkwAhM/6lbTByZqISWjXJJn/3aC5BI2T8OgxwJ0HfxmJwYg6mJce4FRAGg9QIqEZ2DfK11uoYhsXyL1+9sJlZgM+/m6TwY/tfn73cLigS0jtSRgHJRuXb4XMJIAGx3pgNPPXC+lnI7PHLnhjxMT0/B9NRkZR77/P6ahfho5Jupy7GSN9944+I3v/lNKgxWHwkN0Uhk/oefeucn1Zf70g7QsMD8Y4TnmU/NVYoSzbYsJBGwn0587lqbc9DjhKnJSSUPkT3GZuYhMn2EeyzQmDR1EFkDSATYLwK01CsmRkRoWRSPJZKb8LWXKB3IKhGAm72ZLh5GXkFt2B/zfFfi67CVLbF5mOfdgXA+FoajlqfztEtFBLCxdXqr7zcZkFkEFJkB6cDrJ2VhsEYE+MbZ9NjfeaabdPpALjG3ecFu0M/P0cD8/ampKX7wY347AWu334btzXW+f4q1V8xrTN1JpjZtqcsxy5UrVy6RCCARYMjkROyUVgQItD3MaxUlmo0OONzMIBxR/q2eQRUBsMs2AJvTkWqJgMzia2zv3gQnlHhRKTI0NMQPqhqfOczfw9xysyLPCBIBnRUBgqpi4twu7BRchsVjuPksra7DzYV76r+0kT4TAVqjQH+6br0uHggaBnj9hRfQqB2n6M7TyRODW2FPBGArYhIBzVDKZ3pEBGCXm8ERAThncf5q8/erCnbZfNfm76PBz89yiR2A9GYK1heuwsqtt2Er74LVxBaf13iAnpLiY31djllIBCiQCDCglgjQ0m50wOH2kQjQwc9H6JIIwJx47UFk+laj+Nh2ChiJgH2/W9Cpz5/d2YasM1hz87n/+BH40fc+yesFsEuQbZ2CelgEGBX1jYVD/LRdNAoCfl/doj4UW+vM2MfIS7PtOEkEtIfMIoCvQbKO7YCIAJGqF2RzGCN3zXTe0gv59WQacmV3paC66GZrv1Oe60YiQIFEgAFmRICg3gmn+ugAIloWGokAnFjoTStlkopRZCMkAqrRF8Y2bDXaSgoYiYB9v1vQqc+vGLe1W4QKTh6Zgw+++zF46tGHmGHrg7eu3lS/YxGSioB3nj8DD546DDvpFAwFJ/l6ZPXpumgoiMhLs15AEgHtIbMIqIwtrtGSFS33mwgQtobXMwzRSHhfql69zltYiI8FusLgx1S9lXjCWMizL1m7KpEIUCARYEAzIkCLOOE0vnCd5yCjIBBFiWg4ag80yuVy4AlGlZy6UaXf9RRT3DgJtzdWzJ1+2gaGIgAjEDZ1xhFw8VPLEJRIBAjqtRqtJ/KMIBEgvwjwlrfhwMwUzExP880Q29Y9xgzjv/vXPsrnJ3Ln3jJ/bAvJREDA54FD0+PwwXc9DGfOnIWpuZPM8B/l65GZ03XR4N9IKjm+Ruk8VoX9SQS0R0+IAAvqUSynh0WAMPiFrYGefZHOg7U6tea2mNf6A7fwUWvwiw57hpAIkB5qEWrAuTOn/8rnPvPTz6ov28IfGgdsNWrUsrAWN994mbfEsxPDFqGJG7Ybg3XbRKbuMiGSVF/ZBFsgXWPH1Rd7FFdeV581hrcardE+Npfd5iIQIwgoILTgAk0tQu1tEdoQ3vrylPpiP6JNLs5bbEVpNMZLq2vw/3z5OfjTC38BabYRtoSLCcIutQhFg//YoWk4d+wAhF3b4IMMzE5NwOETZxquU2jQ46aPBgA+z+4qBn6nKDGDopxma6OEbSSRSotQtx9c0aPqu/KQW3kLXFCQs0WoGNsOt6c1Q7mYg1JcOVDSyfYPvQOt28yE3ZBauwc7Zba/sX0GO21hao9otduoJSca/Dm1za5oxSnmejtg2iyI1qqSXbcvfelLz/7CL/zCj6kvBxYSAQZYKQK0TM6d2tfjWqCdhIm7b0EmqSh7uzDq108ioHkik9iTftrQeEos3+adaYSgMxIB6H3BRbrMjOCdOLv+NkMiwJwI0IJjjBE8LBLX8+UL34RvfOci/2qKDomAY4emeKHuw6cOw1Fm+J9nj0F/9UaMPbzRgBDnnvDPi52xRvzcyM9yY98ao6BdSAS0B4mA1pBRBODhYF6vl6flYT2OWbS2hpjf+NqOuS2zCPjiF7/47Gc/+1kSAeojocEuESDgXsbJOSi7A4betNL2mrIY2giJgGpaFQECER1AQSCKiQUYHcDIwEYyBe7QDF+00UODj8JLg0bYrTe/rf4L++iqCPCNgTNo7GmWWQQI6kWAtrZ34P/98nPw4l9eNHfYmMUiAL37U+NhePDUEf54nBn86O3XG/xGaI2C5RuvQnF7XUpDDCER0B7F1TeYRVsiEdAk3RQBwlHkdDhgdDQIufQ6pJZuQC6zBZEp5WDEWhE8nNt2HrjVCJkjKL//+7//zK//+q9/Wn05sJAIMMBuEYDUM4gQnDy4mdh1gi2JgGraFQFaWkkBIxEgvwjQUi8CdPGtK/DCX36PiYKvq+8Y0IYIEAY/evcf4EZ/hL82Y/A3Ol1XuRdWpDTEEBIB7UEioDU6ZcwKg184ioxONRdUIngLSgRvnO05wYl5yOaUTj04x7sduSMRID8kAgw4duTwe37rF//JBfWlLTQSAYhYEIbLGSjubFhaJ0AioBorRYAWsylgmVQcEnfYBm0zJAKsEQECp8tdiQAZjTGmC33lhW/B9968rL6jYlIEiHQe7NiD3v2ZWBiOHmosLsW9hUY+3l9m03lIBLQHiYDWGTQRIPb3keFhXrTbbP6+SOXJZDKwdesV/j1n9AhbV4ybL3QDEgHyQyLAgG6LgKHCFoyPT0AkNlW1IBQLuUrRabM96vWQCKjGLhEg0KeAoXGGC7kwysr5DJQS1/hzOyERYK0I0NJUMbFOBAjv/klm6B9hX62m87Rb1EcioD3yyQVw7iZIBLSAzCKgkMuCI3GFP2/FmEWDH7366OEXBbv4uhH6uY2P2n0DwU6EpdU3+XMSAeYhEaBAIsCAbosAYQx7/CFekGhkVGAoEAVBq9EBEgHVFHERZZujrYyMgis8p74whhvD7MuucRh4EcCNx/vVF/tpRwRoaVhM/N03YXpqlnv2Hzip5PGbNfj1Ob56o6AdSAS0R89EAkaxO5xcLUz7QQQUCgV+WB4677DXPubxo5e/kXcfaXVukwhoDRIBCo3vzAEkGonMf/QD7/qU+tIWsEd4zZ7xar/8Qn637gm2eO4ApiI4nC5ehY8/bxajQ7u48Wn3OQH1esV39ZwA7GXcfh/zugyNgNOzP2VECy6SI6Mx8IanuNcom7ZWFHX1nAA8I6LWKdk47h05J6B+f3mrDsyrd9jc8flD8P4nHoZHz52A00cPwVg4yPt460FDAPtwi0N5mj1dtxUq94KMvdoZUh8oxShkUuAoYqRH0nMCuNgvG54T021kPidgyMn2XEeOiYFdcAQm+J6L3n1t/3086wdb7YoDt7D/Ph60hz+nRz+36x641QiJe/EzFaCIYgY6gRwSna/w+uuvX3zllVe+oL4cWEgEGNARETDkaSgCtNQyKpxsMUJv4/jMYfY4DjuZXSjuNjboSARU020R4CztQsTvhvn5w8qJrJEIhMamTB9EZhYSAZ0RAYJ6h80J0AOoP10XD+URp+sKo8BKY78WPSMCJP37HLspZQ0jEdA0BbZvOfJyju2IxwMn7n8QvMEx9twL01OTlQO30OPf7IFb+rndViSPREBLvPYaiQCERIABMooAgd6o0EcHxqcPcsMR38/ndmtGBwZWBAAagdVpUEi3RUCJbYDby1eY0FPaS3p8AS7wEP1p0ziu+oPIzEIioLMiQAsK+WR8kQv5Elt6k9s5WF1L2Ha6biuQCGiPyhpGIqBpHAU5xhYN+dLuFt8PRxx5mJycgKmpKf6+x+eHQCAA7qGhmga/Vswvx9f53E5tpe2b270iAtQIiiy88QaJAGR/nIroGTAycP3Vl+Ctl/8M4gvVRaVYR3DykffB0QeehPFZ+XJTCWOw4Pve9dfhjW/+Cdy59F3eAk6AIm/22Dk4/dgHYfr4gzA6Nq1+h+glcIxXFm9xTyDmAFuVzz8IFEvdEUeE/XRjbLFIF9Mu8bCtQ7NTcOLoHJw+cQTOnjsPBw4cAGcxA3ff+CbcfP2bVXssGvxo1KOhv7C0Atdu3oHL12/D9Vt3YXl1DdaZ4Y9e/kGf28WivJ8/nbY417ZHoUiAATJHAoyol3KAhuNodLKSVpLZ2YZSYRe0kQD0aGBuYymbUjyyNlI3EoAeyHxGfWUT3MskXyQA2JiUMZVAg9ZzjDUfOH6uIcXL4w8q0YFma0JkjQRAMbfv89tCFyMBWurN/24ieyRAFm9xLSgS0Do8Fcime0/scYGAD8KhUZ6/Pz0xXsnfRyEwouvHjxHY6NQchGIHIJVYg41712Hl1tuQLnlgOZ6AjeQmj96hkLe6NqcpJI4EOEp5ZU3F52zflSkS8N3vfvfl11577c/UlwMLRQJkpI2JgtEBPHTKKDqAC9rpd/4gnHj4vTA5PQOxaBiOzh+Ek0fn4NjhQ3whJOSDe46ZwHv721+Faxe/URUdQFGAAs901KdcVJ8QBEH0Hzxthxn0Y5EQTDFD/+DMZGWPOzA9yQz/MN/rjDr2oHcfPfiYpnd7YQneunIDrt9dgV3XnvMC+/LLRFEbbWACiiCagURAnyLSSl594Y/2pZWgh2Ny5hBMsgUSexWbaV9GyMF2ao2LPBzXxWuvQUYT0cQCcUwXeuA9PwYHTz7E+9YTRD9B6UADQBNOMDT4h9j+JdJ5tE6t6ckYN/ixc49+j9Om8yytxOHmnUXF4L91lz9HEbCV3qZUPaLvIRFgwE4m01e5YvroAB46JhCLIS56u6Uh9V0bIU+0ZawtXocr3/1zuPzK84ZRn2Pn382jPvWiA7iJuly0DBC9gctJR9u0Qy+LKLd7qCp/f/7ANM/fP3X8MH9vNBgwdGrpDf5+y993OUgYE61DLmADgsHA1Md/5D0/qb60hbo1AbktsCM3XtQOrN69Ctu7RYindnhvYsxt5Iugy6McJIU5hSVmrNvQKahuhxibPncVPVQTYJZ650m4hz1VNSF4EE8wHOXesUgoCDOTMZ4HjhEGu6lbE9DG528Kqgmoi+w1ATK3kURkrwmAHWWdk7EmIBIdg9HREJuiThjyhXmP/Wg4VMnf562TNfn7w8P7c9+FwS/676+tb+zrvtVK/j46zhzZDf5cttx2mdtw4lpKNQFyQy7AAWV7K8XblelBz7AvPAkTRx+E2dPvos5CPUa9jlEYHZg/frpumJwgiP5FtkgAnnYr8vcj0XHurDh69jGezjN3YLqp/P3L12/B21dvVqXzWNV9y8X2RaK/KFFqIYfubKLCSGkbpkLDe/mUsYmqHHNqSdk71KsJEQivWTZPiyFBEPZSVbAbi0DAkYbS2tuQW3kLHJk1fmCiEWKd2txK183fN3JqWUVV8S1B9BHkBjSgE+lAPFxcIzWkE2kxRq0ic6kl2Fy5WTmV2D08UmlJqT+wamdLCY02C6UDWZ8O1Ahtq9F8yQGJrd2qMHmu7OKt5QrFMjjLbCMt27PhUTrQHpQO1Bol9vf1RDqQ21t7rneRYnoVsKzC7nQgHlH2enj6Dhr942MRGAuHeO4+P2HX54Pw+BRMzZ3iP7+VWIHlm29COhlnRn8JMgVHZw/caoCjlGNrg5oOFJjkKUvS0CvpQJJdtxdeeOErly5dekF9ObBQJIDYh/AiG7WkFAdWUXSg98BxXVtZNAyTY2/p4fAsuCdPQ3D2NI0rISVUBNkedlw//YFb9x0/zAt2Dx+arSrYxTx+LcLD7/CNg2fyJAwFJnht0r1bb9OBW30CRVDkh0QAURfRkvL1l74Ey2xx1rakxBzzw2ceg/se/SFeO+CUyQNBmMZZyEAs5K1s3keOneTjikJv/OBJ8Pjl81gTBNFZRDpPOBTk/ffRyMc1A9NHtQa/Uf4+Gvza/H3s0IP5+6JDDxbyFsvU+anfINEuPyQCCFNgZyHsPoMtKWtFB84++aMUHagHdlySkEJ2E5av/CXcfP0v9hUTzx45bf4gMoIg+oKq/H1m8Gv777dy4JZRwS5BEN2HRICMOOQu1dAeWNUoOuAe8anfIWSHh+LVYmI6iIwg+g+jqB4a/I0O3DLTf79WwS6l83QQmVqXEj0BiQCiLbTRAa0XWUQHTj/2QZg+/qBhdEDrbYqxjWY0oPS2H0gkW7zNHEQmhB5BEL3ByUd+EE48/D6YmT3IDf4TzNiX5cAtyh9vDSykJohWIRFgQCaT7asTgztBPS/yxMw8jw6cedeHYebg0Yq36ejcbMXbNDkxDm53F2sKJI++2Eqdz46dhbStRrF7h4CKxAlCTtDBUs5noJxNgSMTh6mon+fvI9jpbXximhv8wwZrrlH+vt7gt6r/PtE+lHffGh1uMCUtJAKICla17xJeZH10ANuNjk/NarpFjKjfUcCTbm2nLGdefi/Q6CAyKhIniM6jz9/HIl1M5zl79izMTo3DiCMPi29/C26+/s1981afv2/ngVuNIGOWIDoPiYBBpQPGsDY6oPci6zcf9Dbhc0J+6h1E1myRuDBgsMiQIIj6VBn8sahh/r62YFdJ3fsBOPHIB/i5APeuv8bm7efh6uW3O37gFjF4FIt7ws4hWcrr9rYmXWGAIRFAdAThRb706l8abj7obcIDq3LOAa4L6EFwXLFIXEQHctlt9Tt70YHjzACZnDsF/tFoVT9xrQEzxowXguh1rMxrL7P/l36+YP5+xeAfi5ou2L25GIeMK6L+BEA2syNvOs8gp2b2GS4XtX2VHRIB3ULSdpF2k8tla24+eGCVN3YEXJNnwRGYBhjyqN8hZEd7wNzNN16uig74/AGYmr8Pjp48s+8AIaMWgwTRq7icrW2p6N0fGXZDNDzKDX7M3z97+sS++aJHa/DXyt/HiCvl77eH1qNNNMGA2jm9BIkAorPUWRS0oe6Zw6d4FwvqT997bK4v1TxgTou2AHGdGTEE0es0igQY5e+LA7eOH5mDmakJbvAbiWOjgl3tgVudzN8fZGRLayGIdiARQEhDYXMJhnfjEByBSm9qbX/6ycNn6PTaHkJ/wFx8San7QANGf4DQ9i55jIjeJzJ9tFIHozX4sQVyo/x9LfqaKTpwq7u4HCSsiP6ERAAhFfU60EwdOs5Prz3x8HspOtBjYJH40sKtigGj91Zi0SJPAxs9AOCmuhCit0CDHw366FgMDp95HB547P1VBj+2QDabv08HbhEE0SlIBBBSUq8DDfa5ptNr+xOnNwLu8WMQPHQeItNKX3OCkAn07qPBHw4woz67CrvLb0CglICozwGjwT0B28jgp/x9wnKoqJpoEirdNiASDs/90W/921vqS3tw+8EVPaK+qKaUXoHy9qr6yh4cvjFwBmfUVwql1F0o23xOmsMTBmfooPqqmkaf2z3ig9iBo+zrmPrOHtiVJr5wnZ9RUBeHE1wT96sv9ijGL7E/IK++sok6Y17OpaG0cVN9ZR+G4769BuX0kvrKPox+t8BZ2mVGlQcmZ+f3GU+J5dtMBC7xWoO2qTH+guL6VYBCVn1lH/XmQTfJby6BMxNnA+IGV+w+9V15UNaIlY78fejdH3YPgcczwgz/Ee7JRwGgvz+x9TE6KcTag1HKUOwgj26hUY+Gfz6fh1y+0HUDv7jyGn90hubYPShXamVp6x6Ud9bUdVKuSC8eulZK3ubPXVPn+KMsFHa3wbGh3HtOtrbJVLMgy3W7ffv2Lfz6zne+c+HGjRsXr1y5ciGbZX8cASQba/A3f/yD/0x9ag+uYe71NKKcZ0YIMwrtxOH2gWMkqL5SKO9u2m4AOYY8NTefcm6bWSF7LSb1YI751sYqzzPPZXf4ex6f8hnwILLR6CTvQjPs8UGxkOfRhH04HOD0T6gv9uCbT9nmDbrOmEMxZ7sAQwzHPc+uk833G2L0uwUltpFtL1+BjZW7/DW2ExVg5CcycQCiU4f463xul98LLVFj/AXlTIL9Mfb3Sq83D7qJA+8FnIMOF7tOMfVdeaisERb/fWjwY3ee0GiAfQUhNhaBqdgYjEcjvFDX5/Xw03Xx5/QUYQhGAlEYiRyAzNY6bG8sw8ZGAlK7Li4Ccrk8FIpFKEtwRCkXUAwUoXgPykQ5t8XGlt1/fJ3cm/9SUNjlBi3iDEzyR1lwlNjekdlQnrO1zapDPy1BXDf2NzkDtdddqxDz2MvmazQc4vN4emIcTh4/Gs7spJPf/e73Xv7GN1763UKB/WEEh0SAAUNDQ57uigD7jbJeFAFastspSMYXIbF8h7/2+AJsAVBuZzQasUe9MBp3tpQFkkMiQEoRwDeL3RQ37hsJPYwElV0ecDkdsJtp8u8mEVAXu4xsq7Di7xOGQjQS4kW748xQmByPcoM/GPDXNPgxnWeXGfSZTBYSyZSa1rMGiQ22FqW2uMFfRIOnyOyLoRFwMkNbJopFtr7tKJFWEgFNIrEI4HuH9CKArbsWi4B6wj3MXuvn8dzc3NSPfeyjH/on/+s//gz7e+bfevvSRYoGkAgwBFXiF776zWfSmQKMhUJT4ZDf+tWcRMA+mhEBAmE0rt692jA6gOxmtrkRKBYQDPePsUVjJ7HANIDNHWpIBDQUAVr0Qs89PMLHFAmGIjw6gOlhGP7GyE8hb8K5QyKgLoXsFjgK7H7oExHgZvMb03giodGKwT8zGeMCAPP6R0aGwT00VNPgT22m2dcWN/iX4+vc4E9tpdUUn8I+7z6fw5KKAP63SiwCCpkUOIoZEgHNIrEIKOay4MB1vU0RoDX4A36vUmzfhHDXz+MTJ06e//73v39xYWHhVfVHBxYSATVAhfjaW5f/7Nk/u/Crm9kyPPTA2fPM1LBu1ZRRBODmmmeLsI1YLQK01DMaKyklkwdhdBSP3Fc8BpFwiC8ga4s3uKCwFRIBTYkAgRB6mHOdTq6xMXVXhB5Gf7CN7PjMYfY4zr9XFfnRQyKgLr2aDlQoFPg81qcBxMaiXABoDX49WkMhvr4Ba+xrdW2DG/zp7Z2aBr8RMosAB5SgvBNXnksoAhx5tgbh/UcioDkkFgGlfPMiQBj8tSJ1Ab+voXDHSB121qo3j7/2ta89SyIA1wXCkL//qb/1K48/+e7zTz7x2PmJWIyv5qL4FIsUDfPNm6FeYXAHCjUNC0R5Yda6+soe6hVE2lEQHZk8BKHxafZlXJAqwJakbY9pI6gwuGZhMG6wpZQi3swyOXeKjy0KPD1YTIxiEFuTVsE2SCoMrk2l8JYZiK6xE+q78oCn5w47C7CdXGUiYBLcbnfNgl0j0FDA/vragl0r++0Xk7cAMKI6Mgqu8Lz6rhxgpLMUf5M/l7EwOJ9cAOcuE+FUGNwUfO9I3ODPZSsMLmUSUE4tKOvu5Bn13T3QkMf5iyId57CYz43AeYyF9tg+t9XC+5/92Z/91Le+9a3fVV8OLBQJMMDj8YR+8Z/9/WcnQ555v9/nEUWK2pzkvfSSFj2obKI6mVFkREciAa6RfZuAkpPZu5EAI7TRAUwZ4ePmcFWFCFfi61Ao5KCUQxFgY/EeRQJaigTUAg389aVbPDqAY6svJsa6EH9kihuHleiAQSRAeJHRU1xIx6Fsd0SIIWskoJIO5ByquT51Ep6ix+4Nv8cNE5N4mq4f/IFRGI1M1E0DQNA4wKJcPI06kdyEe8tx7ukX+fuiYNdKZI4EQLksdSSglN2kdKBWkDgSEBlXTsAusXnmDo7zNbaSmhcN8ROyzUTqcC7jvMV0HozULa+uwwab0+0U3lMkQIEiAQagCPjK//3LVRYZepSx0BRTD7SI6ED83i1wlJvYULin7bj6opqORAIMPJFdjwR0wiPNFkj31NmaHoMSW0x5bQR+WY0MkQCjce/RSIARteYpwluNJlah6J3km46RF/nyK89z4Wg3FAnYj5FXML1+DxJLN/iY4HkgGNHTtwgWXkE0CIRnH42GbrTjpEhA6ygtqpkxK+G1K+wkwbGprE8UCagPOlV4yg6bv5FQkIsAs4h5KyJ1+GjXPKZIgAJFAgww6g6EmxCeZivyzfXRgam5k81FB+p42joSCTDwRHY9EtAJj7TDwYxR41xnNDw8/hCvG8Ac86EhV3vtKPXIEAkwGvdORQIMok8VWogEGFFrniK8LiQ2y3NNa3mR1+/dNFdg3CaDHgnAuab1Cs5MxWAyNrbPK+gfjbC5eISnfRVyWd41auX225Bjz3cKQzyK12r+vh30TCSAja2DrUcyUWlMIeG128tt70yry6boYiQA107M3/d6htm6GobhcgZ27r0FxfQqjAZ84PP7wT28P+Ik8vfrddpCD7+d8/irX/0qRQIYJAIMqNciVN/CEAsRhz3KKZGV4lO1NeV2ehMctdJLBlQEcEO4xgLfKRFgVBg6vLvK842npmcVT6THa13ql2DQRUA9w9ciESDQz1NEFBNrEZsRGpDJ1CZkkktQLFiXI14LWUVAaTdtqQgQRkKAGQRhZuCLgl1elK8x+I3SebRpAKl0FnbLw9wowL8xm81C1hGQpv++oGdEAFuHSAQ0Ac4J/PuaKHDtGBoR4AxO80c7EHNZtORE0S4KdnFuo1MlGGJ76PwpbvjjIXr3rr3OD9Irl0qQKTirOvQ06rRlN1/4wheeWVlZuay+HFhIBBhg9pwA4XXEQmEMtTYVHRhUEVBnge+MMVo2zOnMpe5BcuU2Nxoxvxw7CwkPhhB3o7GD4HYPc6OypehAnToQEgHWigAtOE+1XaPEZqT1IosCs8I220ztPjmaIasIqHQHakEE1DMSGh24hdcePX8i7xfHZiWeqPIKosGPAqDVv68TCBHA619kG18SAS1TLrB9UVIRUMyx+21X2TusqlfQzmWMnKKDTN+Ss16HnlyJ7XVsDAsldtlSq7CVSsAO+LseqdPy5S9/+X+QCGC3tPpI6LjwP3+tpbsUc5Kxd7m+Y4moHVi+cxWGXGziMCNAXxOAEwr71juyG5BeVXL87KJbNQFKvuec+qKaTuWmuybPqs/2MOoKo+QgT+/LQUbQy4HjubnexN9rMOaCgagJMPjdAqtqAhqCXSrqdAdC+FjgPMBN3yZkrQnIby6BM8MMRX6v1q4JwLXKyQwiNBBE/j6uXY069Ij8fczdR+O+2fx92bsXiZoAhyci3fhW1QREjoBj2HyudieQuSagUZebbtJu5yKcy/panGbmMs5j/DLq0FO5bi43uGL3qe/KwU/91E997LXXXvuC+nJgIRFQg1ZFgIDnlk+hINhvQGKB4uYGM7z8U4YTD79/9/L31J+2BxIB1TRqDTk+e5SPp17cYeqIaBuLHue61BMB+QyUEtfUV/ZBIqCxCBBwb1hxCwrb643HtklkFQFDpR0obd6DfLFUMbKdbJfwer2VtcrDDAb06DdCayRYVbBLIqB1SAS0Tr+IADw8D+eumMso5AMBJZ25HjiXW2mtSyJAfkgE1KBdEaClVnSgFiQC7KUVESCoJ+4wOrB85xpsbyyr7+ggESC9CPANFWF8UqkL0XrCcGxR6OGBZVYgowhA0YNh//FoGNKpBDjciqHQyCOImPEKWgGJgNYhEdA6MouAIcjD7vLb/LlWBIi5i2k9npERntpjZi7n2NzFlB1h8Gd3lRSeViik18GRXiQRIDGN74gB5VM/8eHPqE/bBr2I2M9cXzugBSebyIlNbaxDLp1Qv2MPg1sTwDZAg7xJsyfFYueYWoXh+Iidhabm7+PvY2ehqk4z9fKY2e/mf4PNDGJNQBU1CsMF2fh1SC5egVKxUFUXgmPL63zY2GKdD9aNtHO4XLdrAniUgxkHuc1lft2D3iE4MDsLoZDyNw17vNxjiD+nBw1+XK9E/r62bzcWWLfat9sMlbNEZK8JGPJ2dXwNoZqAlpG5JgDPzTh57p18XULbQl98jzn8eJK20VwWdgeepSE69Pz/23sT4Mbu+87zh5MgAQIgCfDuJtmXutWtw5Ity5Zktw/ZSuw47SQ19h6pyFup2kni2VFqN1NzbWJvpWaTmXKt56hMdmpnrZRn4iSTHcszdlXspKyWxrYi2bJbLalvdvNo3iAOEhdx7v/3x/uDD+B7IPCAB/xB/D5VNAmw5Ubj4b33/f5O/K7uxWnKyOO5ivcW7IeTbAM59QSUoEyADq3MBGgxNDEHDt+UZoq8HfXhlAmopJlNsYdlB8oRZB69LGUC8IKM5V9YWoFRGmA3mZXrf8t/ZyaUCaidCaj+HNTqCxF9PkayA+3MBIjPGi8BUD5vovQQ/w3YMI3ZRzQ1+O/Ff6vYsC2uTSIqiN9bHd1vhHp7FjoFZQKMQ5mAw8FzOb+X4BoBTfqxU+frytaJTB1G9dPsPG5FaV49FBJbUNxl9xYJMwG/+Zu/denttykTQCZAB7NNQK3SEIGZi6s0xSBPtW8qj0ziCJoANTWXVW2tQcFWqq2ubrxKxaNw682XlUfmQSagMROg5tBFZMzs1dsobpYJwFF8WOMran6x16jeNfwR9vlcuXetFLlj1ydH8GxHBb8WVA5kHDIBxumECdAz7/lsGrbu3+HmvZDLwhC7JqFpF8ZdXZrXql4co8hsAr7whS9cvHPnzivKw56FTIAOppsAK54UZ5UH2uBFAG/gA302yO1utqweGSETUEmrTIDA0TfA+0C0IshakAmQ3wQIah3b/Q3ii2Ap6peXtcIEqGt+cUNndR+DHtUigaf92WMUCbKLbMoEGCfHBKNlu1Q7LqMJyEYWwZqJ9aQJEIIfR+kK814dKNJia+UehJghyKR2weEaAOfYg+VzWQbIBMgPmQAdOmkCUBAN+9wwNXfw941GHHXREONkAlpnAtRUR5A1RRi7iGe3bvHfmwmZgOZNgBo8tlguJKJwamqdq42YAHVEUET26ykBQPCzVj3Vo5ZIkF1kkwkwDmUCjNNKE9BMtg7PXbHTRJzL+WSkqRGhZkImQH7IBOjQSRPAy4B22AWHoTeaspl6ZA6ZgArMNAEC54APHIFTmiIMb9AYgTW7J4NMQGtNgEBkB/BcxWWBarTGyOq9F2rBj+P7vN7BuiKCiEj5C8FvZKqH7CJb+kxF+C5Ys3EpTQBlAoxTNgENillh1oXgbyRbV23e8bEW/NqJJsCkLEUzlE0Anq8Buc5XMgElDv809iif+eTFF/pdymgQM7Bgt3xAeVBJEUWI0geQ3I3wyULxaIhPJDmwlViZVoIc2EpcC40JDOXJG2bS5dOBmiFftEDB6decmmJhF3BL32DpteHUDmYKzNhcS9OBak8HMvo5wA3SODVqc/k2nxqFuAYG+Xer1cazQIHJOfY9wCdHpVIpsA0M8c2bOMFjZMgHgZGhiq2cWOJTaytnKpWGcDRWnuqBm4+bneqBG3ktOfb6JZ2+k0vvSv36AD/Dkk4Hws+DJRXiP8s4HajAxKyFvXcyTgfK7yXBgtPzdKbc4DmKZXk4hWfY7zswoQfFfx8zAdXnMoIiX0wGxHN5dX0LtrYjFecyTtvSI59JgwU/dxJOLirfWyQ8X7/1rW+9GA6HSymUHoYyATr853//LyLDPrd5V6I6MwFatCQ7QJmACtqRCShFL/WbwfEGgWlhETWyQh5iG4vm94Ic8nlrFUc5E6CF1ebg2QEsF6p3R0g11aVjZjf5lSaEMaEoa6Rd9nIliTMBxXwGCqEb/GcZMwGilErGTMBgvwPs2SiE1pbAMXbeUHmeOJdFCWirzuVcMgqWHXbtlDATkN3dBGtivXS+UiZASigToMPnfvET/1CGTIAW6uwAIgRGQ9kBGTMBGAWq8e9uFZ3KBNSKhuCyMK81AUO+QRgJjPKokbPP1Vy2RwPNTMAhn7dWcZQzAVoUiwVIxELlcxUzACI7oIWI8Md24jwSiPP3N0MRHuHH+fulsoCcKfP3BaVdIfJG2nk0VuLXB/zzk5UyE8AusCWDx5ByT4DYseAYkOa9ExH+wMgIBCeOw/jMAzDs95azdZjJ09qnoT6XYzulCP/61jY/l2O78daey5gZw+u3hJkACzPEgLpCwvP1pZdeejESifR8JuBgboroOFgaUg8oMHCz8FuvfBPWF67zCTOC4fEZmLvwJJx7/yd45kAasMyF0CSysQQL774O1/72u3wEHNaSC6Q9nkRd4LmKxxbP1ZU7V/lGXowGbobCsHh/De7cW4Lrt+/B/MIyrG+GePMfRgrNivgTBFEJCnmM6PsGPdBfjEM+dAsskXnwOTJ8ao+gOuKPgh9Ffaksb4ufyzfnF8vn8jYT/niu07ksFxZmmgjKBOjSyUyAkaioXsSxOjuQyWQgl0kdiMjjBdBe2IN8eld5xiRsTrD2DykPKmlXRFrGTAD+3fw14I816sub7QWhTED7MgF6YCYvGo1BbM9SV81vO5E9EyD960tF2OeHMgFGaOe2ZbzfVffjTI4FYZj97PN6YDg4DsOjk5Bn16WNhRvs6zovt8X7dtHqqJmtM2tbth4ybzPm1QWSZgK+8Y1vfHV3d3dDedizUCbgiKGOOGplBx547EM8mhwcPwajgWE4PjUO507PwYNnToDfp1+qQHSG6uwAvxEpVGcHcvn23XhajpXiEQRBtB6rBXj9vrjfnZyZ4ve7ueNT/DmM8muN6LQ5XOCfPAMTFy6CfXAUIuvsWnztDcrWEUcKMgFHmI3FG3wB1Z0r/w1ioVXlWQCnyw2Ts2fKF8B6RpYdJXAc5wEscr8H2b0krM6/Dddf/x4s3XjzwPGcOvUwPP7RX4JjDzwG3pEJ5TcEQRAaSH69MwqW82AN//hogIt8HuB64FSl4O/vV/70PhmlWVeU592cX+DlefeWVvhzeSqaII4oZAI6RbF96X+RHXj7B98+kB0Q9YyR2A4kM10cSe4hRHZAHM9a2QGcX08QBHGUEPX7mL1WC/5Tc8fh9IkZCAz7dWfy4/0OBT/W76PIv3brLtyaXywLfozwY9MuQfQCZAJ6CKw1F9mB+Ws/rWhgWlnbhGTBycdnWrzTAA638l8RsiKOJ2YHtLI9mB148MlP6mYHxI0Ub5YEQRAyIq5TWLsvBP8DJ2e44J+eGNMV/OoAl1rw4/0Ofz5yDbsyl1RSuae0kAnoUeI7Ed16Rrt7BLzT52H87AdoEk2XUCvbI7IDp9/7LIxNzcJYcBhOzh4r30hxLClBEEQnmTv/JBx74HHwDgW44J+aGK24Tk2MBQ8V/GJCD4p8dYCLJvQQhDZkAnoVjbp4XNg0OeQqN02NjY3zaPIjH/4sjya7fTrTjAhpUGd7qrMDA24PjE3PQXBkmDfC9VovCEEQ8oC9WcVMvNywi+IeAxazZx7igh8n92hdp9SC//7aRltGcuYLVCprhHyeTJfskAnQYXcnuR9K7RGKTEAu3/ixbq35qUefoTn1zdDmHQnVs+m1ekGwBjaayPKNjgRBEGZQZIIcRb4Q/MfGAzDsTIMtuQ5r716G6MoNiEcOTmtUX6fEPg214I/Gdnt+Qk9B4qlwNou8r62NU1ylhkKBOnz2uY+84Pe5je36r4da88rbMTNdY15/EedvZ+LlTaehlflD9w7kc1k+uaZuJNgTYHEH2dtf6X/FfG9TqbUbQrUnwAzElulEKgPheIbdQLchEt3hEbMsu3/iDGeL0w25XB6shf0lZa2k5p6AfKY0J9xsJNgTgNR8LzoI7Qloju7ZE8DOd5uD/9xq+IQe9oWRfFy8NT3J7hdKZB+NAP7O5cJt6OMQnD4FHn+A32cwg8mXJIIdwrt7fAa/+jol9mm0cwa/oLz5Fu9fsn3ucMs/u29j3b2V3dtkorinnK/8vj+sPCsHX//61/8gnU63YTmN3FAmgKiJiCbrzamn7EB3kdgJ88iZFjaXF4aOnYOJ8x+GyZMPgcstn0gliK6gBxoha03oESM5cflWrQk9GOHfjucg5RwD6PPycsbQ2lJ5Bj9BEOZCJkBGJLyB1DOnnnoHuhPsBQn0FyoW6GCE7oH3fhROPvI0GTyCOAI0U5/d7ISend245oQeMZKTl/O0uVySIAgyAYQBDttiS9kBA3TQ+GH518bCu7x3AA1ePLql/AbA4w+WDd7Y3AXKDhBEl2Kz1Xe7Vwv+IBP3rZjQs7SyThN6CEJCyAQQhmlFdkB9w/F6aDeB2aDgrwUavPm3fgA3f/J9bvDUjB8/zbMDZx7/CBk8gugysLerel+IuP6Kht1qwT82Gjh0Qg8K/pZO6KGZ8kePI7qh+ihAR0aHjjYGt6NJskZjsBHSiRhEt1YgvL7EHzuc7MZhd/Kf+z1+niEYHj/O/tk2GBhkj5noxxvPGPsKDA/BIDMAlmKW/3+YjZSNwbxpb1t5YCL2PrC6Kj/WWg3Zuewe7EY2ebNeJp3kAgKNHeJwYlNf483h1Bi8DzUGG6NrGoMdA2DpKw1TkAULe8/OnHuIX4fdbjcEAwGYZEIfr8WiYddhZ+8rMwZqUPDvZbIQ24nD1naEN+xuhiIQZkI/nkhyM9CKhl2Z37siNgXjl4Sfu/J9W+bGYLzv9Jsnp4zwjW9846vUGMw+Nsp3gmgJh2UHJmfP1JwBTciHyA6I8i81VP5FEPKB0X2cwV+Ib4Atvansf5njv8PrsM8/xK+/1aDgFw27WiM5RcMulfQQ9ZCnz4n0kAnoFIeUZRwFavUOINU3HPxOyIsweFq9A9QcThDtJ5fLccGPmdTqCT0PPfwoTE9Pg8tugeUbb7Dr8F/x63A+V5q6k8lmK66/N+cX4PrtexUNuyT45ae8yEzCkhtbVVZJJjoxalZGKAyrw8Vnnnh+POAfVx6agtUzpvxURReWA9UCx75haQnuHUinkhDbs8Dq+hZPLeOyF7wRlWZAF9hrSJtelkPlQIeXAx0Gln+hyRPlX27v/gxodfkXgjsKEK0SGBQwfG643QrpnU3lWROhcqCaUDlQc+QSYbAWzSlpwTKdPqcDPJ4B8Pu8EBwZgqnxUV5O6fcOwkC/C5wOR0U5D56LQ6PHoJ/dyjJ7adheuQ2by7cgnLJAKLJbcf3ttNinciBjWHKiHEjCUiXUMXh/kbAc6Gtf+9qXmIneUx72LJQJINpKLLy5PxKuCgszJrbhE2AdPgUWCW/wxEGqswO1msO9QwHdmeIjwzR1iOh+bFaL8lNzqAcm4PmibtitZyRnJLZTMZJzeX0bkoX9reDYx0McEXqgqoAwDzIBvUpRYyazBFMZ8ObX7/GBb+I0TD30EZg89Sg4+r3KbwmZqS7/UoOZgdkzD9UUMATR7ZRLMxpACH7crjseHNYcyVnPhB71SM6VtU0aydlCmtmxQBAyQyaAkAZrLgXDfTl+85uZnuA3v+DUHDz4xMdoLGUXUSs7IKiOWFI/CNELoOBHA6weyXlyZppf846xx4GR4faM5KQxnA1R3rFA7xtxxCATQEgDNqypl1apxSPWtqpLS1q+tIou7qagzg5s3L93QMCUI5apDOTy1KhF1Imkc8fxGiVm8Tsc9grBf+bkTMVWbu+ghwt+7IlRIwS/aNjVEvzUsNtmaJsxcUQhEyAjkt7g2slhpSVNLa3SKoUiTAWzAxsrC7oCxuLoh77Jh8HinQboo/IvorvgDe5OBwyNBGHuwgfg4fd9CB44OVsh+LFptxoU/BjBVwt+nNCDgr/XJvQYKaUiugMLBdmkhUwAITW1SkvU2YHJkw+1PjtAtB2cWOUeOw2Dxx/lBs/RN6D8hiA6j6jfxwb34LAPnJkQ5DffAYgtwKjXoSn0BRjdVwt+bNjVGsnZq7SqqZogtNje3o6++uqrl7/yla986bd+67cu0aKwEmTPdHjuo0/93Y6NCC3kSqMKzURjnJiRUZENU2uMWW4Pinv652X1VmL1WEr8OTA5B67BEXA4nOWxlFpYBgIHIhNFvB7kTZ4WdoRGhBqh1lhMazEHQ24bzM7O8ZGHQ0NDfCtxcPoU30qM7KVaML6WRoTWpGtGhPIRx/vnvxmg4Mfovs/rYV9M9I8MwXhwhH8+MbLvcbthZGwaPL4RPm0HgxUbi9d5WWPRYodMrgDhaEyp4w/xDbvqkZxtn1Ouuq9oXQM7jZnjVZulvPm2DZ+7RpF6mzHeV9j9BTO97bze4bmLI3NxKSlO2Nra2Fj4t3/8b//g3/7xH//GjRs3XtnY2Lip/NGeh0yADoGRwNnHLpx6UnloCmQCqjjEBAjE3oGNxRuQSbMLM8M1ULppuAbcXDyOz54Dm90B2cwe5LKV4p5MgHwmoMBusIm1mxBauQvFQp4Lf5u9VCtdmnU+Dd7gMW7w8JjjZ8AQZAJq0qsmQC34h/0+XsIzxr4CzIwOMrFfnsFftV8kzz6rRauDi9Y+/xSkY5uQiG5BbDcBO3sWHv3PZtn1XIbFRJKbgHySTIARyiaAz+KX67XlklGwsPuqmSZA7JoRgn9yPAhjzKzjY+zJwd9NTIz7P3vpM8/9w3/wv33JbnfMJpJJWFtjNxwCKP9WA5fL5XvuY8+88NmPP/38zLHgrPJ0y7AGH9S8EBezKSiEK+vgWw4TIbaR08qDEoVUBIo795VHJqHx9wpQiBdipSh/o2DZSHD6JASnTinP7IObbWPba3xZGWINPMB3EvCf2c3f6bBDemse8imTF7QxsWALnlUeVFLMZ6AQasM1qc8LNv+M8qBEW447w8LMh9V3THlUSTETh0LknvKoBG4dDk6dBF9gUnlmHzymW+x47rDj2hBMxNlGzysPDpLfvs0jV2ZT673oJIXdVWZGQ8p5ekZ5Vh7Kr8/hBtuwsWlh4pz3ejxcQDiYuMfHh42sxfr9DBP0GMnP5krbdvGxul4/v32rFPlkIts6ePBz20lK9xX2+WZYA2fL10BZkPm9K+wonzun8c+dWRTiG1BkXzK+tnxkgQeYLP1DLbne4flqY5ppcNAN/X19TKOVHtcCjTqep+m9PUgzU44ld2jOn3rqKdK/DLlCAZJht9tdkZ3EeiSVX3/okfeeDQaG/S0pSVDQ2lzLoUxAw9TKDuDSKp4dmDnHbvQO3jvg85Y2bor0fiK60Zpyk1r0eCaAR9Gq/u4yGluysR8Ey7+27s9Dkb0/mNlxOEsLj/CYYnYATQIaaSzHqM74aEKZgJoctUwALwtw7ZcF4Lk+ORbk0X4RJXTY2b+V/Tk1KPj3MlmI7cR5Sc/mdph9RfjP8WSSi4gc+zPVEf5iip3D7PMjYzRb9kxA+b1zDrIvj/KsHMicCcildktbgyV8bfyabiATIDJzaM5Hhob4vXpiNFAqFWXnsm5mTnXexnZ3IbQdhfWtbV6Khz036szc1772tS8r/1lPQ05Ih//l737ha//j//DfXzr9wIUK1ZJJJ3gEMhZa4yKlGSgTUIlWNLgZeHaAiUSsKz+Me+/+beNR5UaRNBPQTAamITT+bkG9xx6zA76RCc1jitmB9eU7kIisK89oQJmAmkifCcCoZ2JDMxMgooQo7u12G1++Vc9COhQOGB3EyH5qD0VC9kCEv14oE2Cc8nvnHtMvle0QMmcCsrE1sKa2ujYTIDJzLozssy8cm8vP5QYzc+l0hp+/9Z63zzzzDOlfBmUCdPiFZ59+YcJrO1vdhIp1yuWGRWVyidEIck9mApjv1I2Ga0SDm6FWdgBRRw12wuvsr2/O1NWDbhS6g5mAZjIwDaH1dwvqPPZovMUxxei/w9lXkR0YHjtWzvho9YMcmgnA3pCCwX6DBqBMgDEmpmbB7x/mwRO7a1AzSogmoN/lOhDdRzJM4KPgxwbdUCQKG1vbsBEKQ3RnFxKpUsOuVoS/XigTYJz9TICHMgENYDGpT6YVuF12yCQi5UyAiPDzZvvBg8325Qh/jcwcRvjxvK3OzGVzpQh/vVAmoAQ5IR1+/x998eWnH3/wovKQMzR2nImM4+DxB5VnSojsgKg5r5eezATUioa3OBOgBWYH3JPnIZsvHBjHh38/TjMwTYzXiEJTJsD4sT8sO6DuB9E7BiIald68Bfk0u6maDGUC6gObxNEger1M3HtKJTwYKawHFAYYFRQRfvxu9rx9ygQYhzIBxpD1teE1dXp8lIv7WCQEzv5Bfo1tJMLP6/jZl9HMXC0oE1CCMgE6fPSZJ54/PlnZDIwjKnGJlV52ACOQjWQHejITUKsuvsWZAC0wO5CxDwLzAAfAmyJG7wZGjkFfXz9YoVBfnXm91IpCUybA8LFXZwcw44OThdTZAfW5mc2kebQMm8pEnfiQbxCmxsd4nfhOaKXpMr96oEzAQaqjhIEhL1j3wpCJrkByewnsljyv31dn8xARJYwnkhDd2eF1wGubIR4lVEf42zGhR+ZMAI4utaRLo5MpE9AYuVQMLLkUu4ax+0K/zjWsQ8iQpRDnbmZnnWsXv8cFc3OneEYOcfWza3KN3ptIlJ23kSiEwpGKCD8G6prJzOmRZwLgxRdfpEwAg5yQDlqZAC0wO4B15zjGUE092YGOZgI0IvJtiQh3OBOAqKcDCezFPTh2/MSBWkSMJN9fuM280YbyTBNQJsCUTIAW2PyNWbt6+kHU3Hnrv0EiFlIemUevZwJE5qXP6eS1+4dN6ClNg7rD+3asNgcEj5+DYp+v4Tpgs5E5mp3bS4AlKiakUSagEcrRdryGDbV8UGBTtDsTIM5dzMq5+/srzl2ue+7fKfdMoj7C6W74JSL8vEGXnbPN9N40C5qAixc/TPqXQZkAHbQyAVpgdmB7bYF/6DF1PaDKDgwOj8HYzDlegoL1y9URxo5mArQi8u2ICHc4E4BoRcGysRUIL78L2UyKT6HBCDKC3wPjpTrzfL4IhXzOeHaAMgGmZAK0wGOkzg6oj2k16jrxeHgV8q3M/ujQS5kAFA16E3rQANQzoSeVLcCepZ8dV/Y5YYYxkYhD2jLQcB2w2cgczcYsKGUCjLGfCWDXsB7KBOA5iRF+PFfFucv3Z7DvuD+j+twtVUWMw/DEHFj7BiHEjHt0Ywm39cJWPAeR2E5Lem+aJRIJR//sz/7sD5WHPQ2ZAB3qNQECtehAwW9XNSxilmB4fIa7YkRss1WbAHGyeb0edsPsg2R4hT9vGmQClEcleENofk+35AvxDgX5VmKPL8AuYhnIphtsCD+sKTW5pfxkIj1iAtRUH1NM6YvG0NWNLb7RVZSN5BIoRKgx2KgJsFoABvr79wU/+5ocGy037ArRUM1hZQFiJCcXY3kmxjpY+lALmYWspYDnGJkAI1jw+ojlskfYBNQy6+pzV8us4/lZ3WyfzOR5fxX/3LFrrkzlcalUKk0moASlQ3SotxyoFtiwGNBZdhReX4Q96wA4bDZwM0etToVjSu3GG9/jP5sGlQMpj0rko4u6/RCiIdxd1RCObCxe51kgFJqHUqscqJCHwtY15ZGJ9Eg5UC1sYw8pP2nDG+TZF2QTyjOtp9vLgXK5HHjcA6XFPR533WP9EBQN1SM5q5v09SjElktCtollYWYic0lL6Ry7y3+mcqDG4J87vCbIXA7UwGtDIY99USju8bx1sfMXp/IcRqPN9vnwPBM0CW46rV55GuW3t7ejly5dGlIe9jQatShEq8Da4sVrr8M7P/w2F4so7gWYGZgYDUJgZJjfQOu5eRKdAaPI81d/ANdf/y6vd1SD5V5nHv8onHj4afCOTCjPEt2MtX+ICcwT4Bg9B/1Dck14MRtHv1f5aR8UDCgUBplgGA8GYO7YFDx09jScmj0Oc8enIDDs52JC6xqGogGFwmYoDIsra3Dt9l24fuce3Fte4Qu4sD64XgNAEETjYHYOa/dHmdY4PjkO507NwYOnT/BzdzQwzKf3aBkAce6ubW7BvaUVfu7OLy5XnLuy9OIQxiHlqcPjj56/dGZ2Sjtk3SDFInPOzBBgk7DWvHo82bBGDtNp25gK3w5BLm5yaQiVAymPSohyoFpgTW1cp84cv/tHp8E/foIvKtLcYFuzJ6BI5UBtOPZIrSgjNoiPjo7DWHCEfQUhqPSDNLsTpBpZy4HGxibhxNn3lHqavMN8chKWBGBpgN+n2tRZVRKA4HUslUpDOBYzbUIPjvDlZRlUDtQ4/BwTpahj2v1oHSSXCIG1mJfyvSt/7iQsBxoaDjIT7oJkMgkD/lHebD/oHoDx0QDfnzHGjLu6HK/Rcxd/Z7T3hmdPsBdFsmlZVA60D5kAHZ564j2fb5UJUINlI7GtFV6fHM87SyutlZMtqdwoC0VLaVznIaK0KXrZBLiG2MuoinxgXSW+53Wi1ztgt9v5HomRyTleDoZmoCwcdUwAXpT7HHbI7tTYdNsqyATUNAHZyBKkI/fBwYyc27//OcW+HjR51X09RpHBBPAZ/Hjs2fuO5ufEyTPgYUIBP4/uQT8X/LjBs1o0iPp9rZGcsd14U6LhMMgENEGFCRiVzgRAOizteyejCcDsXD87R0eGh2FkbBrGp0/w+n0U/FiiV2vpVrvOXVlNQCKRTP/5n/85mQAGmQAdzDIBAowq5xxedjXWvhCjWMKINQpHvHizO7bymxbRyyaAiYdqE1C+yDdIPdkB7AuxWm38Agx9ft4APqSatoAp2SGfB7aWS4t8TIVMQE0TgDetQqZy7wAiMnfVU78QI9mBdpsAFAM4sxuj+fi5C+KUj9EAeFw2sBXSsLu1CNsrt6HARJjd6eJfiBANWps6+ag/EwW/FmQCmkByE0CZAG14kIjdM7AHZ9DNTDq7TqY2bgKwa5XfOwj+Ee3rWfW5i4J/PVQKOrbr3JXVBKTTlAkQUGOwDr/zxS9881MX33dJeWgKWg2qAjzxsVl4YKAfnExYZhNhSO9s8jnZLaGXG4OHT/E15mpKDYetEaEoDlH4NzKjHhf5vPuj7yiPTIQag2s2BufDdzUbgmsdU+z1wVK/9aU7YLfVd0k1szEYJ3jg7O5Gm/5Cq/eYEb3JRxn3e4NgZceqU3O89aDGYONUNAYHz0s3HSi/dZ0dYCYYe7gxWNz38dx1sPu+XsO95jz+sVnIFu1M2Gd5Lb8M5265MZgdT5mO6QLjV3/1V+eUhz0NZQJ0MDsTgOiNacPFUe5CDEaDQRgZCfK0vMc3VFGOkIjvMgfXxAlOmQDlUQmjmQAtamUHqsFoDUZkYju7EA+1QYjj6Mf+qqEIlAkow2/0GiNCq48pUp0dmJirPzvQqkwACgSn08mjhMN+L0xNjEFwBDNL+zXAWg274nNX7kMKR2A3XYBcJsVMUBJy+QIUnP62RfjrRfZMgMzRbNkzAXzCTbEAFia0LU7t62WnMCMTICL8YkO2uv8GZ/Dr9d/guZtjt/6C3Q1O3xgkdrYhvROCaDQCyYKTn9ednMGvppwJkOx8iDK++c1v/kvlYU9DJkCHTpoAXByVDt3TrDkXgmN85oGmyhHIBJhnAtSI3gGM2BSwBluZUY/CC2fUb21HSo2TiWR7GoO5eCIToIeeCVCj7utBXAMedqMuncfVvQPZzB43ENU0agLUJQF+rxcCI0O88W+ECQZRA4zlPtWCAakW/LykJxSu6EMSosGMZWGtRHYTIHNde9eYAOcg+zpaJqBa8PPBA6qlW4f132BJD5bx4FSe6v0ZGGlvtUFpFWQC5IdMgA6dNgFie2ytqHKzzYoHmlTbJAZ1J+QwkWz6pmRGO02AACcFxaMh2Mm7ysJLHanBG7KpPSACMgFNmwCBODexl0MvO4DlQ1pmvZYJEIIBFweiYEDBj6IBBT+O8ztsQo960pjaaJYHD9QoESAT0ByUCTDOUTEBFYKfmXOczlMt+GttyNZbmIejdLUi/M0aFDPJxcPsfCATIDNkAnToqAlgaEWFq6PK1dkB0ayI22x5Wr8WWpNqCjnzhVitMZn49x9RE8Cp9W9ncCPALpSYKXG6/eDCiUGq3RItgUxAy0yAmursgMPZx89LRG3Wc/ki5JkhLFhs3ARUC/5RJvaxURwF/2ElASgY1GP91lVj/bSMZj2QCWiOfHKbTIBBpDYBGG1n54XFOVBh3sX5i1N5xKCHCsHPa/u1Bb/IzgnBj5MCI7Gd8jjdekt6ZDYBkGLHVMLMGJmAfcgE6NDZTEDtmfE8qqxkB3AEpZ0JDocyzQMFx8jEzOHZAS1B2g4hRiZAeXAQT58VJicneZlHcHQMhseOVQpHjbKShiETYIoJEIjsADYKp+Ixdn5bK7IDvpFxnh1we5hoGAkcEPy1IoQ7qikfG8qUj50Wj/UjE9AcZAKMI7MJmDh2AoLj05Day8FIcLws+CfGgtwAiP4bHBGN57waPH+T7ByNqPpvUPDzMlCV4DeKzCaAVzSQCZAaMgE6yGwC1KDID68t8FITNAR62QH8HU4RKEMmQHlUotMmAGe2p9fegVSMHXd2/NXHUQjHgs0FdqvFWA+IgEyAqSZADR4nzA5s3Z9nhzTPjqWjbNadLv0IoVrwb6pGcooaYDPH+pEJaA4yAcaRyQTwHRrsPBgccMHY2Bh4PW7e+4MGQAh+PH+rUUf4a/XftBJxTlRnKWSATID8kAnQ4ZHzZ5+7cGbmUeWhKbTCBAhQ4IvsAKIWHJgdGB6vyg5UCVKe1mQvJRtnF2IzIROgPKhCOebqLA/WmTtdA+XjOOitnBCl13RaEzIBbTMBArExXJh1PDcxOyAEP9YAiwhhteCvtySgVZAJaBK8bnMhSyagUTplAlDMY1Ou2KGBE3psmRhkY2uQ2Fpkp0OsovxWgOcninqj/TetIpeMgiW/x8dekwmoj61wJPqtl8gEIGQCdHjfey5cMt0EaG2uRQyYADVaggOpyA70e3iGYMg/CNMTYzAaGAEn+zRgz4GpkAlQHlShccyxzrxWlkev6bQmspqANjWFI+02AWrQrGN2YHNjHbaTBV4DrI4QtlPwa0EmoDn2hax8JgBLCi17JaPdqyZAjNRFwe/3ejRH6mJADK+1I5MnwBuYgFwmDZuLN2Bj8TqkMzmIJHIt6b9pFRY8ZzETQCagbnZjMcoEKMh1FSBaCpqBxWuvw/XXv8sXi+CCEcHw6DRMjo/CsN+vOUeckAc8jmt334arr34TVuevQiq+HzHHDM/s+Sfh7BOf4MushCkgiKaw0DXhqGGz9tZuUBT82LQ7HgzA7LEpOHtqDk7OHoe541OlLe1+34F7nyjnwV6btc0tWA8nIFYc5EvCkJ1oiIt+mRbo8dIl2ZHMcMaYCVB+7HnIBPQAGH1EEXnjje/B8s03IRZaVX6zf9HbDkchGk8D2EulJ4ScYMPp7Z++DPNv/Tdu7AQ4Nnby5MNw7v2fhOkzj4F3ZEL5DUEQBLvWFzqbZTILjNyj4Pd7Bw8I/lNzMzAy7OdRfj3Bj9k4FPz3llbg1t1FuLu4DMur6xCOxKQT/ATRasgE9BhY7sOzAz/+a5hfWCpf9Na3QhBL7IFt5DRYh+bKkQ+ihRRbdzOh7EA3I68Yy+dJ8BxVbM1smJcEIfg97v6y4D9zYoYLfiztOUzwY7CrWvCvrm+S4DeJo2o8jxJkAnqUbLq0fETromdzeWFw4iyMn3sa/OMnSERKjpHsgEiVYy3s8JBcY+WIzmGz0S2B6Az93soeFCH4h4d8BwT/zPRU3YK/OthFgp8g9qErPlGmmE3BUF8Ozp0+UaqbDAbh+JlHqMSkS6gnO3D+fRcrUuXYF4I3UoIgiE6Bgn/m3Pvg/Ac/DRNTx+DEzLGy4J8YDTYl+PWCXYT52Cz0vssOmQBin2IeQkvXuYjE3oF4dH9aTXWJCSE36uyAugcEJwtV30gJQtA15UA6m9aJ+tDbVN8OUPBbizkoJLagEFuGgMfGBT9uxsbrU2BsGvpdfTUF/9LKWlsFP5kI4qhCJoDQBHsH7l79QXmykECUmDz8oc92b3aAmZ1eQUyIQmOHI+7isfCB2tjVcAIsOA5SsgkORxd5p7RQOVCLoHOJI0p6cAznscnxcoT/3NmzMHfiFIyw5zfmfwbv/vBbsDr/Vjl7KQQ/LtrSEvy78URbI/z47+DQ1KwjQS5HvQoCulJJSCejNNWIyUIiO1CrAbWr6YHIIi4gu3vtJwdrY4sWsA5Ogm30PFi809QU3sNQYzBhFBTKdputQvCfOD7NS3pwJKd30FMR4ff4gzB58hE4/9QvwvCxByG0eg9u//T7cPPaVbhx5x6/Tm1th9su+LWQORNQfm1kUOomkdihEaEKZAJ02I2njvaHRGtSzSEXEcwOYInJrTe/XzM74PYFlN8Q9dLp9LxowJs8fhpOP/I0nH7849zYWbWW2REE0dPgNWOg38UE/xAX/DPTE3Du9Bw8cGqWCf4hJvjdTPA7oa8Prx8YdS19YYQ/kUzCZmi7HOFHwR/L2PH/lpPJmLy00QBWi7yR43KWgiAMQJ8eomFwk22tBtSTjzyjnx2oNSaT6nw7Qj69AxBbhAFrljfgYbSu3z3Ijd2Fpz5NTeE9BJUDEdUUC4UKwX/6xHEu+MXSLRT8HvfBCXKZbJYJ/lS5pOf67Xtc8C8sr8LWdqQc4Seaoyv6FejeLi10xe8kR6A2Xa8BtZHsgIhE47IXojOI3oF3fvht3jtQq+wrl6d6yqMKlQP1NngdVgv+s6dm4cK50xWCHxt4q8H6/WrBf/vukkrwJ7tDrHYhMmcpCPkhE0C0hGoRmUknlN/sZwfmHr3IReRAf3+5bnRmCtPIJ8p1o0RnKeSzvHeglrF77CO/RNkBw4jSCIJoL25/oCI7KwT/eHAEZo9NcsF/cvZYheDXmiQmBP/aZogPFkDBf3fxPgl+4gB5ChhJD5kAoqUIEXnjje/xRmK1iBz0DnERuX+T8YDH41Z+S8jGYcaORsYaQd7JQAiVAx09RKbV7faUs7NqwX/YDP6d3YSm4C8NFkiT4CeILoau+IRpYCMxikgxZjSfq6z/3L/JxPm4ypW1TeU3hEyojZ1+2dclyg4cAWQvB8qT4KyJurTS4yxCPjwPEJ0Hr32vItOqJ/gjsZ2y4L91d4kL/uXVdRL8hCFkXRaWL1KGQkDdGjo8fP7sc49dOPWk8tAULP1DYLE5lUeVFBPmC2KrZ0z5SaGQg2IqrDxoHSgi45FN2Fq+DZl0EpIFB4S2o7AR2oZwNMZNAN6AMln292d2+eswE633nf+92ZTyyDwOvOcq2nHMgf27rezfX0E+A8V0fcOwcGRsbGuFmbp5KBbzzAQMgM1eqhHu9/jAPzoNQ2PH+ePkboR/L2PvA6vLrzyowqTPnhY1j0GKveZCVnlkHhZ7P1hcPuWRPBTSO2DJs/OAf07kK8+z4HmaS9f+LHWQYjLE/qcAFucg+zI3y4mCv8/pAK/XA75BDwRGhmAsOMwj+1jK4x8ahqHgODu1Mrx3a33hXX79RYpWJ+zsxCHGrr2h7Qi7Fof5tRhLefBanM2x87HNQql0/SuCpc8LFodcW8z5dYHdxyyOAfb65Opdk/q1iWPqkuuYLi8tLXz/+9//E+VhT0OZAKKtYHagPJ++KqqEYzJtI6fBOjRHs+olR50dWHj3dYiF1pTfYHZgACZPPnRodsBht5ebEMdHaaysDFA5kJyICD+O8cUa/hMz03DmxHFe0jPBzh29kh6bwwVDUw/AxLmnwekdL2dnMcK/vrVNEX6iJ9nZoT0BArriE9Jhc3nBPXYahk+8j9ebO/oOjp8j5GFne00p+/oezxCIaCMyPH4cZs+/v9Q7MH6sognxzMmZcn8IChii81A5UOdRC/7J8aCm4Fcv3RKIkp7SNvAQzC8sl0t6UPDnLH3Kn5STfIFKNAii3ZAJ0CGeTJJTbDPFfIbXroob3vT0FI8on3v/J6jevAsQ26VLTeE/PZgdmDmtG7HsLeRuDpYZGxPIMtOokFUL/tKW3UrBP+TzHir4S0u3KgU/Rvirt+zKLrJtVnnPC5mn3JRfG83iJwxAJkBWLL15aCIrt+DdH/5XLiLj0ZDybFVEmabRSM9+U/jB7IBWE+LC8oryW4LQR/ZMQC0hKwS/mMFfLfhLW3b1Bb+YwV8t+LGOv1rwdyNdkQmQUGjbbPIHFSwWMiiyQiaghykW5F1WhiLy7tUfwK03X+YiUlBvvTmhQ5sX1KmzAws336qYOrK6vlWuSc4X2Y2M+kCILmf2oad5kAKFvOh3EYIft+yi4Bcz+PUEv3rpFgr+G3cW+PkiZvAfBcGvhY2WXhlC6iwFlXhJD5mATiKxCJeFdCLGReTVV1/i2YFUPKb8hrID3cZOeFO3CRGnNdn8M2ANPACWgRHl2aME3gzVX8RRAYMpQvC7Bkqz+B985H0VS7dQ8FdTLfhvzS9ywa9euoWCv1VYJR3XWI2MUWNZR10iUr82yUq83nrrrSsvv/zy5VdfZYKC4JAJIPaRvKYQswOlTbY/qJkdcPto0ky3gtNMPKMnYPzBD8HkqUco09NmKBpbGwvTNELwj40MgjsfhsLWu5Beewcs6TA4HXblT1aSyWYrBD8u3aoW/DiWkyCOFMXOGJQcO5ew9G7QM8CHUbzy8ssvPfvss/4vfvGL7/nd3/3dj7z22ms0HlSBCrV02NgKL8RTOTBzVwDOCbfYXcqjSoqJLfzf0gOTsLiD7Kam8oHFPBST28oD87AMBCr/XkGdfz+WmODeARxRieCceoez9D7irHrMEOjOqmf09J4Aqx2s1ZH2BvYENIXWjgIFbAoPugGOHZ+B4aFS8/DA4FDtvQMGoT0B+hT3dkpz+CXdEwB77HOa32vLngAUEU6nAwbd/TA2GoDx0REYY4ICm3X553PADf7gFP984sjczaUb/JqE/S94fGPxFGxHorC6EeINvNGdXZ4Jy2SybZ/BjxRz7PqGx5dR6xzoFMXEBv9uYcdV777YKfh9qZADi9PDv2RC6tcWb88x5ecqM+Aj7N6B+zJwqhYOofB5B7lpf997Hzv7v/723/+HNrttNpFMwtra+k3lP+15yATokE6nY1ev3fzui3/xnS/fXFhfGB8bnR0d9o4rv24JPWsCqv9eFcUk/rvrJxELQXhtgTcRoxlwDZSWpeDPg8NjMDZzlo8YTSXjfGkOwpfRVL3v7TIBugaI0csmAF9DfO1meaEconcs87ksN4JGIROgj+wmgH9OW2wCMGqIQqG/vw+GmcBHEYGCH0UECv5Bj5sJDAdv7K0GG3ZxqmrG4gKbZxwysTVIx6MQS+xBKmftmODXomwC2PXH6h5VnpUHMgHG6CUTgOcgLsjzuAf4VuyKc9Xv5eex1rmKpXd77Fy8cP7Co7/w6V/4fCqV8l95663vKr/uacgE6DA05J959uMfe/7jH/vY5z/9qU8/95GPf+Ls9IkH+ae4VRFJMgFVsJtloyZAIDbZhteX+GPMDKg32QanTvDSEqvVBr7vCfwAAEn/SURBVLmiDVzuQfD7BnnkALds2gp73FCYTU0D1MsmQLUxGPtA1McSzQAeN6SeTM9hkAnQ56ibAC0RUR01rCUi4okkj+jjlt31zdLGc3yMZoBv2RUbUtuwMbhR9k2AhUxAg5AJMEYzJkDrXFVvxD7sXMWN2JHoDmxth2GTna94rsaTKd5nc4Pxk5/85FvKf9LTkAnQ4bmPPfPCP/7ir/7BxQ898+TjTzw563Z7XNURSYxY5rLshmQQMgFVNGECBJiWx1IhXJNfHVFGY4DHLxAcK6f0+/qcfEIHGgAyASZTpwkQiGPZ6uxAZ0xAZYMcmQBjNGIChIjwej3gG/Q0LCLUgn8jFOYiAmv3y4JfI8JPJsA4ZAKMcRRMQCsEfygcYV/RA4I/x/5M9bn69ttvXyETUIJMgA5nz5y8+N7zcxdr1Z6PTM7xJtS9DLsppBP8+UYgE1BFC0yAmuqIstt7UNSIi8hudAvSLcrw1IJMQP0mQE2tY9lodoAyAfrIbgKsuQQUsWyvygRUC/7R4AiMBoa4iBhkwqIeERHbZUKiAcGvBZkA45AJMEZXmAB2zxF9eGYJfiy90xL8WpAJ2IdMgA7TU5OPfuiJh55THurWnuNkmuGxY+AfnwO73c4jlhjBrAcyAVW02AQIRERZNO1lwc6b9tQ3/ESW3RjxosPeA7ygmgWZAGMmQFB9LJFGswNkAvSR3QQcmz0DHj9+foswODTKs3njo4EDgt/BrsWHCf7Nre0KEdGo4NeCTIBxyAQYo/zasNdNss/cQ49/EBxMI6FO8vlKTbvtFvxakAnYh0yADidmjz+pNgGC6tpzUa+MBsDjD0Bw+iQXIMheKs6/60EmoAqTTIAajCgnMhZIM52vvuHjRQgv7iiQ8UKK442LKIZaDJmA5kyAGqPZAS0TgMcfZ7nn2ee/qDSQmwmZgPrgCw1ze+B2OWB8fJyJfhe4B33gD4xzwY/RxMMEv1ZdMAr+ZkSEHmQCjCOzCcjFQ2Bl90e5TUBnP3PiXC1mEjAxOcUFPwr8fg8z517foYIfz1OcptVqwa8FmYB9yATooGcCBLXqlVGA1DPasKYJSDJBZPKM3V40AYjW+261FLEZnE8YGB0dh7HpORiZmOW/y2b2+PFuBTVNQBJ7Esw1fkfJBAgazQ7Y3SN89KNoDJ8cw0jyMO8T2Q2tNjV5qF7IBBwExQGWCeA5yEf9DfvBno1BbmcNkttLkE3FwO5wlo+t4LCooV5dsBmQCTCOzCYA8NokabS9bFDaaALEuarutxnxucGSjkA6vAI76/P8voKoz9dagl+Mz23HuXr1KpkAAZkAHQ4zAWr0IpKHlSfUNgFMEJIJMAWt9z0f34RMeBFcfX3gGw7yi5w4fo1kdw6jpgloQ/bnKJoANfVkB4b9vorGcHVkChfSmWcC9puDe90E4HuOmRdhxFDwTzAzhsdGHBeM8Ht8I+XeKzy2YhZ/tmCBaDLblqhhI5RNAApZR3/pSUkgE2CcTgjtusF7JtMKZr22asGP5yyeq9X9Ng5nH79fjh4/w0uAEjsR2Fq6ya/FqYITQpGdjgh+Ld55h0yAgEyADo2YAEF1RBLr4GotsRJilAtOq4WfVOKGGNtYKKXXTIRMwD6YwsynojWPXysWV5EJMNcECGplB6rB0hC8IUVju5AIr0K+iYlf9dJLJkBP8KuNGAr+ajBqiMcGj8tuigkGmweyaWbC83uQ2stA1uruqODXomwCMGJMJqBu8rhsIVkqh5QyE2Cy0G4GETBsxWurFvzqGn4h+DFQhn9OTXWEP5EpQgZcUIhv8mtxxtoPeSY3ZTlXX3vttctXr16lPQEMMgE6GDEBajBqhY3EsdAaFAoFzezAADupRoaH+Q0xMDxUcUPcXr3HTx4zsQwMg0WZv87pcRMA2f0JT/UcPyPZATIB7TEBaqqzA3lLH4RjOwdmvWN0KpfA+lpqDDZqApi+5EJBq9SqXsGPImJjKwyboXDFll0u+PFz2qaNwUYgE2AMLg4lNgGtFNqtxuhrqxb8jU7UUpf0rG9tQ4RdU9XnKt43S/c0dkzZdb96S38nefPNN/+WTEAJMgE6NGsCBLhHQEQkERSRIrrs7CtNsaiG3ww3FttgAgKVJoDRFhHeBSZAoD5+vJ6cHbtmsgNkAtpvAgQiO7BbdPNzTGsSDH99eLPCLJyJZuAomAC+qp+JiEF3P4yNBvjmzjEmJPRKrQSZbJbX6QvBv7oRgi1myNSCHwWEFmQCjCOzCbAAE4zKtV89TlIWut0E1CP4UYsYFfya4P2cTID0kAnQoVUmQE31mFGMJOMJprWFMrfLbibsxDaTAyagXSK8i0yAGhT5WmNiq7MDtRZXkQnonAkQ1BoRiqB4w9eJDcR9TifTxLvKb1qHrCagz2GBXJJ9FqpMAAr+/v4+GGYCH0sEyqv62eNBj1szYoioS60wso/Xt20mJNSCv5ESATIBxpG6J0B17ZdNMCIym4ABds5mU7vl19aM4Fdn4xoS/FqQCegKyAToYIYJEIgxo6EYE/+JrOZSGovNwW4l7Ge84ZkEmYB96jEBAnH8tu7Ps5dc4L0DaAQQrd4PNWQC5DYBfbYCBAOBUi3saBAC48fqMnf1U2oOltUEjE1Ow+TMafZ5doLXP1Ih+H3eQd0SAUQI/u1ITLPUqtkZ/AiZAOOQCTCOrCYAz8PZUw/AyPRpcDJhPzY+3pTgry6/awo8psIEoNZgmkYWyATso61GiI6DAsHmnwFr4AGeHiXkA8tLsEzoxhvfg+WbP+X9AwI0BpMnH4KHP3QJps88Bi53peDDizJGV4eHfBAY9sGJmWn2HHnyTpPcWoDN229AMrwKNtv+8UBjd/KRp+H0Yx+BwNRJ5dnuBgcP4Pbd7O4W9FszMHtsErwY1Xe5YezYSS4ksKxH/T4gQkBghHBtMwT3llbg+u17cHfxPiwsr0KYmQAUEnolPURnKBRMDjAQpoL3DGsxBwUmrDPhJfDa9+DMiePclGPGMjA+xRvwtc7XRDLFM3FLK2swv7AMN+4s8HMVy/AwCInlea2Gzv/ugFSHDmZmAgS1okUoEDGdNzw0BKOTMzAxew76+j0tikaWoEzAPo1kArSobj7FUiEh6jE7gGMOvSMTMOgtTUdRR2vEwqPN5dvsLTD5wkmZgEM3BhcyyYrJQpjlQVOHYD9IvaVftWh3JgAFRPXUj4mxIHhcNiiwf/Pu5gLENhbBAkUls1WKxIqaYHXJotiyrZXBNBvKBDRBPk2ZAIO0OxOgPl/RiIut2KOjQfCy89dWzEJ45TYfwbl/jXK3J8JfJ0U0Afi+MUp9HpQJkBEyATqMjQbPfvypxy4pD02h1o1ib/1d6LMWwOsbgv6BUp3fYaUmjdIxE1A9lUjQxSZAIJpPtZbIoYAU01HweKrBi3fo/p3OmACMCLdDgHeJCVA3BKO5w90BtfYOoLlDw1f7fKwUyWaagEoB4WICInigRECU9KBwwOZ2zG5g5G579S5s3b8NiXgcokwzdlLwa0EmwDjFTBwAv8gENIyZJkB9vuKivODIsGaQSNwzRCAicOwM5ItWiKzdg8j6ImzvJCG0k+6I4NfCwqcNymkCfvzjn/zt22+TCUDIBOhwbGry0U6aADx50vFSI+phYypRbOIUm0bpnAmo+nsVMDtQuomai5kmQE11dkAcP71oTSGOy3JMFliaJqBNArwLTYBAmLt6sgMHz8eDx7RVJqBRASEQEX7cshvbjcPWdhSSORsUMik+HSiTy0Pe4e2o4NdCdhOQ290Aq4UdXxlNQDZJJsAgrTIB6vMVS+9wmpb6fMVynnpq+MUI3b2CrbTIDKcr4WuT6TMnsQl45ZVX/urGjRuvKA97GjIBOnTcBKRRjOT4z7XGjIpSE9yomcsXIJPc4c/Xg2wmADlKJkCgFpDhPTtshfebJSuiNez9x2ONF3TTIBNgyASoOSw7IEq/amUHjJgAISBQ7IulW/UKCCH4cdTf1jYTENv7W3ZRXOBnEAV/uzYGG0V2E8CXSsmaCRAmAK8B7qDyrCQcQRNwmOAfGOhvSPCr7xnqevt8fIvfMywuyT5zEpsAXBZGJqAEmQAdOm4CUBApJkCNGDOaise4kBalJhiVHApO8rQ+ig+MRqL4rEWvmgDQiJiYaQIq6Gf/dp3pQBanB+yeIGQKdrDZLCWx02rIBDRtAgTNZAcOMwEoDLS27A77fRVLt/QEv3qut1rwYwOgEPxadIsJsDgGWpJJaTXdkQmwkQlokNyuIrT7/ZrHVS34cfFntUFvleDXJFHKIJMJqB8yAfuQCdBBVhMgwC21WqUmaAA8/gAEp09y8YHobbTt2UyAxvveLhNQa0SouJEEx8YhMDEDw+wLJz1kM3uHGrq6IRPQMhOgpnZ2wH8gO6A2AdWCf8jnganx0bq27OoJfnWWqZGSnq4xASb2VDRDPr5JJsAIkpsAFPWFXBby1j6w9bn5dRr7bUYDIwcEfy2Drhb8jSzJq0W5D4VMQN2QCdiHTIAObTEBDjdYnCWhXs1hJkBQHY1ERHYASxNqbbQlE7BPMcuED94gTUa3KZphTyyDf9ANo+NT/EaCG6UxmlyPoasbMgGmmABBfdmBc9A/4AGfbwgmx3Dqx3CF4Hc6DwqgagEh+kiqF/k0W8NPJqBJ+PVT8nIgCU0Afr4tKUUwSmQCRGBmZu5kqezWPcgb7VHw45SeZgR/q/ptyAQ0DpmAfbRDkkRXgpHIxWuvw/XXv8cXWQlQhKhn1mP/AKdQqkXHCxiOJB0ZkvCm2kOk4zFYu/s2XH31Jb53AEu+BDiFZvb8++HsE584MnPqjzp4Pt69+gPlfLyjPFvCOxRgIsJ9YKY3ggJCPdf71vxiW+Z6E82Tp1n8hrBViehOIO6DPncf5CMLkA/dgv5sCMb8+/1jnkHvgXM2k81WnK+4M6P6fDUS4T9S6AS+OkWL/NeRQK4jIxFtyQQ4scmouUyAFtXRSDQB6kZiMWbUbrfD2NhoOZU54Orjoy3NRs5MgBIlM5na//ZSFBHB8hLs/YhHQ3wWvd5kKKSh7ABlAkzNBGhROh83qrIDpeZCFBAo6FtdImAUygQ0Ca/P1r7GdBrKBOwjIvzqJvvhodJ0La/XC2PTJ9g90wnJ2DZssvNWlPk5+gcPnK/b4agpEf566YpMgFv/vtcJKBOwD2UCjjgYjbz905dh/q0fHMgOBEfHKjYMojgh5AIbwUV2AEXkkc0OSBYpMguRHbj20x/yiOHtu0sUMSQIExER/uDIEBybHOfb2c+dnoOTs8d4KR5m5PA+iFt31XhGJmH8zHth+OT7IJtJw9r823Dz3St0vtZJPi/vexOPx6PKjz0PmQAdEsnUkfqQVItJ0T9QncrMWM3fhkgYA4+bMHS4O0KgW+5FSAtmd0hAEEQJm0UVPbcYDwjUK/ir0SrpEQY9ljBhSlsLESVolibeN6J3IRPQg6CYvPHG9+D6jZsHIpH9wRNgDT4IFlwmY6XMgIygoVP3fghDh2B24OQjT+tnB5Q+EKJd4A26veUBBNELoOC326wNC35s2BWC/97SStdn5Gw4jkpCKowdIS1kAnoYjEZWgxfW/v5+GJ48BVMPPgWTpx7how0J+cjuJXl2Bw0dNhLXyg643Pr10w7HwfGTRKuQ8wbdrVD2pDfB+9JAv+uA4H/g1FzDgv/u4v2y4Mc6/m7/TFEzOtEMZAKICkrTEPphamKUNwsHJudoKk0XoDcZCsHswJnHPwIzF55ix3MW/N5BGA+OwOyxSTh7ahaOT5HJI7oDFIPE0cPZN8CDFRhwstm0Bf/c8ameF/xaUMSdaAa6ospKh+r7dkIrqrGGdYwZJaRCZAfEmFF1dsA3HITJE+fLBg/n0muNqCQIgmgHIsKPi/KGx2dg9vyTcO7cg3UL/rXNUE8JfoJoNWQCCE2qxWT1VJqadeeHQXXp2rTY+NXKDiDlhTa75m9KJohWQMKue1GX9AR8LnCmViG7dgUKkbvQB2nlTx2kluAPR0rbselzQTRCu8e4ygyFAXUYGw2e/bmLT3xeeWgKFscAWJwe5VElZswrr8bSP8x0Z2Xzr9ac/npn1mODai57+CQFrb9XUJorbO4JKu2eAPy3F1t/M6vYG7GXhmTeDptb27C5HYFwNAapvRx/XWCxMGeQMeU1cGrtCeAzpbeVB+bS7j0BWsg65172PQGwF2OfUXn3BBQl3hOQ20uAJduePQG8t8zVxyP8OId/LDjMSxDFZmyPxwsj4zM8o4z3l82lGzxQUWTXgYK1D8KxXQix69P65ja/RuEcfjQD2VyuIwJO2ln8jGJc+cy5/Oy82F9s1nFUu18s7JprscgTc37llVf+6u7du68rD3saygQQdaM3ZhQRdecnHn4a+ryjyrOEbEQ2V3j0DBfeqKNnaExQHDvGHuQToqgZvJVQc3Cr6JaIr4zjGs2aInOgaff41IEafqfjYNAHRT0GwfqCp2Dw2Ht4sALvK0tLS9JF+GkM59GCMgH7kAkgDCHGjFbXnXv8AXjg0Q/CA+//uYqttoS8FAt58A3YeQPemRPH4fS5hyuawa06WRuCILqHVkyRKTJRrhb8OFjgQNMu+301KPh3dhO6JT2JVEr5k3JCzbeNI/PUomQyScvCFMgEEE2hV3fe19fHTcC593+iPPVBD4wk4YKX4SEf+5kiLW0nn4HwvZ/B8rs/4mVfAtEMfuGpTx16DAmiHeC1gjBGo0K2OsKPgv/CudMVgl9rsICe4F9eXaca/h7CZqFj3A3QFVWH5BHbGKxJsXUNutWNxNg/IMBSIXVk2eXqqxj/htFnXPAyMdqmiUPUmKwJ1uaKY7g6//aBZnAaFdsIKLjUX0RLoHPXFBx2+6ERfhL8kkMBNMIAZAKISlrQvIPZgVpjRk+dOl0x/o3GVMpHaGUebv/0ZZh/6wc1l5DRqFiC6A4wM8szeoHJsuCfHAtwwX/m5ExNwS8miUViOyT4CeIIQSaAMI1aY0YFeGMRC16WVtbYTYQifTKBzeBY7vXOD7+j2Qze1KjYrqQ6wk9RfkJeitkUOKwFLvgHPW52zs7A7NnHyoJ/yO+rS/DfurvEBf/q+pYpgj+fJ/NgBHrfiGYhE0C0BcwOiMjy2vrGgeYwXPCyG2cC0+ZU/gtCJsTkDq1mcMoOEETnwb4qjPAP+wb5NvBAfx6ce5uQXnsHdlfehUz84AjeTgh+giDkgUwA0VYwsrwd2tK9sdhGToN1aA7y9kHlmTZB9ZR1U90MjrsjBCI7cOLRiwezAy3sQSGIXkYIfozwo+DHkh7sq8II/8T4KJ/FP3b8DJx5/KN8bHO/x8fP2auvfhNW775Lgv+IYO2SqUV6u3E6BY0I3YdMgKz0sCjF2dHeyTMwMP0eCEyfpjGjkiLKvd790XcOjor1+iuyAy73/mIn9TQoXCCEIubkzLTyW/PBkajmQ7sBeg2zSjOqI/xqwY8lPSj4a5X07GYssOcYAftgabpXaF2+OfwVk4soIEOYjAUXYxIcMgGEVHhsmfJN7tSJGZg8cb6uMaNEZ9EbFYuUF8mdf+LANKiRYb+miOkuKKpEMCFra/52KgS/MMdaEX6jNfx5ivATBCeRSNCeAAUyAZ2EyiMOEFu7De/+8L8eOma0aznijc+1RsV6fMOa06BQxGSy+yVFBNELoODvczo0Bb+eOaYa/vZDzbfGyOcpONINkAkgpOSwMaPUhCo/WsdQiJjtcJRPg5pfWOYiBpvDuwNKIxPa1BKLKPgHPQMHBP+pueOHCn48V0jwd46KDA+VKtUNLQvrDsgEEO2ngQxIrTGjvTmisvsoH8Mf/VVZxKxvbfNpUOm9DBcxFpsT8n3D7IrkUP4rguguUCw+/KHP8uDEoHe/30UI/uNTE4YEP54rJPg7R3t6iIh2sLm5GX311Vcvh0Kh/dX4PQ6ZAB22w5GFxeUt+qBIhHrMaK0RleomVKIO2hjdqiVinP4psAXPgsU7DdDnVZ7tZihrcJTJ5XJ8Dn8xHSsLfgRn8c/MnSTBT5hORZ+HhbIUanAAxUC/Cyz5XPTFr33tq88++6z/l3/5l4f+yT/5Jx9ZXV19S/ljPQ99anRIp9Oxl757+V/eXFhf2Mvm4czs1FnlVy3D4hgAS5/2KEy8sUB+T3lkDpb+IR6BVVNMbOH/lh6YhNbfKygmwxh6UR5pg5Hl2NYKLzEpsj+LJsBmL0WQcRTeyOQcLxPK5QuQSe7w59VYnIPsq3LiUDGXBtg7+GdbjaV/mP3btaPdxWTo0H9707AbhdVdVUJVzLO/++AM8ZZjtYN1YER5cBAsmejv74ORwBiMTs1CYGKWX8h3omH2vXWC2uIOgkVnM3YxFWFOxWh/Qv2v0WLvB4tLPrNaxHMAzwV2flrZZ1U2xPFp9/uHn0Os3/e4B8DvHYTAyBAE/G6w7EUgsXUPdjcX2PU6w/+sa2D/mo6Cfy+ThZ2dOMR24xDajsBGKAzhaAziyRQ3A1k0E20YWVjMJNjFk30dch52hAJ7D1Ls2s+wDATkGinJjk3pvsheW417VyfAK075tbFjqndv6Qi5vZKOYVg9Y/y7WeD5if1mft8gjAz5+SZsvgzP54VgMOD6xMc/+uTPffKTn98KheDWrduvK/8ZwaBQVZ0M+f0zn3r2wy/8+uc++YLyVNPgSWsdLEWPqslHF00XpVbf8QM30vzmu+yqYq4QxT0AOAZUi/zWDUMibGjsOJ8e5AtUThDa29uD6Po9CK8vcfOAWDwTB4RwgYmL4s595ZF5WIdPMfPXrzyqxOi/vSGsDh5tV1Nk4qUQuqk8MhG7i++B0AJfQ392mx/D4PTB0i48fjvba/yrWazBB3VFRj58tySUaqIn2LQup9p/1uIaYuffMeWRPBRiy+zGzYS2ww22YflK7PLheX58zHz/UFA4HXZmSvu4MXUxcYHfqyP6asLrixDZXIFEdIOPNPZPPwhJdipnsjlpIvrZnTWwpphg5OfhGeVZOcCMSiF8m/9sDZyVSmhjOVAB74sM6/AJ3XtXJ8jlmCEOXec/W9m1Ve/e0gnQABRQxzBs4w/z760Az088HzHLhueow26D/n6X8ltt0IzjuZhkxjvDTPcvXvqli3fu3HlF+XVPQ5mAOsHMwNVrN7/74l9858uYHQiMDM+OB/zjyq8N0fFMADMAFnZDUNP5TICxaHg6EePZARSLiNtbimLa7Xbw+ANcWIp9A5k8u5CwnzFVKCIHA44i7IY3+O/NhDIBOhFI9hoykWWIRzb5ZmIEszsOZ+nziRke/+g0N3tIcpcJVYM0nwnQi50coUwAExNWl195Vh5anQnQivCPBYd5KY930M2vEU6Hg/85NdUR/t0U+/xaXFCIbwJu104XHJC3OKRaSlTYi4Mll6x9HnYKygQYwsKv3aUJbNJmAti11uoZVZ5sjOoIf4CdlxNjAR7hRxPQx8yAgxl2NfVk3771rW+9GA6HSw6lx6FMQBOcOjH34c/+/MUXPnXxfZeUpxpCykxAG6LRZmQCtEDBiF9oAg4DzcP9Wz9VHpkHZQL0MwFarwHLurDpuzrDg+Axwz4R3ELdCM1nAhAtcXeEMgF9XrD5Z5Vn5aGZTICRCD9SHUXk3zUi/DxivKVEjH0z0pk8ygQYQ+ZMAL9u4n2DIW0mgJkA29gF5Vl98Py0Wiww5PeWIvzsXEUDUAtxbqb39viQiTQT+GLYRC2+8IUvUCZAgTIBTRCORBd/9MaVP3/pez98MZ7KwYjPN+73uesOn0mZCWhDNNqMTIAWmB1AkVidHagGLySpeJQyAWZzSCZA6zWI/g9xDDEzoO7/wAlRjWYH2tsToB1nkT4TYO/r6kxAqyL8m1vbsLkdqYgi5tif0YzwY8Q4qUSM2XtXfW3tNJQJMIjEmYDSdVPOTEA+kwbLHmYCLAcyAeL8RMGvjvDj93KE364d4Y8nkhDd2a2I8OOkuUb6aygTsA9lAlrMB554/NeefuLhS/VkBygTcBCz/34UjL6xOcgWLDyqJyIH+VyWXeg3TBfDlAloLBOgBR5Drf4PpJ7sgHmZAKS+bABlAozhzIQgFVmteP9EhN9ut4FnYKDlEf56kT0TUNhdLQlGCTMBOWb2LdE7/GfKBNSPzJkA3IvhsWVgJ7wJ+YFx9thdjvDj+XrY+YmivtEIf71QJmAfMgEmUU8jcS0TULoZm7vZuhdNAGJxj9acVsCbhPFmiRHRFlPTBGzfNuXvrOAImAAB9nhgqZBWI3F8Jwo7W8sQWtlfNCcgE6CP7CYAx3A6rAWIbG+Bvd/fMcGvBZkA41A5kDFkMwH4XqHAH2BmfMjv41H9euBRfHY+JlKplgt+LcgE7FP7ykkYpp5G4prlQCItbyJ4kzrK5UB6WJzuAxdykZ70ej3gHwrA+PHT4B8Zh1y+qDlm1Cg1y4EwHV7IKY9MosvKgWqBDZiikTiTLk1+EuMZnX0uGBweg7GZs1C02CGf3YMc+0Kqy4HUxz4XD/E/ezh68RN8/vB0NJUDHQ4KilJzYRQGXA6Ynj7GBb/D2Qcer7+ukp5IdAe2tsP1l/Q0g+TlQMXMLjO47DyxsWMr2fhXzMRa0lQO1DAdLAdSXzcDw0PQb81BJrIE6dACWPPpUk2/5+A1BM+/DDs/tyMxXtKzvrnNz82d3XhDJT3NQOVA+5AJaAP3V9be+qvv//D//sFPrl22OZx+sXPAwi7G1UJge3s7evv27Rupna20391n6l2YTMA++WQY3JYUryEeGgnyekTcPzAUnOTRZiu7KaHQROHZDB03AQyru2pSQ5eaADV606EQj2+4vDsC+wmK9gHw+bzg9bhhLDgCo4EhXis+yI49/n+IUbLGqC+5SiagErWg8A0yI+4bhKmJMXACM2SZOJ/DH99eZebNUnFsDxP8GFE0RfBroTYBXJBJJBYZ+yZAvh0QlgKavVJPj8U9ptuz0wnwM2YpC21mUCSqu2+XCVCfn1jHHxwZrrhuYg3/gMcLIxOz4PYH2G0sC+v3rvEADRq8eM5WIfixpr9dgl8LMgH7UDlQBxClQu99/NGLdk8QXn/99ctra2sL165du8w+mAuYRfiNL3z+a5/71IeeV/4TU6ByoH3UewJqlZmgyGxmXn3Hy4FwUsPoeeVBiW4tBzqMRqZDCXAbtX4/QT03qzozAT1cDoSColQy0A9OZrb590NqhDPpBGws3YbI+j3+2DdxCnIOf8tLepqhohxoSK6yEaRcDiThDogiM3qFyF3+szV4XqpMgNSz+NXlQLhtvQXGU31+4rQeLzPl9dTwZ7LZUkkPM9/4lYquQy6yVLrn1DEdqJ08//zzF+fn56kciEEmQFLIBJiHlgng48xipSiyGj0hiVkBrDfXqjmvBZmA9pkAQS1TJ2rFd+MJ3oS2u3IN8uld5bfVtC5i1SsmwIjgR9Q1/LwxkB0bfJwNsXMER4QOBHT7qToFmQDjyGwCKoT2ETMBRs9PteDHczORTB8w44VUGIqx+wA27EM7pzwrB5/73OceXV1dfUt52NPIc6YRFbzvPRcuXTgz86jy0BSoHEgF1h7jOLMq9MaMYlmJqDlHkYkpz3rKSDrfE2A5kuVAtajuHdgr2mE7ugOhcBTWt7YhEtuBZCrN61TzbRjNixzFciB1yQCW9IxWlVphDT+W2eGfU6Mu6QmFI/y46JX0lEeE1uin6hjqciDZascZMpcDAROz++VAo1KVA5WuTaXsYLvr7g+D91KkStdNi7t2L0Uz5yeW7kRju7AdicLqRgi22TmKJT3iuqlV0lPMpUoTDtlrsrqDyrNy8Jd/+Zd/vLu7a/5M8C5AojONULMbT5k7GqiTYMNfl4ECf+3u23D11Zdgdf5tSMX3DQPOqj/5yNNw9olP8IgzIS9o6DZDET5XGsVlNTb/DFi80zwSbpzuTbDm6yytQaGATbrDQz4YZ2LixMw0nDnBzoPZYzAxGuDCAhf9VEcUhaBAEbG0sgbzC8tw6+4S3F28zw2ZOC6ylPgQhMyInSnVVJ+f0xOjdZ+fGN3fDIX5+Xn99j24cWcBFpZXYYsZczw/6dw8WlAmQFJwslB1I3Gr6VgmQOPvFciWCdACl1KF1xYgHg3xi7CYSFOdHcCos5hII6BMQPszAdXUWhaGYLofo+AO5wAMplchnsfoWCPC/vA/K2smwGm3QD7FzgNVJkAdQXQPuGB8NNiSCD9GEBtt2qVMgHEoE2AQiTMB/S4XnLnwHnbu2aB/cBh8VYvxxPmJ8/kPi/BvbIW5+D8swl8vlAnoDqgnoAsQjcSXPvnU8wG/xswtg2DE08puVmra0hOg0YsgkK0noB6s7KaAwh+XV+FEITVoFLZWF2E3tMwfV/cEiIgNzlPeuvMTdi9sZjJNHfRgT0A1tfYEBDffhEBuEfqyO+DJbCrPAqw7piBkH4NtR5WB0gQvq7VvnrL2BEyOB2HI54WN5XlweoNcPDRSwy96K7Be2Iym3Xx4nglZ6gkwAvUEGEOmngA+Npe9HmsxB2NTs3xPRj2z+PH8xAybqOHH81MrE9pKcvFtsMRXmOmkngCZoUxAFyB2DvzFf/nrP8SdAw6H0z87Ndp0156lz3vggtbxTABGg0yOhjebCaimyN4vrDnHJuED8+qVMaP+8RN8o6nd5QGfz1dalT7khYmxkujCC3l0Y+lA5qDlUCagZiZg6p3/Ar7bfwvOXJydG3awKOLXU9iF0dwajGfYTY2xa2/Oi8uQCeCCQpnD32fLw8zcSR41RGOKY1WxXKBWhB9HcmIEUR3hFxFEs8ZyUibAOJQJMEiHMgF43mEGDsdW+5UI/4iP3bvY+xTfvMvH5uL7hhlop8ut/Ffa5yeW2qkj/Hh+mk0hkwILfuYoEyA1lAnoUurZSHwYmpmANkyoqZkJaMPf3+pMgBa1JtLocevNl3kjsqlQJqBmJuD0638MQ2v7ASKr3wPWwQGwevdvsgLMDuBXzN64oGp3JsCWT4MrFwNfchlcyVXw5sL8cdzihpB9FFb6SjEFnISFn1ux5KddEf56oUyAcSgTYIx2ZAJyuRwX+2IkZz2bsMPrixC6P8/vGXi/cU9dgGy+YHqEv14KiS0o7q5JmQn4O3/nc4+urVEmACETcAT4wBOP/9rnPvOxFx49O9vQNCEyAfu02gSo0RozKsQVCiu8aOOq9OTqu1QO1AYaMQFlsCRmxMtNgcgOCNKWfrjvnCkL6Xow0wSoBb8vtcRLm/CxvVA7y3Tffhzuu+Zgz9oPnuAMFPuDHRX8WpAJMA6ZAGOYYQL45mt2TXH399cl+BFNQ57chexW6brZqj0BrUJmE0DlQPuQCThCnDox9+HP/vzFFz518X2XlKdqQiZgHzNNgACjNf7jFyCdLXLhXy2uSjPaTR4KRSbAmAlQcVh2AA1BwlZ7ulCrTIAQ/O7dezCSWa1b8Bfxs5djX+kMFJmYYAqDies83Jz4AGz6mUA0cVlYM2RCd9i/OUkmwAAym4BcehcssdIiuKNmAlDgY2kcln02KvhxT0YildLNwBWzKSjgPZNBJqB+PvOZz8xGIhHaGMyQ50wjmiYciS7+6I0rf/6t7/3wxXgqB49dOPWk8itNNHsC2jChpmZPQDv+/hb3BNQLzqtPF52QK1o166X5+yJMGbu4mwL1BNTsCRhZ+Qn0x2uXihaZcC7sJCAfjfPH1oH9zzL2DkxmlyGQ3QBrsaDbO2CkJwAF/0B2G4ai78Dx6BswHX4dZsI/hKnomzCSXmS/C4Mzn2B/b2W9Lxf8TOBDIg3FeIp9JQFi7CvJzHYmyz777HeF0udxwzMDKfwMGtgT0BZ4zxD1BBghl4qBJc+uKxL2BFjYMT0KPQEo8J1OBwy6+2FsNADjoyN8Sg+O6sR+G6fDodtjY2iKFrtX8nsmw+IZk+p9K2L/SYZdI5mhk60n4Bvf+MZXsddSedjTUCbgiIOlQs9dfP/zH37iwkXlqTKUCdinHZkApNa2ZIGYGNRXTEI8dL+1fQKUCWg6E6AFzw7gF7v5V4OZAcwQqLMDh2UCRIR/JH4H3HsbPMJvT2+Dy1q7oU8vwl8v744/BWH2GZU1EyBzOVAOFzdtX+c/UyagMaTOBGAD/fYtHsRRR9vxGo3XahzqgF+NRvh5GeheaRO20ZK7ikwAu67L9L6VMwF43Q+cUZ6VA8oE7EMmoEfQaiQmE7CPDCag35KCiakZ6HdXRjirx4w2BZkAU0xAGaV3wDZy8PMdtQ3Dov04RPvGK0yAluCvu6QHBf5e1pDg14LKgYwjezlQNnofrHth6U2Abexh/l0WcAb/udOzvBE3ZxsAh8PJm3cbEfyZnPK9CcGvRW6PnQuRO/xnMgH1QyZgHzIBPchHP/zU3//Ms089/54nnn40kixE79+/v/D6669fXltbW/jVTz/zwsx00NS7P5kAbXEg/u3YROwdmeB7B9TgingcQ4qGoGC0XEhWE8AF1DXlkbmYagJU6GUH0gUbhNwnoN9abCzC32LBr4XsmQCZTYDsmQCZTUDp+lvSZJ02AbnMHtggC1Z2XRwZn4RAcFwKwa8Fb6gOKw3VkpmA7O4mWBPrZAIkh0xADzM5MfFIOBJZUNfGffX3/8HPGp0y1ChkAmqbAEGtMaPh9SXY2V7jXw1BJqBtJkBgcTm5GdDKDmjRLsGvBZkA45TOI6WBVMZyID54IEImQIUovSyV8+DiLXaNYoJ/6/4diLBrLJZiun0BCLBrsC9Q+rx1SvBrQSbAGGQC9pGo+4ZoN6tra2/1ZHNMVeOkrGT3krB29224+upLsHzzp7wsSDA8fhxmz78fzj7xCW4UCHnBRuL8ehgy796D3MoWFFL7ZT4o+Iso9neSUNjegcJmBIprYSiGYlDcTfLa/nYZAKJHkEgothMU/NicGxwZgmOT43Di+BScOz0Hc+z7aGAYvIPMHCkR/+D0KTjz3o/CzIUPMlfihMV3X4err3wT7i0uwa27S3B38T5fwBWOxDQnvRHsbbO0flkg0XrIBBAV/L9/9u0vvfLGO5eVh4QkRDbYjefqD+D669+DrfvzyrOljcSTJx+Chz90CabPPMajVoS8FKJxyN1dhdx9ZgaYMSDB3xg2C4kt4nCqBf/pE8cPCP5+9ns1GOFPpfcgEtuBtc0Q3FtagdVwElKW/VHAiUSCBP8RwIxt5t0KmQCigqvvXPvW7/3zP/rIZ3/9H8/+P3/+3a8qT7eUYpEuokZRZwdW59+GVHw/kYPZgZOPPE3ZgS6gmEoz1UHnAUE0S7Xgn5kePyD4cTSnGi3BLyL8q+tbPMKfZOcoCf6jSTpt9kKe7oFMAKFJJBpd/A//6Vu/ffFXftPyf/zr//jClRsLV5RfEZKATcK3f/oyzL/1A4iF9nsDqrMDLnd9tegEQRAyg4LfbrPul/TMTB8Q/B73wSV+JPgJQhsyAcShfP+VH/7LF/7pP3/Pr/+Df3HxO5d//JLy9NFChjpZi7HXkIiFYPHa6+VSoUw6qfymlB048/hH4MTDT8NgYH8uvTp6Nj5KJURECYvdrvxEEO3D5fEdCFbgNQqbdqsF/wOn5vZLelx9yp/eBwX/zm6iLPiv375Hgr+T9GgPSrdAR4eom0Y3EuuhtalYgFMicCOomWhuG81n2N9tfoaw1ibRYqq0DdUouMwmHtnkGQJhBFwDpX8nZgeGgpPgH58Dv88LE2MBvsYep2L0OZ2wtXyb/zlTqbkxeH/bqtk0uzG4FVhsVrBWlSjIwJZ3FlJ9TIxJujG4mNpmH/ScpBuDVZtlJdwYXNzbKU0fk/DYDgwMwIkHHuY9TV7fEASG/UzoD/Ftu/waxcyAQ8OgouDHjbrbTNyHtiOwvrnNN+3u7Mb577K5XPP13+qtvO6AVBN4+H0L7xsM62DlSOlOU8wkAPBLwg3VX//61/8gl8vVXsTSI1AmgGgYdanQP/rn//75H7x5jRqJJQMbidXZAQHeTLWiZwRBEO0AI/y46Ta7sw621CZMBgZhanyU/87jD5Yj/NWz+VHUJ5Ip2AyFKyL8C8urFOEnCINQJoBoivsra299/wdv/Ekj2YGamYAmo+H1cFQzAVqI7MDG4g2eHbDZHZBnpz1Gz6KxXX5D3QhFoFjIARhdQFYvlAkoQ5kAY3RNJmAgwI6xXMe3E5kAFPx9Tgd4vR4IDO9H+MfHx8FpK0ImEYHQ8k3YDa8zAZ8Ht7cUMc5ks3z0prhGiQh/dGeXi/2WRPjrBJc0WtJyZgLymT2w7JXuW9W7bzpNLrULllySMgGSQyaAaAm4b+DqtZvfffEvvvPlpY1o1Ofzjo8H/OPKrysgE9A+E6AGF99ENu9DLOc6cDPF94PfRPC1sZuxKa+DTEAZMgHG6J5yoJGeMwFqwT/k90JwZLhc0jPoHiiX9OCfQ/o9fhgenwG3fwzisW2IrC/wYEU444LtcLQjgl8LS1FVDsSukXrXjk5gyadLJbQM2UxAYS9OJqALoHIgouX0RCPxEQNvzNgoPDZ9AmYvfBBOP/4xGjNKEIQmeL3Apt3hIR+P7mPT7pkTx+Hk7DGYGC31G2mV9OBoTlHSs7Syxkt6FtcjsKeaxS9bSU++QDPljUDLwroDMgGEady5e++Vf/FvvvbZw3YObG9vR1999dXLX/nKV760uHx/QXmaaBPFQh6cyRUYHrDuT91wD9KYUYIgKgT/eHDkgOAfY8/VK/hv3FngNfxb2xHYjSfLgl9moU0L6o4eWLmg/NjzWJTvBNEWPvDE47/2oWeeunRzfunK3bt3r9y6deuy+oT8/X/0xZeffvzBi8pDU7AMjIB1cFJ5VKKYiUMhck95ZB7WoTmwOD3Ko0ry4bsA2YTyyCQsVrCNnlcelEATUNi6xn929A3wDIAvMMEnCqmJR0OwtboIu6Fl5ZkGsTrAFjyrPKhE/RrMxhp8ULeu9/TrfwxDa28pj8zD4rSDbUC7JK6TXJv+MGwPHgPo84LNP6s8Kw/57Vu8pAVr7qvP4U5TzGegELrBf7YOn9YteewUhdgyFNORmscWBb/TYYcB9tl02pXv7HG1wK8GBT/W8KPoT+/tMZGV4WU89ZJLRsGyu6Rcny4oz8oBvzfgtZlhZddOmXoCsBSoEF3kP9vGH+bfZaGws1oqj3O6wTYsV1b5mWeeIe2rQJkAoq289sabf/KHX/lXn33ppZe+fPXq1W+RI28zh2xrFhuJb7zxPVi++dOKJWQefwDmHnwcHnj/z8PYzFluGAiC6A7c7PzN5fcj7tUR/umJ0YoIP9by1xPhn19YPhDhb8QAIFaKth9dDO6/IdoDmQCCIDSpNWYUTcC593+Clwp5R+SaT00QRCUo+IfGjsNjH/klmDl9AWaPTR4Q/D7voKbgx9GctQQ/ZgAIguhOyAQQUvGTqzeP9s4BnLzTZYjswNVXX+LZASwLEuBG4tnz74ezT3yCGokJQgJEhL+QCkNhdxX6CzE4NurjzbqIb3iML+CqV/DjLH4S/ARxNKE8DSEVN27ffaXZjcSH0dERoS4fWOwu5VEl7RiPihwYJdfAeE4+ZnRjiZcJYVOfmOuN+wcGmbgQZUI4WxvNQwUWG1jdAeVBFTQiVApoRGgTdGBEKAp+HMvpcQ+A3zsIgZEhGAsO88h+IMA+5/k9SMVCsLV8k5t3PE9xizgK/r1MFiLRHdiORCEUjsImE/o4ix/HcuIekRz7M+2imEsB4AhTi4VdI0qLw6RBtZXXwl6bTCNCIbdXGhHKXpPVI9f7VtzbBciyewBeS/rluZbk8wV48cUXv6w87HnIBBDSod45cHNhfcHlcvmPTwZb1qVIJsC4CRDksnvlJWQo+O1OFzjYF9Lv8fEMAZYfIMnd0g1UywTsi5h+SIVXlGfNhUyAPmQCmqANJgAj/P39fTDs81YIfpzohSN+newzhecUYrXa+AZePzsPHQM+CK8tQGxzCUKhLQgzbVYt+Ds5i59MgEHKJoC9b5KZgFwqBhY8rpKZAKvVAl/72tfIBCiQCSCkxshG4sOw2Pq4GK+ATIDyoHFQ5KPAUEcaEa3sgN09rBm1dDMBs7V8m/93ZkMmQB8yAU3QYhNQLfjHR0fKtfvVgl8gIvw7O3Ee5d/aDvMIfzyVhSJOHsvvsROTXX/6SqVBskAmwBj5TBose3KagEJ6R0oTQJmASiSytAShTyQaXfwP/+lbv33xV37T8vv/5k9fuHJj4YryK0ISErFQRSMxin4BZgZOPvxB3og4NTFaEv4adckEURdHbOIICn7MiOGUHmzaPXtqlp8rx6cmdM8VUcOP23VX1jZ5Df+tu0u8hn99a5tv3MUaftmWb3UbedVEJaJ+ZF0WFo1GzI/2dRFkAoiu428u/4BvJP57v/evL9FGYvkQjcTv/ug7B8aMqlGLmLXN/WZjguhGMMJYDyj4MZI/7BusEPyn5o7XJfjxXCHB3z5stv2R8jLtCEBotCrRLBSGI7qWza3QzR+9ceXPGy0VwnIcKgdSYWJTLjYSx7ZWILy+xG6gVkhlLRVlCliXHMcFQ+m0aa+hGioH0qdryoGcHt2le52ir88FA06AvVS8XA6Egt/pdMCgux/GRgPlkh6c1DPocR9a0hPbjbPr3HbFuYJmwEgNP7++5ffY9af/4PWvw8hcDpTPsPdsr3RvOHDt7DAV75t0jcHsdeXS0pQDbW9vR2/fvn3jr//6r1+6evXqd5Wnex7amkYcKXAj8ac+9oHna20dtjBxY/UdUx6VaNvGYN9x3RtwWzYGM2xjDyk/lWjbtt4aG4MR3LiKNdXFJBN6JkIbg/Xpmo3B7jHpBJmDCXqcvZ9MJiCdSoLPP3xouRsK/kw2x/6bFGRyOWaG90yL6OejC1wwWlxDB65/nQbHmRZ37rMTQ8KNwTJv5cX3Laa8b2NyvW98QzUGtvBaMtT+a8lbb711ZXl5eeHNN9+8vLCwcOX+/ftXaDnpQcgEEEeSIb9/5lPPfviFX//cJ19QniqjaQKyKSiE7yiPzINMgL4JUIPNbpbMDmSTrc/OkAnQh0xAfRSZSGeHkGnqLR6NHZs4BmPHzyi/1UYI/vReSeibKfi1IBNgDDIBxhAmwNJv/ucNBX8sFov++Mc/vvzOO+9cJsFfP2QCiCPPxy8+/fc//fEPPv/o2dlH8TGZADlNgKfPCkMjo+ByOXmZBJJJJyG0Ms+/WgWZAH3IBBwEy3WwrAdr9V19fey7qxzhj0e3YGd7rfz5xIV5OBrX2T/YUcGvBZkAY5AJMIZZJmBzczN648aNKyj45+fnr9y+ffsyCX7jkAkgeoaHzp/7xec+8uTzn37u2UuR3ED0/v37C6+//vrl1dXVhWR8N/p//s7zLyp/1DTIBGibAPEa3L4AF1K+wITym32wrwDFFvYZNAOZAH163QRUC361IdVDRPjv33kbUuFl/pxj9EEoWOz8Z1mQ2QTkEttgia8o14hzyrNy0BUmwCbf+9YKE4B1/O+++y4X/Hfv3r1y69YtEvwthkwA0XO4XCUVrr6YTE6MP/Kn//p3TR87SiagtgkQ4F4BNAM4WhT3DajBfQTq6GujkAnQp5dMQLXgx/5cj9ut/FYfbMzNMtGfSGFD+36Ev5RNLO26sA6fBotDruNLJsAYZAKM0agJQMGPgbm/+Zu/eQkFfygUWlhdXTX/YtzjkAkgCAaZALlMgBosr/COTGhmB3Bj8dbqIhSYAKsXMgH6HFUTgILfyu52Q34fF/wOhx36XX3Kb/XRE/xakAkwDpkAY8hsArLhRbBmYpomQEvwh8PhBYrytx8yAQTBwOzAr/zCJ7+k1UjcSmqaALzRsJu02XSbCRCI7EBw+qTyzD5YKoTZAfw6DDIB+hwFE4CC38lEPo7gbFTwo8DfiScM1fCTCTBOIbEFxTg7d8kENITMJuDLX/q9F8aHPbOXPvVzz6/H87z09s6dO1cWFxevkOCXBzIBBFHFZ37u2d/76FPvuSQaiVsJmQDjJkANZgfQEPR7Kt/LehqJyQToI7sJ8Nr3ILJys2wCtAS/1WKBvj6n8l9oIwR/IpniX61o2iUTYBwyAcbIxZUMiiQmQET4UfB/+9vf/mokEim9cYS0kAkgCB1w58DTTzx86VMX33dJeappyAS0xgQIXG4fNwR62YHIxhIkYpXbiMkE6COzCUDBjxt2Maof340x3eOqS/BnstlSSU8LBb8WZAKMQybAGPx922XvWwdMgBD877zzzhWM8NMs/u6ETABBHEKtnQONQiagtSZAzdjMWd47cFh2QG0CqiPJw3/1B9B393X+OzMhE1AbcVyS4RUmrhMwFJiAwPgx6HcPKn9CG7Xgx/GciWTaFMGvhewmIBu+B9bsLpmABiETUAJn8eOkntu3b5PgP0KQCSCIBqhnI3EtyASYZwIEaAQwO6A3ZjRn9+iWjvT95y+B/faPlEfmQSZgHyH4B9j74bDZwO0e4I9xFn8mneDmLRZag+xeUtUkPslHc2JUvxOCX4sKExA4CxZb7QxFu6FMgDFyyShYdpbYSSvhLH6TTIBYvvXyyy+/RIL/aEMmgCAMMDEx/sjHnn7/841mB8gEmG8CBLUaifUgE2CuCVALfhzPiWZMCP5aoOBfW7oN4fs38cNi2p6AZiATYJyuyAQcURNw+/bthbW1tQXattubkAkgiCa59Klnf+/iB+prJCYT0D4ToEZrzKhWJPnka39EPQEtMgFqwe+0K9/rFPzq45JOZyCby/HfZbZugq2wRybAAFQOZAypt/I2aAJo+RZRDZkAgmgR9TQSkwnojAkQYHbAPXke0plcWViqmbrxbfb1HeWReRw1E9CM4Mdtu7s4lpMJfqznRwOgB5kA4+TD83wPCZmAxuhWE1At+JeXl6/QtB6iGjIBBNFiajUSy2gCkPzG28pPJiKBCUBqTQdCnMltGJ//Pv8yi242Ae0S/FqQCTBO2QQMBMA6OKk8KwdkAozx7/7dv/vqnZvvXvm5jz3z/PDUaT9t2yUahUwAQZhIdSOxxTsN1v4h/juBGLU2aIn7Z8a8pndjkgmobQIQIXRnQlfAc+sVsC1fVX7TGmQ1AYvnfxkWi4Ps9Q1wE1At+F2uPl7L3w7BrwWZAOOQCTCGbCZA3C9ee+21yy+//PKLJPaJZiATQBBtQDQS//Lf+ezzKxvxinXp4iL+O1/8wjdbuZNADzIB+iagD9IwEgjC0Mio8kwJS2wdHD/5Jv9qBTKagCIT/smLX4Tc3PshFt4Au8trWPDjYzMm9eS3rjNVliUTYACZTUB2dxOsyXUyAVUIwY/Lt9h9YuH69euXadsu0UrIBBCEJJAJ6LwJECVZpUbicT6Kshr7298D+0/+M9g27yrPNE6nTQAK/sLgKIRyVoi7hgDGzoDnzAfBNVJbHArBn0ymIJFKmSr4tSATYBzKBBijXSZALfhxWs+1a9dI8BOmQyaAICShXSZASwSTCShR2ZdR3B8zOnVKeU6BXTmtS2/xcaJGsgPtNAGZgoW97zOQH5llX3OQD5S+g9MN+VyGz+EPbyzxOfxuX4D/e33MDOTZMRGCH0t5MMrfTsGvBZkA43RFJsDuAtvIGeVZOTDDBAjBT8u3iE5DJoAgJIFMgHwmQA1mB4ZGj4PHH1Se2cfxw6/zDIF1Z0N5pjZmmgAU+wXPKOQmz5eFP/S5ld9qgxH+jZW7EFq+yUW2zT0CVu+xjgp+LcgEGEfqTEB8A4oJdu4cUROAy7eWl5cX3nzzzcsk+AmZIBNAEBLR7EbieiATUMsElBYq1UI3O8BAI2C7/SOw36m9cKxVJsCo4OcR/lSq4jsK/vK/v40bgxuBTIBxyAQYo1ETILbt0vItohsgE0AQEjI5Mf7IRw1sJK4HMgHNmQA1mBlAQ9Dv8SvPlCg3Er+pXSpkxASgyC863ZCdfaIlgl8LMgHGIRNgnK4wAYfM4p+fn8fSHlq+RXQVZAIIQnJwI/EvfPyp508eG22JKiMT0DoTIMBaetxIHNDJDjje+V7FmNHDTIAQ/KnxC2CZetCQ4Mcafqzlb6Skh0yAcXJ7SbBE7/CfyQQ0hswm4D/+xz998ac/ef3yh5987JJ/Ys5P23aJowSZAILoEurZSFwPMpoApC2vgWGGCVAzevws7x9wuipFu8gOON/8ZoUJSLtHwe4N8pKe3ASW9cxBsQ7BX5q9XxL6RgS/FmQCjEOZAOPIZgJE4y6OcsaSnjt37ryi/IogjhRkAgiiy6i1kbgeyASYawIE/lEcMzqhPWZ0/jUmEq1M9F/omODXgkyAcSgTYJxOmgC14Be7W2g0J9ErkAkgiC7GSCMxmYD2mACBaCTWKhWqpp2CXwsyAcYpZuJQiJR2R5AJaIx2mQD1LH4czbm0tHSFBD/Ry5AJIIgjQCONxGQC2msC1GB2AEuFxJjRdHoPMrmcMou/vYJfCzIBxiETYBwzTIBa8NPyLYLQhkwAQRwxsJH4sx9/+vmZY0FNFUcmoHMmQGDzjHIh1knBrwWZAOPIbgIyoTtgyyePpAkQgv+dd965cufOnSv37t27srKyQqM5CeIQyAQQxBFFr5GYTEAtE4DLwszXDRbXEFh9x5RH8iBMgLSvj0yAYY5KJiCXywGO5aRtuwTRPGQCCOKIU91IrBbBGEHDm+lTDwyZtpysDJmAMmQCjEEmwDjdmgkQy7defvnll0jwE0RrIRNAED0EZgfGJo/N4hSMra2thbW1tbfw+ct/+UdF/gfMBDdujp5XHhykbSYg8ICuQCMTQCbAKGQCjPOVr3zlSxurSwtPP/neS/6xGT6Ln7btEoT5kAkgCIJMgAKZADIBRpG+HGj7FkAuLc17J7KQKPjfeOONl1ZXV3lAgiCI9kEmgCAI+JP/68v39BqJWwaZgDJkAoxBJsA4nTQBasGPWcjl5eUrkUiEnWwEQXQSMgEEQXBatZFYl64xATgdyNzECJkAY5RNgGcCrO7SmFVZqDABwfO6fSedol0mQEzqUS/foig/QcgJmQCCICpodiOxLmQCypAJMAaZAOOYYQKE4MdZ/G+99dZl2rZLEN0FmQCCIHTB7MDnPvOxFx49O/uo8pRxyASUIRNgDDIBxmnWBKgF/+rq6sL169dp+RZBdDlkAgiCOJSTJ+Y+/IHHH77UVHaATEAZMgHGIBNgnEZMgFrw07Zdgji6kAkgCKJuXC6X77mPPfNCrY3EupAJKEMmwBhkAoyjZwKE4KflWwTRe5AJIAjCEA03EneFCSiJYLMhE2AMMgHG+dznPvfoE+85f+mBBx54tGDrh5/97GeXSfATRG9DJoAgiKaou5GYTEAZMgHGIBPQGOptu2+++eZLNJaTIAg1ZAIIgmgZNRuJyQSUkVVkZ8P3wJrdJRNggE6bgM3NzeiNGzfKs/hv3bp1mSL8BEHUgkwAQRAt59SJuQ8/Wd1ITCagDGUCjEEmoATW8auXb5HgJwjCCGQCCIIwDWwk/qVPf+JLn3zq8Uszx8dmhQkQzYiv/ehHl99+5x0+X/xP/9U/vcJ/aTJkAvQhE2CcXHoXLLF7/OdWmgBxrtDyLYIgWg2ZAIIg2sIHnnjvryXSmajeQqHLf/lH5o7kUSAToA+VAxmnFZkAEvwEQbQTMgEEQUgBmYDOI3smILNxDWyQOxKZACH4adsuQRCdgkwAQRBSQCag81A5kHFqmQC14KflWwRByAKZAIIgpOA3vvD5r33uUx96XnloGmQC9KFyIOO8+uqrl7/9rf/vxaefeOTSzAOPzL7+xptc8NMsfoIgZIVMAEEQ0lDRSNzoRuI6IROgj+wmQLZyoFwuBzilB78Yl1977bU/UX5FEAQhPWQCCIKQkoY3EtcJmQB9qByoNurlWxThJwii2yETQBCE1NS9kbhOyAToQ5mAfW7fvrWwtra+gLP433nnncsk+AmCOGqQCSAIomuouZG4TsgE6NOrJgAbd2n5FkEQvQaZAIIgug7cSPyLz1184Rc+2nipEJkAfXrBBFQL/uXl5SuRSGRR+TVBEETPQCaAIIiuBRuJf+UXPvmlZz/4WN2NxGQC9DlqJoCWbxEEQehDJoAgiCNBvY3EZAL06WYTIAT/a6+9dvntt9+m5VsEQRCHQCaAIIgjxWGNxGQC9JHdBPzmb/zPlx45d+riL//KLz6/spXiy7dWV1cXrl+/Tsu3CIIgGoRMAEEQRxatRmI9E4CRZL9t19/LJiAfnmdOICHV6xMRfhT8X//6139beZogCIJoEjIBBEEcedSNxGgCwtFdLiyxQfT27dtXxMz3v/fr/92Ln7r43pbuJdCCTIA2QvBXHxeK8BMEQbQeMgEEQfQM2Eg8PTX16P2VFU1h+Ttf/MI3yQS0zwTg8q3FxcWFn/3sZ5dJ8BMEQbQXMgEEQRAKZALMMwG0bZcgCEIuyAQQBEEokAlojQnY3NyM3rhxg8/ip227BEEQckImgCAIQuHhCw/+4v/0+U9/6dGzM4Y3EtfDUTIBWMdP23YJgiC6DzIBBEEQVew3EpuTFehWE4CCf4Fx+fJlvnxra2trYW1tjZZvEQRBdCFkAgiCIHTw+/0zn372Qy80spG4HmQ1AV/+0v/+wnvOzV389HPPXorkBmjbLkEQxBGGTABBEEQdfOCJx37t6SceudSKngHZTIAYzfnP/tk/ex6FPk5RwueprIcgCOLoQiaAIAiiAUobiT+ku5G4HjppAtTLt9bW1hauXbtG23YJgiB6EDIBBEEQBsHswOc+8/EXGm0kbpcJqBb89+7du7KisyOBIAiC6C3IBBAEQTQJNhJ/9ucvvlBvqZAZJiCXywFO6aFtuwRBEEQ9kAkgCIJoEaJU6NJzTz0f8Hn8ytMHaIUJoOVbBEEQRDOQCSAIgjCBWo3EjZqA27duLaytry/Q8i2CIAiiVZAJIAiCMBGtRuJaJkC9fGt+fh5Le2j5FkEQBNFyyAQQBEG0CdFI/J5HH30UTYBa8OMs/qWlpSvRaHRR+eMEQRAEQRAEQRwVTp088eHJyclHlIcEQRAEQRAEQRAEQRAEQRAEQRAEQRAEQRAEQRAEQRAEQRAEQRAEQRAEQRAEQRAEQRAEQRAEQRAEQRAEQRAEQRAEQRAEQRAEQRAEQRAEQRAEQRAEQRAEQRAEQRAEQRAEQRAEQRAEQRAEQRAEQRAEQRAEQRAEQRAEQRAEQRAEQRAEQRAEQRAEQRAEQRAEQRAEQRAEQRAEQRAEQRAEQRAEQRAEQRAEQRAEQRAEQRAEQRAEQRAEQRAEQRAEQRAEQRAEQRAEQRAEQRAEQRAEQRAEQRAEQRAEQRAEQRAEQRAEQRAEQRAEQRAEQRAEQRAEQRAEQRAEQRAEQRAEQRAEQRAEQRAEQRAEQRAEQRAEQRAEQRAEQRCGAfj/AfmOXDZZLqN9AAAAAElFTkSuQmCC;" parent="1" vertex="1">
          <mxGeometry x="50" y="363" width="516" height="443" as="geometry" />
        </mxCell>
        <mxCell id="EHKfN0rfkp6UrvfrL8R5-2" value="" style="shape=curlyBracket;whiteSpace=wrap;html=1;rounded=1;labelPosition=left;verticalLabelPosition=middle;align=right;verticalAlign=middle;rotation=-180;strokeWidth=2;" parent="1" vertex="1">
          <mxGeometry x="530" y="460" width="45" height="100" as="geometry" />
        </mxCell>
        <mxCell id="EHKfN0rfkp6UrvfrL8R5-3" value="&lt;p style=&quot;line-height: 160%;&quot;&gt;&lt;span style=&quot;font-size: 18px;&quot;&gt;&lt;b&gt;&lt;i&gt;Source &lt;/i&gt;&lt;/b&gt;Parameter&lt;br&gt;Combinations&lt;/span&gt;&lt;br&gt;&lt;/p&gt;" style="text;html=1;align=center;verticalAlign=middle;resizable=0;points=[];autosize=1;strokeColor=none;fillColor=none;" parent="1" vertex="1">
          <mxGeometry x="574" y="470" width="170" height="80" as="geometry" />
        </mxCell>
        <mxCell id="EHKfN0rfkp6UrvfrL8R5-4" value="" style="shape=curlyBracket;whiteSpace=wrap;html=1;rounded=1;labelPosition=left;verticalLabelPosition=middle;align=right;verticalAlign=middle;rotation=-180;strokeWidth=2;" parent="1" vertex="1">
          <mxGeometry x="530" y="560" width="45" height="180" as="geometry" />
        </mxCell>
        <mxCell id="EHKfN0rfkp6UrvfrL8R5-5" value="&lt;p style=&quot;line-height: 160%;&quot;&gt;&lt;span style=&quot;font-size: 18px;&quot;&gt;&lt;b&gt;&lt;i&gt;Target&amp;nbsp;&lt;/i&gt;&lt;/b&gt;Parameter&lt;br&gt;Combinations&lt;/span&gt;&lt;br&gt;&lt;/p&gt;" style="text;html=1;align=center;verticalAlign=middle;resizable=0;points=[];autosize=1;strokeColor=none;fillColor=none;" parent="1" vertex="1">
          <mxGeometry x="574" y="615" width="170" height="80" as="geometry" />
        </mxCell>
        <mxCell id="EHKfN0rfkp6UrvfrL8R5-6" value="" style="edgeStyle=segmentEdgeStyle;endArrow=classic;html=1;curved=0;rounded=0;endSize=8;startSize=8;sourcePerimeterSpacing=0;targetPerimeterSpacing=0;entryX=0.484;entryY=0.226;entryDx=0;entryDy=0;entryPerimeter=0;" parent="1" source="EHKfN0rfkp6UrvfrL8R5-7" edge="1">
          <mxGeometry width="100" relative="1" as="geometry">
            <mxPoint x="560" y="340" as="sourcePoint" />
            <mxPoint x="294.00400000000013" y="489.9801399999999" as="targetPoint" />
            <Array as="points">
              <mxPoint x="294" y="340" />
            </Array>
          </mxGeometry>
        </mxCell>
        <mxCell id="EHKfN0rfkp6UrvfrL8R5-7" value="&lt;p style=&quot;line-height: 160%;&quot;&gt;&lt;span style=&quot;font-size: 18px;&quot;&gt;&lt;b&gt;&lt;i&gt;Target &lt;/i&gt;Voxel Position&lt;/b&gt;&lt;/span&gt;&lt;/p&gt;" style="text;html=1;align=center;verticalAlign=middle;resizable=0;points=[];autosize=1;strokeColor=none;fillColor=none;" parent="1" vertex="1">
          <mxGeometry x="554" y="310" width="210" height="60" as="geometry" />
        </mxCell>
        <mxCell id="EHKfN0rfkp6UrvfrL8R5-9" value="" style="edgeStyle=segmentEdgeStyle;endArrow=classic;html=1;curved=0;rounded=0;endSize=8;startSize=8;sourcePerimeterSpacing=0;targetPerimeterSpacing=0;exitX=-0.01;exitY=0.477;exitDx=0;exitDy=0;exitPerimeter=0;" parent="1" source="EHKfN0rfkp6UrvfrL8R5-10" edge="1">
          <mxGeometry width="100" relative="1" as="geometry">
            <mxPoint x="610" y="800" as="sourcePoint" />
            <mxPoint x="283.0000000000002" y="755" as="targetPoint" />
            <Array as="points">
              <mxPoint x="557" y="800" />
              <mxPoint x="283" y="800" />
            </Array>
          </mxGeometry>
        </mxCell>
        <mxCell id="EHKfN0rfkp6UrvfrL8R5-10" value="&lt;p style=&quot;line-height: 160%;&quot;&gt;&lt;span style=&quot;font-size: 18px;&quot;&gt;&lt;b&gt;&lt;i&gt;Target &lt;/i&gt;Intensity&lt;/b&gt;&lt;/span&gt;&lt;/p&gt;" style="text;html=1;align=center;verticalAlign=middle;resizable=0;points=[];autosize=1;strokeColor=none;fillColor=none;" parent="1" vertex="1">
          <mxGeometry x="579" y="771" width="160" height="60" as="geometry" />
        </mxCell>
      </root>
    </mxGraphModel>
  </diagram>
</mxfile>
